<svg width="20" height="20" viewBox="0 0 20 20" fill="none" xmlns="http://www.w3.org/2000/svg">
<path d="M16.6667 6.66667C14.825 6.66667 13.3333 5.175 13.3333 3.33333C13.3333 1.49167 14.825 0 16.6667 0C18.5083 0 20 1.49167 20 3.33333C20 5.175 18.5083 6.66667 16.6667 6.66667ZM10 12.85C10.6417 12.85 11.2833 12.6083 11.7667 12.1167L15.6583 8.225C13.3833 7.75833 11.6667 5.74167 11.6667 3.325C11.6667 3.04167 11.7 2.76667 11.7417 2.49167H4.16667C2.65833 2.49167 1.35 3.3 0.616667 4.5L8.23333 12.125C8.71667 12.6083 9.35833 12.8583 10 12.8583V12.85ZM18.1333 8.10833L12.9417 13.3C12.1333 14.1083 11.0583 14.5167 9.99167 14.5167C8.925 14.5167 7.85833 14.1083 7.04167 13.3L0.0416667 6.28333C0.0333333 6.40833 0 6.53333 0 6.66667V15.8333C0 18.1333 1.86667 20 4.16667 20H15.8333C18.1333 20 20 18.1333 20 15.8333L19.9833 7.05833C19.45 7.53333 18.825 7.89167 18.1333 8.10833Z" fill="#840FAF"/>
</svg>
