<svg width="20" height="21" viewBox="0 0 20 21" fill="none" xmlns="http://www.w3.org/2000/svg">
<path d="M13.8075 17.4413C13.4019 19.4288 11.6404 20.9296 9.5352 20.9296C7.43003 20.9296 5.66758 19.4288 5.26294 17.4413H13.8075ZM16.9478 6.10447C18.6309 6.10447 20 4.73532 20 3.05223C20 1.36915 18.6309 0 16.9478 0C15.2647 0 13.8955 1.36915 13.8955 3.05223C13.8955 4.73532 15.2647 6.10447 16.9478 6.10447ZM17.1571 7.83814C17.0873 7.84075 17.0184 7.8486 16.9478 7.8486C14.3028 7.8486 12.1514 5.69721 12.1514 3.05223C12.1514 2.26389 12.3459 1.52088 12.6851 0.864218C11.6543 0.310456 10.4823 0 9.25265 0C5.85071 0 2.90574 2.36243 2.16798 5.68239L0.118619 12.3075C-0.402005 13.9906 0.856387 15.6963 2.61796 15.6963H16.271C18.0849 15.6963 19.3486 13.8955 18.7311 12.1898L17.1562 7.83639L17.1571 7.83814Z" fill="#840FAF"/>
</svg>
