<svg width="24" height="24" viewBox="0 0 24 24" fill="none" xmlns="http://www.w3.org/2000/svg">
<path d="M15.5 12.0001C15.5008 12.1317 15.4755 12.2621 15.4258 12.384C15.376 12.5058 15.3027 12.6166 15.21 12.7101L11.21 16.7101C11.1168 16.8033 11.0061 16.8773 10.8843 16.9277C10.7624 16.9782 10.6319 17.0042 10.5 17.0042C10.3681 17.0042 10.2376 16.9782 10.1158 16.9277C9.99393 16.8773 9.88324 16.8033 9.79 16.7101C9.69676 16.6168 9.6228 16.5061 9.57234 16.3843C9.52188 16.2625 9.49591 16.1319 9.49591 16.0001C9.49591 15.8682 9.52188 15.7376 9.57234 15.6158C9.6228 15.494 9.69676 15.3833 9.79 15.2901L13.1 12.0001L9.92 8.70006C9.81771 8.60807 9.7355 8.49596 9.67852 8.37075C9.62153 8.24553 9.59099 8.10991 9.58881 7.97236C9.58664 7.8348 9.61286 7.69828 9.66585 7.57132C9.71884 7.44437 9.79746 7.32971 9.89678 7.23453C9.99611 7.13934 10.114 7.06567 10.2431 7.01813C10.3722 6.97059 10.5097 6.95019 10.647 6.95822C10.7844 6.96625 10.9186 7.00253 11.0413 7.06479C11.1639 7.12705 11.2724 7.21395 11.36 7.32006L15.22 11.3201C15.3963 11.5029 15.4964 11.7461 15.5 12.0001Z" fill="#15192C"/>
</svg>
