<svg width="15" height="9" viewBox="0 0 15 9" fill="none" xmlns="http://www.w3.org/2000/svg">
<path d="M1.13404 0.5H13.866C14.0912 0.500875 14.3111 0.563576 14.4978 0.680176C14.6846 0.796775 14.8298 0.962038 14.9151 1.15506C15.0004 1.34809 15.022 1.56021 14.9772 1.76461C14.9323 1.969 14.823 2.15649 14.6631 2.30337L8.30856 8.18805C8.20269 8.2869 8.07674 8.36535 7.93796 8.41889C7.79919 8.47244 7.65034 8.5 7.5 8.5C7.34966 8.5 7.20081 8.47244 7.06204 8.41889C6.92326 8.36535 6.79731 8.2869 6.69144 8.18805L0.336869 2.30337C0.176956 2.15649 0.0676625 1.969 0.0228102 1.76461C-0.0220421 1.56021 -0.000439717 1.34809 0.0848865 1.15506C0.170213 0.962038 0.31543 0.796775 0.502177 0.680176C0.688923 0.563576 0.908812 0.500875 1.13404 0.5Z" fill="#840FAF"/>
</svg>
