<svg width="30" height="24" viewBox="0 0 30 24" fill="none" xmlns="http://www.w3.org/2000/svg">
<g clip-path="url(#clip0_78_1205)">
<path d="M11.9998 10.6667C9.05432 10.6667 6.6665 8.27885 6.6665 5.33333C6.6665 2.38781 9.05432 0 11.9998 0C14.9454 0 17.3332 2.38781 17.3332 5.33333C17.3332 8.27885 14.9454 10.6667 11.9998 10.6667Z" fill="#840FAF"/>
<path d="M0.000868912 22.9324C0.517678 16.5689 5.68255 13.3335 11.9778 13.3335C18.3616 13.3335 23.6065 16.3911 23.9972 22.9335C24.0128 23.1941 23.9972 24.0002 22.9956 24.0002C18.0548 24.0002 10.713 24.0002 0.970003 24.0002C0.635616 24.0002 -0.0272823 23.2791 0.000868912 22.9324Z" fill="#840FAF"/>
<path d="M20.0232 6.18621L22.1162 8.27923C22.5015 8.66454 23.1263 8.66454 23.5116 8.27923L28.3953 3.39551" stroke="#840FAF" stroke-width="2" stroke-linecap="round" stroke-linejoin="round"/>
</g>
<defs>
<clipPath id="clip0_78_1205">
<rect width="30" height="24" fill="white"/>
</clipPath>
</defs>
</svg>
