<svg width="18" height="19" viewBox="0 0 18 19" fill="none" xmlns="http://www.w3.org/2000/svg">
<path d="M2.25 4.75016H3.75M3.75 4.75016H15.75M3.75 4.75016V15.8335C3.75 16.2534 3.90804 16.6561 4.18934 16.9531C4.47064 17.25 4.85218 17.4168 5.25 17.4168H12.75C13.1478 17.4168 13.5294 17.25 13.8107 16.9531C14.092 16.6561 14.25 16.2534 14.25 15.8335V4.75016M6 4.75016V3.16683C6 2.7469 6.15804 2.34418 6.43934 2.04724C6.72064 1.75031 7.10218 1.5835 7.5 1.5835H10.5C10.8978 1.5835 11.2794 1.75031 11.5607 2.04724C11.842 2.34418 12 2.7469 12 3.16683V4.75016" stroke="#AC0606" stroke-width="1.5" stroke-linecap="round" stroke-linejoin="round"/>
</svg>
