<svg width="33" height="32" viewBox="0 0 33 32" fill="none" xmlns="http://www.w3.org/2000/svg">
<path fill-rule="evenodd" clip-rule="evenodd" d="M8.45854 6.41699C5.37779 6.41697 2.87076 8.92398 2.87076 12.0053C2.87081 15.0861 5.37776 17.5931 8.45854 17.5931C9.41886 17.5931 10.3655 17.3453 11.1973 16.8766C11.2476 16.848 11.3035 16.8344 11.3589 16.8343C11.4218 16.8343 11.4845 16.852 11.5388 16.888C11.6416 16.9548 11.6986 17.0736 11.6861 17.1957C11.5062 18.9754 11.0443 20.634 10.313 22.1258C9.66667 23.4436 8.82052 24.6003 7.78539 25.5835C12.8382 22.8823 14.8947 17.1193 14.201 12.4632C13.7654 9.54056 12.0281 6.41699 8.45854 6.41699Z" fill="#840FAF"/>
<path fill-rule="evenodd" clip-rule="evenodd" d="M24.4066 6.41699C21.3253 6.41697 18.8188 8.92398 18.8188 12.0053C18.8189 15.0861 21.3252 17.5931 24.4066 17.5931C25.3664 17.5931 26.3136 17.3453 27.1454 16.8766C27.1957 16.848 27.251 16.8344 27.3064 16.8343C27.3692 16.8343 27.432 16.852 27.4868 16.888C27.5896 16.9548 27.6461 17.0736 27.6341 17.1957C27.4543 18.9754 26.9918 20.634 26.2605 22.1258C25.6142 23.4436 24.7686 24.6003 23.7335 25.5835C28.7852 22.8823 30.8422 17.1193 30.1485 12.4632C29.713 9.54056 27.9761 6.41699 24.4066 6.41699Z" fill="#840FAF"/>
</svg>
