<svg width="117" height="117" viewBox="0 0 117 117" fill="none" xmlns="http://www.w3.org/2000/svg">
<g clip-path="url(#clip0_175_1464)">
<path d="M71.6257 70.9942L64.1074 37.7909L40.9946 62.7867L23.4664 30.1843L25.2012 83.6537C25.2239 84.3518 25.7008 84.953 26.3755 85.1338L73.1128 97.657C73.7875 97.8378 74.5011 97.5558 74.8698 96.9623L103.107 51.524L71.6257 70.9942Z" fill="#FFE17D"/>
<path d="M40.9947 62.7869L23.4663 30.1846L25.2011 83.6539C25.2238 84.352 25.7007 84.9533 26.3756 85.1341L38.2979 88.3287L40.9947 62.7869Z" fill="#FFD164"/>
<path d="M25.0244 78.2061L25.2012 83.6539C25.2238 84.352 25.7008 84.9533 26.3756 85.1341L73.1127 97.6573C73.7876 97.8381 74.5013 97.5559 74.8698 96.9625L77.7469 92.333L25.0244 78.2061Z" fill="#FFD164"/>
<path d="M25.0246 78.2061L25.2013 83.6539C25.224 84.352 25.7009 84.9533 26.3758 85.1341L38.2981 88.3287L38.9722 81.9433L25.0246 78.2061Z" fill="#FFC350"/>
<path d="M65.3388 33.1973C67.4534 33.7639 69.627 32.509 70.1936 30.3944C70.7602 28.2798 69.5053 26.1062 67.3907 25.5396C65.2761 24.973 63.1025 26.2279 62.5359 28.3425C61.9693 30.4571 63.2242 32.6307 65.3388 33.1973Z" fill="#FFE17D"/>
<path d="M67.766 31.7947C65.6514 31.2281 64.3965 29.0546 64.9631 26.94C65.1136 26.3785 65.3798 25.8801 65.7257 25.4578C64.2357 25.7022 62.9519 26.7883 62.5357 28.3414C61.9691 30.456 63.224 32.6296 65.3386 33.1962C66.8918 33.6124 68.4743 33.0434 69.4309 31.8754C68.8922 31.9638 68.3275 31.9452 67.766 31.7947Z" fill="#FFD164"/>
<path d="M20.9519 26.2278C22.644 26.6812 24.3833 25.6771 24.8367 23.985C25.2901 22.2929 24.2859 20.5536 22.5938 20.1002C20.9017 19.6468 19.1625 20.651 18.7091 22.3431C18.2557 24.0352 19.2599 25.7744 20.9519 26.2278Z" fill="#FFE17D"/>
<path d="M22.8931 25.1058C21.2014 24.6524 20.1975 22.9137 20.6508 21.2219C20.7711 20.7728 20.9841 20.374 21.2608 20.0362C20.0689 20.2318 19.0418 21.1005 18.7089 22.3431C18.2556 24.0348 19.2594 25.7736 20.9512 26.2269C22.1936 26.5598 23.4597 26.1047 24.225 25.1703C23.7941 25.2411 23.3422 25.2261 22.8931 25.1058Z" fill="#FFD164"/>
<path d="M106.99 49.2815C108.682 49.7349 110.422 48.7308 110.875 47.0387C111.328 45.3466 110.324 43.6073 108.632 43.154C106.94 42.7006 105.201 43.7047 104.747 45.3968C104.294 47.0889 105.298 48.8281 106.99 49.2815Z" fill="#FFE17D"/>
<path d="M108.933 48.1604C107.241 47.7071 106.237 45.9684 106.691 44.2766C106.811 43.8275 107.024 43.4286 107.301 43.0909C106.109 43.2865 105.082 44.1553 104.749 45.3978C104.295 47.0895 105.299 48.8283 106.991 49.2816C108.233 49.6145 109.499 49.1594 110.265 48.225C109.834 48.2958 109.382 48.2808 108.933 48.1604Z" fill="#FFD164"/>
</g>
<defs>
<clipPath id="clip0_175_1464">
<rect width="95.4171" height="95.4171" fill="white" transform="translate(24.6958) rotate(15)"/>
</clipPath>
</defs>
</svg>
