<svg width="24" height="24" viewBox="0 0 24 24" fill="none" xmlns="http://www.w3.org/2000/svg">
<path d="M23.3724 12.0144C23.3724 14.317 22.6896 16.568 21.4102 18.4827C20.1309 20.3973 18.3126 21.8896 16.1852 22.7708C14.0578 23.652 11.7168 23.8825 9.45837 23.4333C7.19991 22.9841 5.12539 21.8752 3.49714 20.2469C1.86889 18.6187 0.760031 16.5442 0.310797 14.2857C-0.138437 12.0273 0.0921265 9.68632 0.973331 7.5589C1.85454 5.43149 3.3468 3.61315 5.26143 2.33384C7.17605 1.05453 9.42704 0.371704 11.7297 0.371704C13.2587 0.371511 14.7728 0.672525 16.1854 1.25755C17.598 1.84258 18.8816 2.70017 19.9628 3.78133C21.0439 4.86248 21.9015 6.14604 22.4865 7.55867C23.0716 8.97131 23.3726 10.4854 23.3724 12.0144ZM16.2489 14.5938C16.2476 13.7947 15.9572 13.0232 15.4312 12.4217L15.4297 12.4188C15.0817 12.0225 14.6659 11.6913 14.2018 11.4408L14.1974 11.4379C13.795 11.229 13.3668 11.0742 12.9239 10.9776H12.9209C12.5366 10.8957 12.1447 10.8548 11.7518 10.8555C11.5178 10.8569 11.2842 10.8387 11.0533 10.8011C10.8012 10.7591 10.5565 10.6809 10.3268 10.5688L10.3239 10.5673C10.1139 10.4601 9.92819 10.311 9.77826 10.1291L9.77679 10.1276C9.62179 9.94631 9.53128 9.71875 9.51944 9.48053C9.53094 9.285 9.59438 9.09608 9.7032 8.93323C9.81203 8.77038 9.96231 8.63949 10.1386 8.55406C10.6332 8.26355 11.1973 8.11261 11.7709 8.11729C11.965 8.13291 12.1574 8.16538 12.3459 8.21435L12.418 8.22906C12.6575 8.28672 12.8905 8.36851 13.1136 8.47318C13.3213 8.56746 13.5109 8.69736 13.6739 8.857C13.7802 8.97279 13.9089 9.06586 14.0521 9.13059C14.1954 9.19532 14.3503 9.23038 14.5075 9.23366C14.6646 9.23693 14.8208 9.20835 14.9667 9.14964C15.1125 9.09093 15.245 9.0033 15.356 8.89204C15.4671 8.78078 15.5545 8.64818 15.6129 8.50224C15.6714 8.3563 15.6997 8.20004 15.6961 8.04287C15.6926 7.8857 15.6572 7.73087 15.5922 7.58773C15.5272 7.44458 15.434 7.31607 15.318 7.20994C14.956 6.85081 14.5327 6.55944 14.068 6.34965C13.6979 6.17858 13.311 6.0465 12.9136 5.95553H12.9121L12.9003 5.95259V4.7967C12.9059 4.64037 12.8799 4.48451 12.8239 4.33844C12.7679 4.19237 12.6831 4.05908 12.5744 3.94652C12.4658 3.83395 12.3356 3.74443 12.1916 3.68328C12.0476 3.62213 11.8928 3.59062 11.7364 3.59062C11.5799 3.59062 11.4251 3.62213 11.2811 3.68328C11.1371 3.74443 11.0069 3.83395 10.8983 3.94652C10.7896 4.05908 10.7048 4.19237 10.6488 4.33844C10.5928 4.48451 10.5668 4.64037 10.5724 4.7967V5.91876C9.9791 6.04251 9.41184 6.26842 8.89591 6.58641C8.3873 6.88159 7.96329 7.3028 7.66476 7.80945C7.36623 8.3161 7.20324 8.89111 7.1915 9.47906C7.20035 10.2533 7.475 11.0009 7.96944 11.5967C8.32795 12.0374 8.7761 12.3968 9.28415 12.6511C9.72108 12.8686 10.188 13.0197 10.6694 13.0996C11.0272 13.1589 11.3892 13.1879 11.7518 13.1864C11.979 13.1852 12.2058 13.2078 12.4283 13.2541C12.6669 13.3065 12.8977 13.3895 13.115 13.5011C13.327 13.6186 13.517 13.7719 13.6768 13.9541C13.8314 14.1321 13.9174 14.3594 13.9194 14.5952C13.9194 14.7379 13.9194 15.0717 13.3533 15.4379C12.851 15.7411 12.2752 15.9008 11.6886 15.8996C11.4446 15.8874 11.2019 15.8579 10.9621 15.8114C10.7303 15.7619 10.5041 15.689 10.2871 15.5938C10.083 15.5031 9.90199 15.3649 9.76209 15.1908C9.66294 15.072 9.5411 14.974 9.40368 14.9028C9.26626 14.8316 9.11602 14.7885 8.96174 14.776C8.80746 14.7635 8.65224 14.7818 8.50514 14.83C8.35805 14.8782 8.22203 14.9552 8.10504 15.0566C7.98805 15.1579 7.89244 15.2816 7.82379 15.4203C7.75514 15.559 7.71483 15.71 7.70522 15.8645C7.6956 16.019 7.71688 16.1739 7.7678 16.32C7.81872 16.4662 7.89827 16.6007 8.00179 16.7158C8.38503 17.1724 8.87289 17.5296 9.42385 17.757C9.78977 17.9134 10.1713 18.0302 10.5621 18.1055H10.5724V19.257C10.5668 19.4133 10.5928 19.5692 10.6488 19.7153C10.7048 19.8613 10.7896 19.9946 10.8983 20.1072C11.0069 20.2197 11.1371 20.3093 11.2811 20.3704C11.4251 20.4316 11.5799 20.4631 11.7364 20.4631C11.8928 20.4631 12.0476 20.4316 12.1916 20.3704C12.3356 20.3093 12.4658 20.2197 12.5744 20.1072C12.6831 19.9946 12.7679 19.8613 12.8239 19.7153C12.8799 19.5692 12.9059 19.4133 12.9003 19.257V18.0952C13.5111 17.9643 14.0937 17.7258 14.6209 17.3908C15.112 17.1071 15.5206 16.7001 15.8061 16.21C16.0916 15.72 16.2442 15.1639 16.2489 14.5967V14.5938Z" fill="#840FAF"/>
</svg>
