<svg width="18" height="21" viewBox="0 0 18 21" fill="none" xmlns="http://www.w3.org/2000/svg">
<path d="M10.6378 20.5C10.4607 20.5 10.2884 20.4415 10.1467 20.3333L6.87291 17.8333C6.77126 17.7557 6.68876 17.6551 6.63194 17.5393C6.57512 17.4236 6.54553 17.296 6.54553 17.1667V12.4833L0.803334 5.90583C0.395521 5.4374 0.129247 4.85901 0.0365182 4.2402C-0.0562109 3.62138 0.02855 2.98846 0.280613 2.41751C0.532677 1.84656 0.941317 1.36188 1.45742 1.02172C1.97352 0.681561 2.57512 0.500395 3.18992 0.5H14.8118C15.4266 0.500734 16.028 0.682199 16.5439 1.02259C17.0598 1.36298 17.4682 1.84781 17.72 2.41882C17.9718 2.98983 18.0563 3.62273 17.9633 4.24146C17.8703 4.86018 17.6039 5.43841 17.1959 5.90667L11.4562 12.4833V19.6667C11.4562 19.8877 11.37 20.0996 11.2165 20.2559C11.063 20.4122 10.8548 20.5 10.6378 20.5ZM8.18242 16.75L9.81931 18V12.1667C9.81947 11.9626 9.89315 11.7657 10.0264 11.6133L15.9748 4.79917C16.1732 4.5709 16.3026 4.2892 16.3476 3.98788C16.3925 3.68655 16.3511 3.37842 16.2283 3.10046C16.1056 2.82251 15.9066 2.58655 15.6553 2.42091C15.404 2.25527 15.1112 2.16699 14.8118 2.16667H3.18992C2.89073 2.16713 2.59804 2.25546 2.34692 2.42105C2.09581 2.58665 1.89694 2.8225 1.77418 3.10029C1.65141 3.37809 1.60996 3.68605 1.65478 3.98723C1.69961 4.28842 1.82882 4.57004 2.02691 4.79833L7.97617 11.6133C8.1091 11.7659 8.18248 11.9627 8.18242 12.1667V16.75Z" fill="#840FAF"/>
</svg>
