<svg width="18" height="17" viewBox="0 0 18 17" fill="none" xmlns="http://www.w3.org/2000/svg">
<path d="M7.5708 13.4549H1.29834" stroke="#92959E" stroke-width="1.5" stroke-linecap="round" stroke-linejoin="round"/>
<path d="M10.3685 3.78648H16.641" stroke="#92959E" stroke-width="1.5" stroke-linecap="round" stroke-linejoin="round"/>
<path fill-rule="evenodd" clip-rule="evenodd" d="M5.97414 3.73252C5.97414 2.44008 4.92072 1.39209 3.62159 1.39209C2.32246 1.39209 1.26904 2.44008 1.26904 3.73252C1.26904 5.02496 2.32246 6.07295 3.62159 6.07295C4.92072 6.07295 5.97414 5.02496 5.97414 3.73252Z" stroke="#92959E" stroke-width="1.5" stroke-linecap="round" stroke-linejoin="round"/>
<path fill-rule="evenodd" clip-rule="evenodd" d="M17.1973 13.4159C17.1973 12.1234 16.1447 11.0754 14.8455 11.0754C13.5456 11.0754 12.4922 12.1234 12.4922 13.4159C12.4922 14.7083 13.5456 15.7563 14.8455 15.7563C16.1447 15.7563 17.1973 14.7083 17.1973 13.4159Z" stroke="#92959E" stroke-width="1.5" stroke-linecap="round" stroke-linejoin="round"/>
</svg>
