<svg width="24" height="24" viewBox="0 0 24 24" fill="none" xmlns="http://www.w3.org/2000/svg">
<g clip-path="url(#clip0_619_1076)">
<path d="M23.6426 12.1221C23.6426 14.4248 22.9598 16.6758 21.6805 18.5904C20.4011 20.505 18.5828 21.9973 16.4554 22.8785C14.328 23.7597 11.987 23.9902 9.72858 23.541C7.47013 23.0918 5.39561 21.9829 3.76736 20.3547C2.1391 18.7264 1.03025 16.6519 0.581015 14.3934C0.131781 12.135 0.362344 9.79405 1.24355 7.66663C2.12475 5.53922 3.61702 3.72088 5.53164 2.44157C7.44627 1.16226 9.69725 0.479431 12 0.479431C13.5289 0.479238 15.043 0.780252 16.4556 1.36528C17.8683 1.95031 19.1518 2.80789 20.233 3.88905C21.3141 4.97021 22.1717 6.25376 22.7567 7.6664C23.3418 9.07904 23.6428 10.5931 23.6426 12.1221ZM16.5191 14.7015C16.5178 13.9025 16.2274 13.1309 15.7014 12.5294L15.7 12.5265C15.352 12.1302 14.9361 11.799 14.472 11.5485L14.4676 11.5456C14.0652 11.3367 13.637 11.182 13.1941 11.0853H13.1911C12.8068 11.0034 12.4149 10.9625 12.022 10.9633C11.7881 10.9647 11.5544 10.9465 11.3235 10.9088C11.0714 10.8669 10.8267 10.7886 10.597 10.6765L10.5941 10.675C10.3841 10.5679 10.1984 10.4187 10.0485 10.2368L10.047 10.2353C9.892 10.054 9.80149 9.82647 9.78966 9.58826C9.80116 9.39273 9.86459 9.20381 9.97342 9.04096C10.0822 8.87811 10.2325 8.74722 10.4088 8.66178C10.9034 8.37128 11.4675 8.22034 12.0411 8.22502C12.2352 8.24063 12.4276 8.27311 12.6161 8.32208L12.6882 8.33678C12.9277 8.39444 13.1608 8.47624 13.3838 8.5809C13.5915 8.67519 13.7811 8.80509 13.9441 8.96473C14.0504 9.08052 14.1791 9.17358 14.3223 9.23832C14.4656 9.30305 14.6205 9.33811 14.7777 9.34138C14.9348 9.34466 15.0911 9.31608 15.2369 9.25737C15.3827 9.19866 15.5152 9.11103 15.6262 8.99977C15.7373 8.8885 15.8247 8.75591 15.8831 8.60997C15.9416 8.46403 15.9699 8.30776 15.9663 8.15059C15.9628 7.99342 15.9274 7.8386 15.8625 7.69545C15.7975 7.5523 15.7042 7.42379 15.5882 7.31767C15.2263 6.95853 14.8029 6.66716 14.3382 6.45737C13.9681 6.28631 13.5812 6.15422 13.1838 6.06325H13.1823L13.1705 6.06031V4.90443C13.1761 4.7481 13.1501 4.59224 13.0941 4.44617C13.0381 4.3001 12.9533 4.16681 12.8446 4.05424C12.736 3.94168 12.6058 3.85215 12.4618 3.79101C12.3178 3.72986 12.163 3.69835 12.0066 3.69835C11.8501 3.69835 11.6953 3.72986 11.5513 3.79101C11.4073 3.85215 11.2771 3.94168 11.1685 4.05424C11.0599 4.16681 10.975 4.3001 10.919 4.44617C10.863 4.59224 10.837 4.7481 10.8426 4.90443V6.02649C10.2493 6.15024 9.68206 6.37615 9.16613 6.69414C8.65751 6.98931 8.23351 7.41053 7.93498 7.91718C7.63645 8.42383 7.47346 8.99884 7.46172 9.58678C7.47056 10.361 7.74522 11.1086 8.23966 11.7044C8.59817 12.1452 9.04632 12.5046 9.55436 12.7588C9.9913 12.9763 10.4582 13.1275 10.9397 13.2074C11.2974 13.2666 11.6594 13.2956 12.022 13.2941C12.2493 13.2929 12.476 13.3156 12.6985 13.3618C12.9371 13.4142 13.1679 13.4972 13.3852 13.6088C13.5972 13.7264 13.7872 13.8796 13.947 14.0618C14.1016 14.2398 14.1876 14.4672 14.1897 14.703C14.1897 14.8456 14.1897 15.1794 13.6235 15.5456C13.1212 15.8488 12.5455 16.0085 11.9588 16.0074C11.7148 15.9952 11.4721 15.9657 11.2323 15.9191C11.0005 15.8696 10.7744 15.7967 10.5573 15.7015C10.3532 15.6108 10.1722 15.4727 10.0323 15.2985C9.93316 15.1797 9.81132 15.0818 9.6739 15.0105C9.53648 14.9393 9.38624 14.8962 9.23196 14.8837C9.07768 14.8712 8.92246 14.8896 8.77536 14.9377C8.62826 14.9859 8.49225 15.0629 8.37526 15.1643C8.25827 15.2656 8.16266 15.3893 8.09401 15.528C8.02536 15.6667 7.98505 15.8178 7.97543 15.9722C7.96582 16.1267 7.9871 16.2816 8.03802 16.4278C8.08894 16.5739 8.16849 16.7085 8.27201 16.8235C8.65524 17.2801 9.1431 17.6373 9.69407 17.8647C10.06 18.0211 10.4416 18.1379 10.8323 18.2133H10.8426V19.3647C10.837 19.5211 10.863 19.6769 10.919 19.823C10.975 19.9691 11.0599 20.1023 11.1685 20.2149C11.2771 20.3275 11.4073 20.417 11.5513 20.4781C11.6953 20.5393 11.8501 20.5708 12.0066 20.5708C12.163 20.5708 12.3178 20.5393 12.4618 20.4781C12.6058 20.417 12.736 20.3275 12.8446 20.2149C12.9533 20.1023 13.0381 19.9691 13.0941 19.823C13.1501 19.6769 13.1761 19.5211 13.1705 19.3647V18.203C13.7813 18.0721 14.3639 17.8335 14.8911 17.4985C15.3823 17.2149 15.7908 16.8078 16.0763 16.3178C16.3618 15.8277 16.5145 15.2716 16.5191 14.7044V14.7015Z" fill="#840FAF"/>
</g>
<defs>
<clipPath id="clip0_619_1076">
<rect width="24" height="24" fill="white"/>
</clipPath>
</defs>
</svg>
