<svg width="24" height="18" viewBox="0 0 24 18" fill="none" xmlns="http://www.w3.org/2000/svg">
<path d="M20.5258 0.529848C20.2759 0.368201 19.9901 0.270408 19.6936 0.245065C19.3971 0.219722 19.0989 0.267605 18.8253 0.384505L9.85762 3.91633C9.64553 4.00345 9.41833 4.0479 9.18904 4.04714H3.44802C2.96618 4.04714 2.50407 4.23855 2.16336 4.57926C1.82264 4.91997 1.63123 5.38208 1.63123 5.86392V6.00926H-0.185547V10.3695H1.63123V10.5585C1.64262 11.0327 1.83904 11.4837 2.17853 11.815C2.51802 12.1464 2.97364 12.3318 3.44802 12.3317L5.62815 16.9536C5.77578 17.2648 6.00819 17.5281 6.29871 17.7132C6.58922 17.8983 6.92606 17.9977 7.27052 18H8.18618C8.6655 17.9962 9.12388 17.8031 9.46145 17.4628C9.79903 17.1225 9.98844 16.6626 9.98843 16.1832V12.5061L18.8253 16.0379C19.0429 16.1234 19.2745 16.1677 19.5084 16.1687C19.8712 16.162 20.2244 16.051 20.5258 15.8489C20.7648 15.6875 20.962 15.4715 21.101 15.2188C21.24 14.9661 21.3168 14.6838 21.3251 14.3955V2.02688C21.3238 1.73113 21.2503 1.44017 21.111 1.17929C20.9717 0.9184 20.7708 0.695466 20.5258 0.529848ZM8.17165 5.86392V10.5585H3.44802V5.86392H8.17165ZM8.17165 16.1832H7.25599L5.46828 12.3317H8.17165V16.1832ZM10.5262 10.7765C10.3536 10.6884 10.1737 10.6154 9.98843 10.5585V5.76218C10.1718 5.72405 10.3517 5.67057 10.5262 5.6023L19.5084 2.02688V14.3519L10.5262 10.7765ZM21.3687 6.37262V10.0062C21.8506 10.0062 22.3127 9.81477 22.6534 9.47406C22.9941 9.13334 23.1855 8.67124 23.1855 8.1894C23.1855 7.70756 22.9941 7.24545 22.6534 6.90474C22.3127 6.56403 21.8506 6.37262 21.3687 6.37262Z" fill="#838383"/>
<path d="M17.2556 14.1922L11.4419 12.012H9.98849L9.26177 11.2853V6.19835L9.98849 5.47164L15.0755 3.2915L17.9823 1.83807H20.1625V11.2853L19.4357 14.9189L17.2556 14.1922Z" fill="#838383"/>
<path d="M7.80835 17.099L9.26177 16.3723V12.012H9.98849M9.98849 12.012L9.26177 11.2853V6.19835L9.98849 5.47164L15.0755 3.2915L17.9823 1.83807H20.1625V11.2853L19.4357 14.9189L17.2556 14.1922L11.4419 12.012H9.98849Z" stroke="#838383"/>
</svg>
