<svg width="44" height="12" viewBox="0 0 44 12" fill="none" xmlns="http://www.w3.org/2000/svg">
<path d="M43.5458 5.38543C43.4823 3.8738 42.6909 2.38552 41.1244 1.65315C40.125 1.28762 39.25 1.32671 38.9159 1.49049C38.5818 1.65427 38.7187 2.02984 39.1547 2.01859C39.7843 2.06021 40.4092 2.13315 40.8615 2.62449C41.5863 3.41209 41.391 4.85771 40.5099 5.53271C39.5027 6.30437 38.3558 6.50855 37.1208 6.45268C35.3359 6.26424 33.1094 5.16268 31.4483 3.24174C29.7873 1.3208 28.7962 0.688743 26.8923 0.351993C25.648 0.131868 24.4684 0.420524 23.3632 1.01124C22.9519 1.23118 22.1596 1.66168 22 1.74315C21.8404 1.66168 21.0482 1.23118 20.6368 1.01124C19.5317 0.420524 18.352 0.131868 17.1078 0.351993C15.2038 0.688743 14.2129 1.3208 12.5517 3.24174C10.8905 5.16268 8.66407 6.26424 6.87926 6.45268C5.64419 6.50865 4.49735 6.30446 3.4901 5.53271C2.60904 4.85762 2.41376 3.41199 3.13854 2.62449C3.59069 2.13315 4.21563 2.06021 4.84535 2.01859C5.28129 2.02993 5.41826 1.65427 5.08413 1.49049C4.75001 1.32671 3.87504 1.28762 2.87557 1.65315C1.3091 2.38562 0.517756 3.8739 0.454194 5.38543C0.390631 6.89696 1.67641 10.265 6.86941 11.4286C12.0624 12.5923 20.5938 10.0142 22 8.5778C23.4063 10.0142 31.9375 12.5924 37.1306 11.4287C42.3237 10.2651 43.6094 6.89705 43.5458 5.38543Z" fill="#840FAF"/>
</svg>
