<svg width="95" height="98" viewBox="0 0 95 98" fill="none" xmlns="http://www.w3.org/2000/svg">
<path d="M65.8851 82.2708C69.656 82.7557 73.476 81.6214 76.2965 79.0722C78.6596 76.9362 80.1145 74.053 76.4812 71.0638C67.7859 63.9098 68.4748 58.1297 72.4858 54.0389C76.497 49.9481 86.6927 41.6741 80.4164 34.3351C74.1398 26.9962 57.3156 35.0154 54.7806 26.5146C52.2456 18.0138 47.6891 10.9781 39.6347 9.65912C32.9969 8.57224 23.8621 11.2804 22.0509 19.5709C20.2573 27.7814 30.5077 27.3232 20.7999 40.5701C15.0909 48.3606 24.5737 65.05 33.1507 61.6238C41.7278 58.1977 52.2171 63.4598 52.5851 73.1327C52.828 79.5115 60.6119 81.593 65.8851 82.2708Z" fill="#E5E5E5"/>
<path d="M14.7119 27.8778C14.1952 27.009 14.044 25.9624 14.3306 24.9929C14.6212 24.0098 15.359 23.0185 17.1475 22.9867C20.7245 22.9227 20.3813 30.4211 18.2686 30.6183C16.5337 30.7803 15.5569 29.2986 14.7119 27.8778Z" fill="#E5E5E5"/>
<path d="M66.7938 27.8768C65.9119 27.3828 65.2576 26.552 65.0211 25.5692C64.7812 24.5725 64.9244 23.3451 66.4572 22.4232C69.5229 20.5791 72.8154 26.8137 71.7416 28.6437C70.9633 29.97 68.2359 28.6846 66.7938 27.8768Z" fill="#E5E5E5"/>
<path d="M83.6163 50.9813C83.5196 51.6035 83.1772 52.166 82.655 52.5177C82.1254 52.8745 81.3778 53.0577 80.5063 52.3634C78.7634 50.9751 81.3651 47.9025 82.6668 48.1312C83.6103 48.2975 83.7743 49.964 83.6163 50.9813Z" fill="#E5E5E5"/>
<path d="M18.865 36.1892C19.0362 35.5831 18.959 34.9291 18.6307 34.3918C18.2976 33.8469 17.6943 33.3691 16.613 33.6375C14.4503 34.1741 15.7433 38.3709 17.022 38.7048C17.9488 38.9469 18.5851 37.18 18.865 36.1892Z" fill="#E5E5E5"/>
<path d="M9.56752 71.8501C13.4297 71.8501 16.5606 70.8383 16.5606 69.5901C16.5606 68.3419 13.4297 67.3301 9.56752 67.3301C5.70536 67.3301 2.57446 68.3419 2.57446 69.5901C2.57446 70.8383 5.70536 71.8501 9.56752 71.8501Z" fill="#E5E5E5"/>
<path d="M14.5992 59.3076V68.187C14.5992 69.6683 12.3449 70.8683 9.56715 70.8683C6.78936 70.8683 4.53711 69.6683 4.53711 68.187V59.3076H14.5992Z" fill="#51557C"/>
<path d="M9.56704 61.9902C12.3457 61.9902 14.5982 60.7889 14.5982 59.3071C14.5982 57.8253 12.3457 56.624 9.56704 56.624C6.78841 56.624 4.53589 57.8253 4.53589 59.3071C4.53589 60.7889 6.78841 61.9902 9.56704 61.9902Z" fill="#3A4059"/>
<path d="M13.9687 59.3077C13.9687 59.3996 13.9372 59.4998 13.872 59.6085C13.483 60.2683 11.9164 61.1538 9.56762 61.1538C7.21889 61.1538 5.65226 60.2683 5.26321 59.6085C5.19807 59.5 5.1665 59.3998 5.1665 59.3077C5.1665 58.6561 6.83829 57.459 9.56762 57.459C12.297 57.4588 13.9687 58.6561 13.9687 59.3077Z" fill="#252B3D"/>
<path d="M9.47013 59.5499C9.46435 59.5499 9.45856 59.5497 9.45256 59.5493C9.31873 59.5397 9.21824 59.4234 9.22758 59.2896C9.23403 59.2007 9.8385 50.3317 7.63716 45.0523C7.58558 44.9284 7.64405 44.7864 7.76788 44.7346C7.89171 44.683 8.03376 44.7415 8.08556 44.8653C10.3314 50.2517 9.71845 59.234 9.712 59.324C9.70311 59.4521 9.5964 59.5499 9.47013 59.5499Z" fill="#7F07AB"/>
<path d="M9.46962 54.3256C9.35602 54.3256 9.25442 54.2453 9.23175 54.1297C8.5966 50.9179 5.50268 49.998 5.47133 49.9891C5.34239 49.9522 5.26769 49.8177 5.3046 49.6888C5.3415 49.5598 5.476 49.4854 5.60494 49.522C5.74389 49.5618 9.01588 50.5356 9.70816 54.0354C9.73417 54.167 9.64858 54.2947 9.51697 54.3209C9.50119 54.3242 9.48518 54.3256 9.46962 54.3256Z" fill="#7F07AB"/>
<path d="M9.17465 50.4848C9.04549 50.4848 8.93789 50.383 8.93233 50.2527C8.78716 46.9676 10.4007 44.5397 10.4694 44.4379C10.5443 44.3268 10.6955 44.2976 10.8066 44.3728C10.9178 44.4479 10.9469 44.5989 10.872 44.71C10.8516 44.7405 9.28003 47.117 9.41764 50.2316C9.42364 50.3657 9.31982 50.479 9.18577 50.4848C9.18199 50.4846 9.17843 50.4848 9.17465 50.4848Z" fill="#7F07AB"/>
<path d="M9.38232 52.3753C9.36765 52.3753 9.35276 52.3739 9.33764 52.3711C9.20581 52.3466 9.11866 52.2197 9.14334 52.0878C9.36454 50.8976 10.1751 50.0088 11.4872 49.5172C12.4538 49.1553 13.3455 49.1364 13.3828 49.1357C13.3842 49.1357 13.3855 49.1357 13.3868 49.1357C13.5191 49.1357 13.6274 49.2418 13.6296 49.3745C13.6318 49.5086 13.5251 49.6191 13.3911 49.6213C13.3579 49.6219 10.0788 49.7106 9.62064 52.1763C9.59908 52.2937 9.49704 52.3753 9.38232 52.3753Z" fill="#7F07AB"/>
<path d="M3.92085 53.7285C1.01078 54.1982 0.260254 52.9153 0.260254 52.9153C0.260254 52.9153 1.66816 48.66 3.67053 48.2534C5.24894 47.9321 5.50572 49.0499 5.54395 49.5377C5.55373 49.6695 5.54818 49.7549 5.54818 49.7549C5.54818 49.7549 5.73492 49.7229 5.98035 49.7444C6.32938 49.7755 6.7978 49.9158 7.01833 50.4118C7.37203 51.2072 6.90028 53.2485 3.92085 53.7285Z" fill="#BD19FA"/>
<path d="M5.98001 49.7448C4.35846 50.2388 2.31919 52.5875 2.29718 52.6131C2.2625 52.6527 2.21381 52.6736 2.16535 52.6736C2.12511 52.6736 2.08487 52.6596 2.05219 52.6313C1.97994 52.5689 1.97171 52.4593 2.03418 52.387C2.12222 52.285 3.90205 50.2346 5.54361 49.5381C5.55339 49.6699 5.54783 49.7553 5.54783 49.7553C5.54783 49.7553 5.73457 49.7233 5.98001 49.7448Z" fill="#840FAF"/>
<path d="M7.99508 44.9745C7.95129 44.9718 7.90616 44.9662 7.86125 44.9585C7.80634 45.0216 7.74876 45.0805 7.68851 45.1354C6.92176 45.8375 5.73528 45.9035 4.92072 45.2234C4.56258 44.9244 4.13596 44.2884 3.90031 43.6859C2.91057 41.1551 3.76203 38.8838 5.46961 37.7271C5.46961 37.7271 7.53312 37.1997 9.0893 39.8599C10.6066 42.4523 9.68466 45.1118 7.99508 44.9745Z" fill="#BD19FA"/>
<path d="M7.99487 44.9738C7.95107 44.9711 7.90594 44.9656 7.86104 44.9578C7.80613 45.0209 7.74855 45.0798 7.6883 45.1347C6.82306 43.5194 5.81154 38.9865 5.76641 38.7813C5.74551 38.6877 5.80465 38.5954 5.89757 38.5745C5.99117 38.5536 6.08432 38.6128 6.10499 38.7063C6.11588 38.7564 7.15742 43.4251 7.99487 44.9738Z" fill="#840FAF"/>
<path d="M16.7717 42.7438C16.7717 42.7438 13.9784 47.2094 11.9509 46.9568C10.2586 46.7459 10.4987 45.2284 10.6243 44.7317C10.6492 44.6326 10.6701 44.5743 10.6701 44.5743C10.6701 44.5743 10.5425 44.5543 10.3705 44.4918C10.1206 44.4002 9.77578 44.2171 9.59815 43.8723C9.5399 43.7604 9.49966 43.6315 9.48566 43.483C9.46209 43.2284 9.59037 42.8661 9.85825 42.5012C10.5021 41.6236 11.9495 40.7285 14.0124 41.2641C15.6346 41.6849 16.7717 42.7438 16.7717 42.7438Z" fill="#BD19FA"/>
<path d="M15.1285 42.6699C15.1367 42.7651 15.0667 42.8496 14.9718 42.8587C12.6986 43.0696 11.1758 44.2381 10.6242 44.7321C10.6491 44.633 10.67 44.5747 10.67 44.5747C10.67 44.5747 10.5424 44.5547 10.3704 44.4922C10.9386 43.9725 12.5206 42.7382 14.94 42.5134C15.0343 42.5048 15.1196 42.5743 15.1285 42.6699Z" fill="#840FAF"/>
<path d="M17.104 54.4607C17.104 54.4607 11.937 53.4365 11.4526 51.4515C11.0836 49.9382 12.3067 49.5447 12.9097 49.4436C13.0977 49.4118 13.2253 49.4082 13.2253 49.4082C13.2253 49.4082 13.2093 49.3313 13.2011 49.2112C13.1775 48.8789 13.2156 48.2128 13.8249 47.9129C14.6054 47.5292 17.1776 48.3556 17.5071 51.3559C17.6903 53.0217 17.104 54.4607 17.104 54.4607Z" fill="#BD19FA"/>
<path d="M16.2232 52.9847C16.2016 52.9931 16.1794 52.9971 16.1581 52.9971C16.0894 52.9971 16.0242 52.9562 15.9971 52.8889C15.1374 50.7587 13.1544 49.5813 12.9094 49.4433C13.0975 49.4115 13.2251 49.4079 13.2251 49.4079C13.2251 49.4079 13.2091 49.331 13.2009 49.2109C13.7324 49.5302 15.4911 50.7082 16.319 52.7586C16.3544 52.8473 16.3121 52.9485 16.2232 52.9847Z" fill="#840FAF"/>
<path d="M80.7489 92.0147C86.0985 92.0147 90.4353 91.0541 90.4353 89.8692C90.4353 88.6842 86.0985 87.7236 80.7489 87.7236C75.3992 87.7236 71.0625 88.6842 71.0625 89.8692C71.0625 91.0541 75.3992 92.0147 80.7489 92.0147Z" fill="#E5E5E5"/>
<path d="M76.1473 30.1451C76.1473 30.1451 75.1018 32.4233 74.9635 33.5936C74.8255 34.7639 73.189 34.7461 72.6704 36.0899C72.1124 37.5354 73.4176 37.6541 73.2628 38.8146C73.1081 39.9751 70.6811 41.8919 71.9521 42.8038C73.223 43.7155 75.1569 44.0925 74.5216 46.1558C73.8862 48.2191 80.1598 47.2194 81.4021 44.5005C82.6444 41.7816 83.86 42.4239 84.9376 42.0475C86.0151 41.6711 86.098 40.0596 85.2968 38.9865C84.4956 37.9134 83.0948 37.4934 83.3256 35.9768C83.5561 34.46 83.7342 32.1884 83.3965 30.8238C83.0588 29.459 76.1473 30.1451 76.1473 30.1451Z" fill="#252B3D"/>
<path d="M75.1242 86.1963C74.8576 86.2841 74.666 86.5247 74.6242 86.8072C74.5877 87.0544 74.5584 87.4079 74.5729 87.8768C74.6049 88.9227 74.618 89.3494 74.618 89.3494C74.618 89.3494 74.9337 89.9009 75.8409 90.0508L76.1079 90.0881C76.1079 90.0881 78.1616 91.3226 79.1207 91.4175C80.3721 91.5414 81.6511 90.966 80.616 89.7486C79.6385 88.5988 78.201 88.1382 77.7764 87.2172C77.7268 87.1098 77.4062 86.8808 77.3244 86.7963C76.6312 86.0787 76.0977 85.8757 75.1242 86.1963Z" fill="#840FAF"/>
<path d="M77.2213 88.4062C77.2667 88.4062 77.3096 88.3798 77.3285 88.3355C77.33 88.3322 77.4885 87.9734 77.7833 87.8751C78.0659 87.7809 78.3689 88.0267 78.372 88.0292C78.4218 88.0701 78.4952 88.0632 78.5361 88.0136C78.5772 87.964 78.5705 87.8909 78.521 87.8498C78.5047 87.8362 78.1161 87.5181 77.7093 87.6537C77.3143 87.7853 77.122 88.2248 77.1139 88.2435C77.0886 88.3028 77.1159 88.3713 77.1751 88.3967C77.1904 88.4031 77.206 88.4062 77.2213 88.4062Z" fill="white"/>
<path d="M77.63 88.6982C77.6753 88.6982 77.7183 88.6718 77.7372 88.6275C77.7387 88.6242 77.8972 88.2654 78.1918 88.1671C78.4743 88.0728 78.7773 88.3187 78.7805 88.3214C78.83 88.3623 78.9036 88.3554 78.9445 88.3058C78.9857 88.2563 78.979 88.1829 78.9294 88.1418C78.9132 88.1282 78.5248 87.8101 78.1178 87.9457C77.7227 88.0773 77.5304 88.5168 77.5224 88.5355C77.4971 88.5946 77.5244 88.6633 77.5835 88.6887C77.5991 88.6951 77.6147 88.6982 77.63 88.6982Z" fill="white"/>
<path d="M78.0951 88.9589C78.1405 88.9589 78.1834 88.9325 78.2023 88.8883C78.2038 88.8849 78.3623 88.5261 78.6569 88.4278C78.9392 88.3336 79.2425 88.5795 79.2456 88.5819C79.2954 88.6228 79.3687 88.6159 79.4099 88.5663C79.4508 88.5168 79.4441 88.4436 79.3947 88.4025C79.3785 88.3889 78.9901 88.0708 78.5831 88.2064C78.188 88.338 77.9957 88.7775 77.9877 88.7962C77.9624 88.8556 77.9897 88.924 78.0491 88.9494C78.0642 88.9558 78.0798 88.9589 78.0951 88.9589Z" fill="white"/>
<path d="M82.3432 86.2314C82.0766 86.3193 81.885 86.5598 81.8432 86.8424C81.8067 87.0896 81.7774 87.443 81.7918 87.9119C81.8239 88.9579 81.8374 89.3983 81.8374 89.3983C81.8374 89.3983 82.1527 89.9361 83.0599 90.0861L83.4076 90.1424C83.4076 90.1424 85.3804 91.3582 86.3395 91.4531C87.5909 91.577 88.8698 91.0016 87.8347 89.7842C86.8572 88.6344 85.4198 88.1738 84.9951 87.2527C84.9456 87.1454 84.625 86.9164 84.5432 86.8319C83.8502 86.1138 83.3167 85.9109 82.3432 86.2314Z" fill="#840FAF"/>
<path d="M84.4872 88.4658C84.5326 88.4658 84.5755 88.4393 84.5946 88.3951C84.5961 88.3918 84.7544 88.0329 85.0492 87.9347C85.3318 87.8404 85.6348 88.0863 85.6379 88.0888C85.6877 88.1297 85.7611 88.1228 85.8022 88.0732C85.8433 88.0236 85.8367 87.9505 85.7871 87.9093C85.7709 87.8958 85.3822 87.5776 84.9754 87.7133C84.5804 87.8449 84.3881 88.2844 84.3801 88.3031C84.3547 88.3624 84.3821 88.4309 84.4412 88.4562C84.4563 88.4627 84.4719 88.4658 84.4872 88.4658Z" fill="white"/>
<path d="M84.8954 88.7576C84.9408 88.7576 84.9837 88.7311 85.0028 88.6869C85.0044 88.6835 85.1629 88.3247 85.4577 88.2265C85.7402 88.1322 86.0432 88.3781 86.0463 88.3807C86.0961 88.4216 86.1695 88.4147 86.2104 88.3652C86.2515 88.3156 86.2449 88.2425 86.1953 88.2013C86.1791 88.1878 85.7907 87.8696 85.3836 88.0053C84.9886 88.1369 84.7963 88.5764 84.7883 88.595C84.7629 88.6544 84.7903 88.7229 84.8494 88.7482C84.8645 88.7544 84.8801 88.7576 84.8954 88.7576Z" fill="white"/>
<path d="M85.361 89.0185C85.4063 89.0185 85.4492 88.9921 85.4681 88.9478C85.4697 88.9445 85.6282 88.5857 85.923 88.4874C86.2053 88.3932 86.5086 88.639 86.5117 88.6415C86.5615 88.6824 86.6348 88.6755 86.6757 88.6259C86.7166 88.5763 86.7102 88.5032 86.6606 88.4621C86.6444 88.4485 86.2558 88.1304 85.849 88.266C85.4539 88.3976 85.2616 88.8371 85.2536 88.8558C85.2283 88.9149 85.2556 88.9836 85.3147 89.009C85.3298 89.0154 85.3456 89.0185 85.361 89.0185Z" fill="white"/>
<path d="M74.7739 56.2341L84.5745 55.9424C85.1899 59.3962 86.6204 67.114 86.1496 70.4098C85.3913 75.7184 84.1723 86.8672 84.1723 86.8672C83.3387 87.0495 83.139 87.0677 82.3011 86.756C82.3011 86.756 81.5355 74.6313 82.4105 70.8978C82.9381 68.6473 81.2985 64.4465 80.6409 61.122C80.6409 61.122 80.437 60.4318 80.0891 60.4318C79.863 60.4318 79.7314 60.7623 79.6667 60.994C79.4266 64.0512 79.1163 67.7178 78.8415 70.0519C78.2973 74.67 76.7622 87.051 76.7622 87.051C75.9285 87.2333 75.895 87.3067 75.0571 86.9948C75.0571 86.9948 74.4237 72.859 74.9384 70.175C75.7547 65.9167 74.8361 59.3355 74.7739 56.2341Z" fill="#FCB38F"/>
<path d="M86.2366 68.3407C85.2317 68.6675 84.118 68.6853 82.9353 68.503C82.8597 68.4919 82.7819 68.4786 82.7063 68.4652C82.4995 68.4297 82.2906 68.3874 82.0816 68.3407C81.8815 66.1865 81.1123 63.5099 80.641 61.1223C80.641 61.1223 80.4365 60.4309 80.0897 60.4309C79.8629 60.4309 79.7317 60.7621 79.6673 60.9933C79.4783 63.381 79.2493 66.1354 79.027 68.3407C77.7465 68.6386 76.5994 68.6987 75.5834 68.5119C75.51 68.4986 75.4367 68.4852 75.3655 68.4697C75.201 68.4319 75.0409 68.3897 74.8831 68.3407C75.3344 64.2191 74.8275 58.9792 74.7742 56.2336L84.5737 55.9424C85.0828 58.7969 86.1477 64.5637 86.2366 68.3407Z" fill="#51557C"/>
<path d="M82.935 68.5032C82.8594 68.4921 82.7816 68.4787 82.706 68.4654C82.3392 65.5776 81.2588 60.9112 81.2476 60.8579C81.2321 60.7978 81.2699 60.7378 81.3299 60.7245C81.3877 60.7111 81.4477 60.7467 81.4611 60.8067C81.5144 61.0313 82.5793 65.6331 82.935 68.5032Z" fill="#252B3D"/>
<path d="M75.7548 67.5691C75.7192 67.787 75.6836 68.0271 75.5836 68.5117C75.5102 68.4984 75.4369 68.4851 75.3657 68.4695C75.4635 68.0004 75.5013 67.7537 75.5369 67.5336C75.7259 66.3753 75.568 59.9416 75.568 59.8771C75.5658 59.8171 75.6147 59.766 75.6747 59.7637C75.737 59.7615 75.7859 59.8104 75.7881 59.8727C75.7948 60.1372 75.9482 66.3909 75.7548 67.5691Z" fill="#252B3D"/>
<path d="M74.9379 67.5439C74.6314 67.7291 74.6329 68.4341 74.6936 68.7993C74.6936 68.7993 77.3731 69.4892 79.0589 68.8778C79.2334 68.7389 79.3319 68.1257 79.133 67.6458C79.133 67.6458 76.5681 67.9726 74.9379 67.5439Z" fill="#6B749B"/>
<path d="M81.9945 67.602C81.8316 67.8541 81.8685 68.6184 82.0897 68.8396C82.0897 68.8396 84.598 69.4892 86.2838 68.8778C86.4583 68.7389 86.5433 68.0237 86.2056 67.5439C86.2056 67.5439 83.6247 68.0308 81.9945 67.602Z" fill="#6B749B"/>
<path d="M83.0372 44.024C83.5231 46.4492 85.6436 48.284 85.6436 48.284L87.4614 46.6664C87.3478 46.5933 87.2186 46.4468 87.0788 46.2434C87.0326 46.1771 86.9857 46.1046 86.9376 46.0264C85.6676 43.9556 83.6783 37.958 83.6783 37.958C83.6783 37.958 82.5519 41.5986 83.0372 44.024Z" fill="#840FAF"/>
<path d="M85.4224 47.9164C85.4224 47.9164 85.8325 49.0646 87.3558 48.8852C88.8793 48.7058 92.6166 44.31 92.6166 44.31C92.1086 44.3094 91.6836 44.1831 90.9984 43.9395C90.9984 43.9395 89.2893 45.6166 87.6195 46.0254C85.9497 46.4345 85.4224 47.9164 85.4224 47.9164Z" fill="#840FAF"/>
<path d="M86.094 47.3342C86.1113 47.342 86.1293 47.3458 86.1473 47.3458C86.1962 47.3458 86.2422 47.3182 86.2643 47.2706C86.4832 46.7942 86.8427 46.4396 87.079 46.2433C87.0328 46.1771 86.9859 46.1046 86.9379 46.0264C86.6818 46.2351 86.2789 46.6248 86.0313 47.1635C86.0015 47.2284 86.029 47.3047 86.094 47.3342Z" fill="#7F07AB"/>
<path d="M94.8133 39.8515L94.5203 39.7236L94.5872 39.9146L94.8133 39.8515Z" fill="#252B3D"/>
<path d="M92.1864 40.0441L90.201 43.3554C90.0729 43.5677 90.1781 43.8096 90.3895 43.7872L91.124 43.7078L92.3872 43.5722C92.4828 43.5613 92.5764 43.4962 92.6342 43.4006L94.5988 40.1426C94.725 39.9329 94.6254 39.692 94.4176 39.7088L92.4401 39.8714C92.3421 39.8796 92.246 39.9456 92.1864 40.0441Z" fill="#252B3D"/>
<path d="M90.271 43.7686L90.5051 43.9111L90.61 43.7968L90.3077 43.625L90.271 43.7686Z" fill="#252B3D"/>
<path d="M94.8685 40.2612L92.8903 43.5419C92.8321 43.6386 92.7381 43.7042 92.6427 43.7149L90.6394 43.9376C90.4282 43.9612 90.3235 43.7182 90.4522 43.5037L92.4517 40.1699C92.5113 40.0705 92.6084 40.0038 92.706 39.9956L94.688 39.8262C94.8963 39.8079 94.9961 40.0494 94.8685 40.2612Z" fill="#51557C"/>
<path d="M92.5375 41.9209C92.3924 42.1617 92.3699 42.4142 92.4875 42.4849C92.6049 42.5556 92.8179 42.418 92.963 42.1773C93.1082 41.9365 93.1307 41.6839 93.013 41.6133C92.8954 41.5426 92.6827 41.6804 92.5375 41.9209Z" fill="#252B3D"/>
<path d="M94.348 41.3957C94.3471 41.3969 94.3477 41.3964 94.348 41.3957C94.3606 41.3617 94.5463 40.8689 94.3709 40.7775C94.3048 40.7433 94.2108 40.8335 94.1163 40.9625C94.1163 40.9625 94.1163 40.9625 94.1156 40.9629C93.9778 41.1525 93.842 41.4244 93.8004 41.5096L93.8002 41.5116C93.7984 41.5145 93.7973 41.5176 93.7955 41.52C93.7991 41.5107 93.8042 41.4985 93.8106 41.4831C93.8109 41.4811 93.8113 41.4787 93.8129 41.4769C93.8197 41.4589 93.8286 41.4369 93.8378 41.412C93.8382 41.4089 93.8395 41.4058 93.8413 41.4026C93.9365 41.1516 94.1121 40.6243 93.968 40.4934C93.8647 40.3991 93.6297 40.7424 93.4365 41.0758C93.2844 41.3379 93.1588 41.5938 93.143 41.6261C93.1468 41.6154 93.1575 41.5818 93.1717 41.5336C93.1728 41.5311 93.1739 41.5287 93.1741 41.5267C93.2368 41.3104 93.3591 40.816 93.1775 40.6977C93.0372 40.6074 92.8231 41.0621 92.6731 41.444V41.4447C92.5715 41.7032 92.4994 41.9284 92.4994 41.9284C92.4994 41.9284 92.5672 41.2399 92.3567 41.2601C92.1453 41.2804 92.0112 42.4424 91.7498 42.7759C91.4877 43.1093 90.9766 43.5331 90.9993 43.8943C91.011 44.0824 91.3443 44.5417 92.214 44.4997C92.5259 44.4846 92.816 44.3367 93.0163 44.0971C93.6261 43.3674 94.2715 42.0502 94.3471 41.3971" fill="#FCB38F"/>
<path d="M93.4451 42.2718C93.464 42.2518 93.7705 41.9236 93.8635 41.6795C93.9591 41.4268 94.1164 40.9619 94.1164 40.9619C94.1164 40.9619 94.1165 40.9619 94.1158 40.9624C93.978 41.152 93.8421 41.4239 93.8005 41.509L93.8003 41.511C93.7763 41.5742 93.5782 42.0819 93.4451 42.2718Z" fill="#FD8471"/>
<path d="M92.9087 42.2669C92.9263 42.2402 93.2035 41.8056 93.3166 41.5488C93.3929 41.3736 93.4245 41.1844 93.4367 41.0762C93.2846 41.3383 93.159 41.5942 93.1432 41.6264C93.1432 41.6264 92.9625 42.1377 92.9087 42.2669Z" fill="#FD8471"/>
<path d="M92.4255 42.3865C92.4255 42.3865 92.725 41.7547 92.6736 41.4443C92.572 41.7029 92.5 41.9281 92.5 41.9281" fill="#FD8471"/>
<path d="M74.9842 58.2298C77.0521 59.8185 85.2241 57.9392 84.6221 55.8248C84.2437 54.4963 82.9187 48.7664 83.1141 46.9886C83.3127 45.2139 84.6654 44.1305 83.7915 42.1342C83.272 40.9472 83.3151 39.779 83.6221 38.6908C83.8733 37.8017 83.5565 37.4074 82.6626 37.2795C82.2676 37.2231 81.5886 37.1999 80.9933 37.2884C79.7312 37.4718 78.2955 37.709 77.0706 37.978C76.1495 38.1806 75.3434 38.402 74.8285 38.6296C72.661 39.5882 75.6318 44.1499 76.0906 46.8134C76.5495 49.4805 73.8831 57.3839 74.9842 58.2298Z" fill="#BD19FA"/>
<path d="M79.4652 47.0911C81.7686 47.0911 83.0026 46.4315 83.0638 46.3982C83.126 46.3642 83.1487 46.2861 83.1147 46.2239C83.0807 46.1619 83.0026 46.139 82.9404 46.173C82.9233 46.1823 81.1817 47.108 78.0208 46.7508C77.9503 46.7428 77.8868 46.7935 77.8788 46.8639C77.8708 46.9344 77.9214 46.998 77.9919 47.006C78.5232 47.066 79.0148 47.0911 79.4652 47.0911Z" fill="#840FAF"/>
<path d="M80.01 42.4338C80.0224 42.4338 80.0349 42.4321 80.0473 42.4283C81.4875 41.9901 81.8127 41.0028 81.8258 40.9608C81.8472 40.8932 81.8094 40.821 81.7418 40.7998C81.6747 40.7787 81.6024 40.8161 81.5808 40.8834C81.5686 40.921 81.2752 41.7862 79.9724 42.1824C79.9046 42.2031 79.8661 42.2749 79.887 42.3427C79.9042 42.3983 79.9551 42.4338 80.01 42.4338Z" fill="#840FAF"/>
<path d="M78.374 55.9538C81.5387 55.9538 83.3283 54.2126 83.403 54.1384C83.4532 54.0884 83.4537 54.0072 83.4036 53.957C83.3538 53.9065 83.2725 53.9063 83.222 53.9561C83.2044 53.9734 81.4277 55.697 78.374 55.697C78.3038 55.6955 78.2449 55.7542 78.2449 55.8255C78.2449 55.8964 78.3025 55.954 78.3734 55.954L78.374 55.9538Z" fill="#840FAF"/>
<path d="M78.7401 55.3608C78.7412 55.3608 78.7421 55.3608 78.7432 55.3608C79.9231 55.3321 81.409 54.3795 81.4717 54.3388C81.5313 54.3003 81.5484 54.2207 81.5099 54.1612C81.4712 54.1016 81.3919 54.0847 81.3323 54.1231C81.3176 54.1327 79.8441 55.0771 78.737 55.104C78.6661 55.1058 78.6101 55.1647 78.6119 55.2356C78.6136 55.3052 78.6708 55.3608 78.7401 55.3608Z" fill="#840FAF"/>
<path d="M82.496 33.0546C82.496 33.0546 82.496 35.0223 82.018 36.3455C81.581 37.5555 82.2406 38.6102 82.2406 38.6102C82.2406 38.6102 81.9151 37.6111 82.4618 36.5373C83.0084 35.4638 83.4942 33.1353 83.3966 31.1689L82.496 33.0546Z" fill="#252B3D"/>
<path d="M78.0531 35.6369C78.0531 35.6369 76.3574 35.0131 76.019 33.2737C75.6806 31.5345 75.78 28.9799 78.1539 28.229C80.5277 27.4778 82.7215 28.1985 83.2508 30.389C83.2508 30.389 81.4299 34.7518 78.0531 35.6369Z" fill="#252B3D"/>
<path d="M80.7163 36.4687L80.5872 37.6725L80.5152 38.3764C79.1426 38.9675 77.7365 38.0818 77.7516 37.9575C77.9016 37.4235 78.0157 36.5081 78.0533 35.6379C78.0773 35.621 78.1033 35.607 78.1313 35.5961C78.8551 35.2811 80.7163 36.4687 80.7163 36.4687Z" fill="#FCB38F"/>
<path d="M80.7166 36.4687L80.5875 37.6725C79.2163 37.1872 78.4657 36.1766 78.1316 35.5961C78.8554 35.2811 80.7166 36.4687 80.7166 36.4687Z" fill="#FD8471"/>
<path d="M82.8377 32.661C82.8377 32.661 83.3726 32.0263 83.7112 32.5954C84.0498 33.1645 83.4355 34.7543 82.5527 34.3076L82.8377 32.661Z" fill="#FD8471"/>
<path d="M83.0964 34.0469C83.1068 34.1098 83.1664 34.1522 83.2295 34.1418C83.2924 34.1313 83.3349 34.0718 83.3245 34.0086C83.314 33.9457 83.2544 33.9032 83.1913 33.9137C83.1284 33.9244 83.0857 33.9839 83.0964 34.0469Z" fill="white"/>
<path d="M82.7785 33.8185C82.8121 33.8203 82.8439 33.8001 82.8552 33.7667C83.0237 33.2748 83.5533 33.1013 83.5586 33.0998C83.5988 33.0869 83.6213 33.044 83.6084 33.0038C83.5957 32.9635 83.5526 32.9411 83.5123 32.9537C83.4877 32.9615 82.9043 33.1507 82.7102 33.7172C82.6965 33.7572 82.7178 33.8007 82.7578 33.8145C82.7647 33.8167 82.7716 33.8181 82.7785 33.8185Z" fill="#D6615D"/>
<path d="M83.3159 33.5961C83.3301 33.597 83.3445 33.5939 83.3579 33.5864C83.3948 33.5655 83.4077 33.5188 83.3868 33.4819C83.3832 33.4759 83.2996 33.3307 83.1129 33.2342C83.0755 33.2146 83.0291 33.2295 83.0097 33.2671C82.9904 33.3047 83.0051 33.3509 83.0426 33.3703C83.1872 33.445 83.2532 33.5563 83.2536 33.5574C83.267 33.581 83.2907 33.5948 83.3159 33.5961Z" fill="#D6615D"/>
<path d="M83.2704 33.4567C83.2575 33.6352 83.2388 33.8024 83.2142 33.9536C82.9885 35.3172 81.7903 38.0861 79.3911 36.6756C78.8155 36.337 78.3875 36.0024 78.0538 35.6374C77.8017 35.3626 77.6026 35.0705 77.4325 34.747C77.3667 34.6221 77.3369 34.4818 77.294 34.3477C77.2862 34.3242 77.2791 34.2999 77.2722 34.2764C77.268 34.2628 77.264 34.2499 77.2597 34.2364C77.1404 33.8451 77.0499 33.4498 76.9796 33.0732C76.892 32.6033 76.8362 32.1651 76.802 31.8045C76.7386 31.1418 77.031 30.4957 77.5694 30.1038C79.0269 29.0418 80.7091 29.1819 81.84 29.4742C82.625 29.677 83.1908 30.3597 83.244 31.1676C83.27 31.5508 83.2906 31.9877 83.2969 32.4216C83.3011 32.7789 83.2949 33.1359 83.2704 33.4567Z" fill="#FCB38F"/>
<path d="M82.2618 32.1494C82.2643 32.0789 82.3238 32.0242 82.3943 32.0264C82.5822 32.0327 82.8178 32.0578 83.0317 32.1309C83.4783 32.2836 83.539 32.4106 83.539 32.4106C83.539 32.4106 83.4834 32.4633 82.8985 32.3443C82.7484 32.3139 82.5492 32.3014 82.377 32.285C82.3092 32.2785 82.2594 32.2196 82.2618 32.1516C82.2618 32.1509 82.2618 32.15 82.2618 32.1494Z" fill="#252B3D"/>
<path d="M80.6331 32.0594C80.6464 31.9761 80.589 31.8982 80.5057 31.8847C80.2838 31.8489 80.0015 31.8242 79.7336 31.8609C79.1742 31.9374 79.074 32.0725 79.074 32.0725C79.074 32.0725 79.1271 32.1472 79.8407 32.1421C80.0239 32.1408 80.2605 32.1721 80.4665 32.1924C80.5475 32.2004 80.6195 32.1428 80.6324 32.0623C80.6328 32.0612 80.6328 32.0603 80.6331 32.0594Z" fill="#252B3D"/>
<path d="M81.0221 34.5087C81.0289 34.5076 81.0356 34.5058 81.0423 34.5031L81.5434 34.3084L81.3395 33.0906C81.3302 33.0348 81.2773 32.997 81.2215 33.0063C81.1657 33.0156 81.1279 33.0685 81.1372 33.1243L81.3135 34.1774L80.968 34.3117C80.9151 34.3322 80.8891 34.3917 80.9096 34.4444C80.9276 34.4909 80.9751 34.5167 81.0221 34.5087Z" fill="#FD8471"/>
<path d="M78.2486 34.2373C78.2486 34.2373 77.9991 34.7197 77.4324 34.7473C77.3824 34.6157 77.3369 34.4821 77.2939 34.348C77.5676 34.3969 77.9869 34.4285 78.2486 34.2373Z" fill="#FD8471"/>
<path d="M78.0534 35.6374C77.8013 35.3626 77.6021 35.0705 77.432 34.747C77.3662 34.6221 77.3364 34.4818 77.2935 34.3477C77.2857 34.3242 77.2786 34.2999 77.2717 34.2764C77.3298 34.279 77.4247 34.2977 77.5801 34.3477C77.5801 34.3477 78.2228 35.0831 78.0534 35.6374Z" fill="#252B3D"/>
<path d="M81.8228 35.1031C81.7047 35.449 81.3826 36.0715 80.5916 35.9657C79.7989 35.8596 79.6564 35.2325 79.635 34.8105L81.8228 35.1031Z" fill="white"/>
<path d="M80.2558 33.1157C80.2449 33.308 80.1371 33.4583 80.0148 33.4512C79.8925 33.4443 79.8023 33.2829 79.8131 33.0906C79.824 32.8983 79.9319 32.7482 80.0541 32.7551C80.1764 32.762 80.2667 32.9236 80.2558 33.1157Z" fill="#252B3D"/>
<path d="M82.746 33.2593C82.7351 33.4516 82.6273 33.6016 82.505 33.5947C82.3827 33.5878 82.2925 33.4265 82.3034 33.2342C82.3143 33.0418 82.4221 32.8916 82.5444 32.8987C82.6666 32.9056 82.7569 33.067 82.746 33.2593Z" fill="#252B3D"/>
<path d="M77.5348 32.8019C77.5348 32.8019 76.987 32.2403 76.7071 32.8001C76.427 33.3599 76.9844 34.748 77.9577 34.3445L77.5348 32.8019Z" fill="#FCB38F"/>
<path d="M77.329 34.2431C77.3394 34.3061 77.399 34.3485 77.4621 34.3381C77.5251 34.3276 77.5675 34.268 77.5571 34.2049C77.5466 34.142 77.487 34.0995 77.4239 34.11C77.361 34.1206 77.3185 34.1802 77.329 34.2431Z" fill="white"/>
<path d="M77.67 33.8885C77.6386 33.8928 77.6071 33.8756 77.5942 33.8452C77.4014 33.3932 76.8905 33.2663 76.8854 33.2649C76.8465 33.2556 76.8225 33.2167 76.8318 33.1778C76.841 33.1389 76.8801 33.1149 76.919 33.124C76.9428 33.1296 77.5055 33.2678 77.7275 33.7885C77.7431 33.8254 77.726 33.8679 77.6893 33.8834C77.6829 33.8861 77.6764 33.8879 77.67 33.8885Z" fill="#FD8471"/>
<path d="M77.1481 33.7156C77.1348 33.7173 77.1208 33.7153 77.1079 33.7091C77.0716 33.692 77.0563 33.6489 77.0734 33.6126C77.0763 33.6066 77.1452 33.4643 77.3146 33.3603C77.3486 33.3394 77.3933 33.3501 77.4142 33.3843C77.4351 33.4183 77.4244 33.463 77.3904 33.4839C77.2595 33.5642 77.2048 33.6738 77.2043 33.6749C77.1932 33.6978 77.1717 33.7124 77.1481 33.7156Z" fill="#FD8471"/>
<path d="M76.8953 32.5727C77.1336 32.5325 77.3028 32.5478 77.4344 32.6085C77.5262 32.6507 77.5998 32.7141 77.6663 32.7957C77.6801 32.8121 77.6934 32.8299 77.7068 32.8484C77.7365 32.8364 77.7648 32.8197 77.7917 32.7995C77.8524 32.7541 77.9057 32.6894 77.9529 32.6138C78.078 32.4142 78.227 32.2661 78.273 32.0801C78.343 31.7964 78.6522 31.5372 78.6522 31.5372C81.0701 32.2897 82.9836 30.2055 82.9836 30.2055C82.2355 27.9032 78.1692 29.0001 77.1203 29.5572C76.0716 30.1139 75.7068 32.7717 76.8953 32.5727Z" fill="#252B3D"/>
<path d="M78.2727 32.0791C78.2727 32.0791 77.7098 32.907 78.1529 34.0723C78.596 35.2377 78.6556 37.1863 77.5584 37.7769C77.5584 37.7769 78.1273 36.5553 77.913 35.7519C77.6583 34.7971 77.4235 33.6933 77.5858 33.0034C77.7483 32.3136 78.0366 31.9261 78.2727 32.0791Z" fill="#252B3D"/>
<path d="M82.4375 30.3665C82.4375 30.3665 82.2308 31.9665 83.331 32.53C83.331 32.53 83.805 29.284 82.4375 30.3665Z" fill="#252B3D"/>
<path d="M79.665 34.2055C79.0837 34.1737 78.6368 33.6748 78.6686 33.0937C78.7004 32.5124 79.1993 32.0655 79.7804 32.0973C80.3615 32.1291 80.8086 32.628 80.7768 33.2091C80.745 33.7904 80.2461 34.2375 79.665 34.2055ZM79.7715 32.2616C79.2808 32.2347 78.8598 32.612 78.8329 33.1026C78.806 33.5932 79.1832 34.0143 79.6739 34.0412C80.1645 34.0681 80.5856 33.6908 80.6123 33.2002C80.6394 32.7096 80.2621 32.2885 79.7715 32.2616Z" fill="white"/>
<path d="M82.5461 34.3637C81.9647 34.3319 81.5179 33.833 81.5497 33.2519C81.5815 32.6706 82.0803 32.2237 82.6615 32.2555C83.2426 32.2873 83.6897 32.7862 83.6579 33.3673C83.6261 33.9484 83.1272 34.3955 82.5461 34.3637ZM82.6526 32.4196C82.1619 32.3927 81.7409 32.7699 81.714 33.2606C81.6871 33.7512 82.0643 34.1723 82.555 34.1992C83.0456 34.2261 83.4667 33.8488 83.4934 33.3582C83.5205 32.8675 83.1432 32.4465 82.6526 32.4196Z" fill="white"/>
<path d="M77.953 32.6125C78.1389 32.6291 78.6944 32.7445 78.7982 32.7667C78.784 32.8261 78.7158 33.0457 78.7264 32.9875C78.7338 32.947 78.3745 32.869 78.3743 32.8743C78.2534 32.8483 78.0386 32.8094 77.7918 32.7981C77.7511 32.7961 77.7089 32.7948 77.6664 32.7945C77.6 32.7129 77.5264 32.6496 77.4346 32.6073C77.616 32.5927 77.7947 32.598 77.953 32.6125Z" fill="white"/>
<path d="M81.6207 33.0181C81.6189 33.0154 81.4384 32.7406 81.1816 32.7266C80.9275 32.7126 80.7365 32.9665 80.7348 32.9692L80.6021 32.8718C80.6118 32.8585 80.8466 32.5434 81.1905 32.5623C81.532 32.581 81.7501 32.9149 81.7592 32.9292L81.6207 33.0181Z" fill="white"/>
<path d="M75.7431 68.0239C75.8478 68.0239 75.9382 67.9456 75.9509 67.8391C75.9574 67.7858 76.1059 66.5188 75.9585 65.056C75.8713 64.1899 75.6973 63.4369 75.4414 62.818C75.1132 62.0245 74.6484 61.4472 74.0597 61.1022C73.4415 60.74 72.8935 60.6907 72.4304 60.9561C71.0729 61.734 71.0574 65.0402 71.0574 65.1807C71.0574 65.2965 71.1512 65.3903 71.267 65.3903C71.3828 65.3903 71.4767 65.2965 71.4767 65.1807C71.4771 64.2919 71.6865 61.8654 72.6389 61.3198C72.9666 61.1322 73.3619 61.1793 73.8476 61.4639C76.1074 62.7882 75.5407 67.7393 75.5347 67.7891C75.521 67.904 75.603 68.0085 75.7179 68.0223C75.7262 68.0234 75.7346 68.0239 75.7431 68.0239Z" fill="#7F07AB"/>
<path d="M79.2392 67.3241L70.346 62.1357L68.8721 62.9963L77.757 68.126L79.2392 67.3241Z" fill="#7F07AB"/>
<path d="M77.7575 68.1257L68.8725 62.9961L67.3704 75.834L77.7624 81.7988L77.7575 68.1257Z" fill="#BD19FA"/>
<path d="M71.1291 65.5864C71.1309 65.7922 70.9829 65.8714 70.7988 65.7631C70.6147 65.6548 70.464 65.3998 70.4624 65.194C70.4606 64.9881 70.6087 64.909 70.7928 65.0172C70.9768 65.1257 71.1274 65.3805 71.1291 65.5864Z" fill="#840FAF"/>
<path d="M75.6047 68.2201C75.6065 68.426 75.4584 68.5052 75.2744 68.3969C75.0903 68.2886 74.9396 68.0336 74.938 67.8278C74.9364 67.6219 75.0843 67.5428 75.2684 67.651C75.4524 67.7593 75.6029 68.0141 75.6047 68.2201Z" fill="#840FAF"/>
<path d="M77.7622 81.7992L80.7216 80.1219L79.2395 67.3242L77.7573 68.1261L77.7622 81.7992Z" fill="#840FAF"/>
<path d="M75.2719 68.2331C75.3766 68.2331 75.467 68.1548 75.4797 68.0483C75.4862 67.995 75.6347 66.728 75.4873 65.2652C75.3999 64.3991 75.2261 63.6461 74.9702 63.027C74.6423 62.2335 74.1772 61.6564 73.5885 61.3111C72.9705 60.949 72.4223 60.8996 71.9592 61.1651C70.6017 61.943 70.5862 65.2492 70.5862 65.3897C70.5862 65.5055 70.68 65.5993 70.7958 65.5993C70.9116 65.5993 71.0055 65.5055 71.0055 65.3897C71.0057 64.5009 71.2153 62.0746 72.1677 61.5288C72.4954 61.3412 72.8907 61.3883 73.3764 61.6729C75.6362 62.9972 75.0696 67.9483 75.0636 67.9981C75.0498 68.113 75.1318 68.2175 75.2467 68.2313C75.255 68.2324 75.2634 68.2331 75.2719 68.2331Z" fill="#840FAF"/>
<path d="M70.2554 70.3894C70.2489 70.8314 70.381 71.3596 70.6537 71.8676L72.5152 75.3341L74.4435 74.2176C74.7261 74.054 74.871 73.6979 74.8777 73.2557C74.8841 72.8135 74.7521 72.2855 74.4797 71.7787C73.9713 70.8316 73.181 70.4557 72.5763 71.1482C72.0025 69.7249 71.2157 69.1229 70.6889 69.4279C70.4067 69.5913 70.2618 69.9475 70.2554 70.3894Z" fill="#840FAF"/>
<path d="M75.7708 43.1195C75.609 44.5281 75.0101 48.4828 74.7769 50.0098C74.7695 50.0561 74.7624 50.1003 74.7562 50.1421L74.7455 50.2744L74.045 59.1002C73.5204 59.5746 72.1994 58.9824 72.1994 58.9824C72.0911 57.8853 71.883 54.2754 71.889 53.1313C71.8953 51.9873 72.3092 49.6917 72.3092 49.6917C72.5057 48.0197 72.9137 44.4941 73.1029 42.4883C73.3574 39.7939 74.493 38.8389 74.493 38.8389C75.8211 39.3115 75.9734 41.3581 75.7708 43.1195Z" fill="#BD19FA"/>
<path d="M74.7733 61.4588C74.7075 61.5086 74.6126 61.5246 74.5216 61.5263C74.3782 61.5297 74.2431 61.4961 74.2431 61.4961C74.2938 61.8729 74.2153 62.296 74.1499 62.3936C73.9936 62.6279 73.6822 62.3193 73.6057 62.0821C73.6057 62.0821 73.5639 62.3267 73.2849 62.2495C73.0059 62.1726 72.9154 61.8031 72.9154 61.8031C72.9154 61.8031 72.9288 62.0961 72.7129 62.0543C72.497 62.0125 72.3294 61.6704 72.3294 61.6704C72.3294 61.6704 72.2814 62.0096 72.0504 61.9287C71.8188 61.8478 71.7781 61.3196 71.7781 60.873C71.7781 60.4266 72.2 58.9824 72.2 58.9824C72.2 58.9824 73.0944 59.2125 74.0457 59.1002C74.0457 59.1002 74.7495 60.0033 74.938 60.5335C75.1265 61.0637 74.9425 61.3316 74.7733 61.4588Z" fill="#FCB38F"/>
<path d="M74.5214 61.5262C74.378 61.5296 74.2429 61.496 74.2429 61.496C74.2429 61.496 74.21 60.747 74.4383 60.5752C74.4383 60.5752 74.3545 61.2081 74.5214 61.5262Z" fill="#FD8471"/>
<path d="M74.7772 50.0103C74.7698 50.0566 74.7627 50.1008 74.7565 50.1426L74.7458 50.2749C74.4628 50.1588 74.0611 50.0388 73.6247 50.0428C73.5722 50.0435 73.5276 50.0132 73.5069 49.9692C73.4991 49.9525 73.4951 49.9345 73.4946 49.9156C73.4935 49.8447 73.5509 49.7874 73.6225 49.7862C74.0684 49.782 74.4757 49.8936 74.7772 50.0103Z" fill="#840FAF"/>
<path d="M69.2555 88.3264C70.6809 85.2132 62.4692 78.4005 50.9141 73.1097C39.3591 67.8189 28.8363 66.0536 27.4108 69.1668C25.9854 72.28 34.1971 79.0927 45.7521 84.3835C57.3072 89.6743 67.83 91.4396 69.2555 88.3264Z" fill="#E5E5E5"/>
<path d="M32.5754 12.0294L35.5035 13.5396L35.8574 13.7221L36.2158 10.0586L36.2096 10.0619C36.2085 10.0624 36.2078 10.063 36.2067 10.0637L32.5754 12.0294Z" fill="#252B3D"/>
<path d="M35.5032 11.3599V69.2618C35.5032 69.8152 35.7993 70.3269 36.2799 70.6019L62.6142 85.6996C63.6439 86.2903 64.928 85.5466 64.928 84.3595V27.1614C64.928 26.552 64.6839 25.9776 64.264 25.5576C64.1279 25.4216 63.9734 25.3018 63.8031 25.2019L37.8277 10.026C37.2857 9.70898 36.6701 9.765 36.2092 10.0625C36.2081 10.0629 36.2075 10.0636 36.2063 10.0642C35.7926 10.333 35.5032 10.7961 35.5032 11.3599Z" fill="#252B3D"/>
<path d="M63.7637 85.8562L59.6658 86.9936V83.2158L63.7637 85.8562Z" fill="#252B3D"/>
<path d="M32.5754 12.0297L35.5035 13.5399V15.2288L58.7483 28.6582L64.2641 25.5576C64.128 25.4216 63.9735 25.3018 63.8032 25.2019L37.828 10.026C37.286 9.70898 36.6704 9.765 36.2096 10.0625C36.2085 10.0629 36.2078 10.0636 36.2067 10.0642L32.5754 12.0297Z" fill="#3A4059"/>
<path d="M55.9027 23.2231C55.7991 23.2231 55.6942 23.1971 55.5984 23.1422L40.6314 14.5813C40.3431 14.4164 40.2457 14.0538 40.4142 13.7712C40.5827 13.4887 40.9531 13.3935 41.2412 13.5585L56.2082 22.1193C56.4965 22.2842 56.5939 22.6468 56.4254 22.9294C56.3129 23.1179 56.1106 23.2231 55.9027 23.2231Z" fill="#252B3D"/>
<path d="M60.9356 28.6278V85.1056C60.9356 86.6722 59.242 87.6535 57.8826 86.8743L32.5358 72.3433C31.902 71.9803 31.5107 71.3049 31.5107 70.5739V13.8193C31.5107 12.2451 33.2194 11.2647 34.5787 12.0588L59.9247 26.8673C60.551 27.233 60.9356 27.9033 60.9356 28.6278Z" fill="#51557C"/>
<path d="M58.894 85.6614C58.8004 85.6614 58.7113 85.6363 58.6217 85.5849L33.2754 71.0541C33.1035 70.9557 32.9968 70.7716 32.9968 70.5737V13.8189C32.9968 13.4394 33.3292 13.2627 33.5537 13.2627C33.6486 13.2627 33.7389 13.2885 33.8296 13.3414L59.1759 28.1501C59.3451 28.249 59.4502 28.432 59.4502 28.6278V85.1054C59.4502 85.263 59.3951 85.3958 59.2864 85.5002C59.179 85.6025 59.0361 85.6614 58.894 85.6614Z" fill="white"/>
<path d="M52.6755 71.064C52.818 71.064 52.9565 70.9902 53.0328 70.8579C53.1466 70.6607 53.079 70.4086 52.8818 70.2948L37.4856 61.4059C37.2886 61.2921 37.0363 61.3596 36.9225 61.5566C36.8086 61.7538 36.8762 62.0059 37.0734 62.1197L52.4694 71.0087C52.5346 71.0462 52.6055 71.064 52.6755 71.064Z" fill="#E5E5E5"/>
<path d="M52.6756 74.0356C52.8181 74.0356 52.9566 73.9618 53.0329 73.8296C53.1467 73.6324 53.0791 73.3803 52.8819 73.2664L37.4419 64.3522C37.2449 64.2383 36.9928 64.3059 36.8788 64.5031C36.7649 64.7003 36.8325 64.9524 37.0297 65.0662L52.4698 73.9805C52.5347 74.0179 52.6056 74.0356 52.6756 74.0356Z" fill="#E5E5E5"/>
<path d="M52.6756 77.0063C52.8181 77.0063 52.9566 76.9325 53.0329 76.8003C53.1467 76.6031 53.0791 76.351 52.8819 76.2371L37.4419 67.3229C37.2449 67.209 36.9928 67.2766 36.8788 67.4738C36.7649 67.671 36.8325 67.9229 37.0297 68.0369L52.4698 76.9512C52.5347 76.9886 52.6056 77.0063 52.6756 77.0063Z" fill="#E5E5E5"/>
<path d="M52.6755 32.4253C52.818 32.4253 52.9565 32.3515 53.0328 32.2193C53.1466 32.0221 53.079 31.77 52.8818 31.6561L37.4856 22.7672C37.2886 22.6534 37.0363 22.721 36.9225 22.9179C36.8086 23.1151 36.8762 23.3672 37.0734 23.481L52.4694 32.37C52.5346 32.4076 52.6055 32.4253 52.6755 32.4253Z" fill="#E5E5E5"/>
<path d="M52.6756 35.396C52.8181 35.396 52.9566 35.3222 53.0329 35.1899C53.1467 34.9927 53.0791 34.7406 52.8819 34.6268L37.4419 25.7125C37.2449 25.5987 36.9928 25.6663 36.8788 25.8635C36.7649 26.0606 36.8325 26.3128 37.0297 26.4266L52.4698 35.3409C52.5347 35.3782 52.6056 35.396 52.6756 35.396Z" fill="#E5E5E5"/>
<path d="M52.6756 38.3677C52.8181 38.3677 52.9566 38.2939 53.0329 38.1616C53.1467 37.9644 53.0791 37.7125 52.8819 37.5985L37.4419 28.6842C37.2449 28.5704 36.9928 28.6379 36.8788 28.8351C36.7649 29.0323 36.8325 29.2842 37.0297 29.3983L52.4698 38.3125C52.5347 38.3499 52.6056 38.3677 52.6756 38.3677Z" fill="#E5E5E5"/>
<path d="M52.4174 24.0892V26.8706C52.4174 27.2752 51.9786 27.527 51.6291 27.3232L40.6322 20.9041C40.4712 20.8101 40.3723 20.6378 40.3723 20.4515V17.0732L52.4174 24.0892Z" fill="#51557C"/>
<path d="M50.7022 25.1471C50.6555 25.1471 50.6082 25.1351 50.5651 25.11L43.823 21.1726C43.6932 21.0968 43.6494 20.9299 43.7252 20.8C43.801 20.6702 43.9679 20.6264 44.0978 20.7022L50.8396 24.6396C50.9694 24.7154 51.0132 24.8824 50.9374 25.0122C50.887 25.0989 50.7958 25.1471 50.7022 25.1471Z" fill="#6B749B"/>
<path d="M41.7493 19.9659C41.7493 20.2756 41.9562 20.5266 42.2115 20.5266C42.4667 20.5266 42.6736 20.2756 42.6736 19.9659C42.6736 19.6563 42.4667 19.4053 42.2115 19.4053C41.9562 19.4053 41.7493 19.6563 41.7493 19.9659Z" fill="#6B749B"/>
<path d="M63.4943 9.65918C65.4657 12.2849 64.06 22.0969 62.8467 24.6379L55.7029 20.4753C55.7029 20.4753 57.0052 10.1523 63.4943 9.65918Z" fill="#C6C6C6"/>
<path d="M40.7881 13.9223V13.8896C40.7881 8.48985 43.6735 3.5016 48.3545 0.809396L48.4054 0.780273L63.6398 9.57584L63.4946 9.65966C58.8261 12.355 55.95 17.3363 55.95 22.7272L40.7881 13.9223Z" fill="#E5E5E5"/>
<path d="M58.7477 8.76383C58.7068 8.83453 58.6328 8.87432 58.5565 8.87432C58.5189 8.87432 58.4807 8.86432 58.446 8.84453L48.8374 3.29695C48.7036 3.2198 48.6905 3.03262 48.811 2.93613C48.8121 2.93524 48.8134 2.93413 48.8148 2.93324C48.8848 2.877 48.9824 2.87033 49.06 2.91523L58.667 8.46171C58.7724 8.52284 58.8088 8.65779 58.7477 8.76383Z" fill="#C6C6C6"/>
<path d="M56.4443 10.716C56.4034 10.7873 56.3287 10.8271 56.2524 10.8271C56.2149 10.8271 56.1766 10.8171 56.1419 10.7973L46.7352 5.3658C46.6178 5.298 46.5892 5.1406 46.6759 5.03656C46.6768 5.03545 46.6779 5.03434 46.6788 5.03322C46.747 4.95119 46.8644 4.93007 46.9569 4.98343L56.3629 10.4143C56.4692 10.4757 56.505 10.6104 56.4443 10.716Z" fill="#C6C6C6"/>
<path d="M54.747 13.2683C54.7061 13.3397 54.632 13.3795 54.5551 13.3795C54.5175 13.3795 54.48 13.3695 54.4451 13.3497L45.0273 7.91215C44.9252 7.85324 44.8881 7.72408 44.9432 7.61981C44.9439 7.61848 44.9446 7.61714 44.9452 7.61603C45.0032 7.50666 45.1406 7.46753 45.248 7.52933L54.666 12.9669C54.7719 13.0278 54.8079 13.1627 54.747 13.2683Z" fill="#C6C6C6"/>
<path d="M53.5007 15.8069C53.4597 15.8783 53.3851 15.9174 53.309 15.9174C53.2715 15.9174 53.2332 15.9081 53.1985 15.8881L43.9412 10.5433C43.8527 10.4921 43.8116 10.3867 43.8414 10.2889C43.8418 10.2874 43.8423 10.286 43.8427 10.2845C43.8836 10.15 44.0399 10.0891 44.1618 10.1593L53.4197 15.505C53.5256 15.566 53.5616 15.7013 53.5007 15.8069Z" fill="#C6C6C6"/>
<path d="M52.5157 18.6017C52.4748 18.6724 52.4001 18.7122 52.3238 18.7122C52.2863 18.7122 52.2483 18.7022 52.2134 18.6824L43.3529 13.5668C43.2795 13.5246 43.2368 13.4436 43.2439 13.3594C43.2442 13.3578 43.2442 13.3561 43.2444 13.3545C43.2584 13.1944 43.4329 13.1026 43.5721 13.1829L52.4343 18.2994C52.5399 18.3608 52.5766 18.4955 52.5157 18.6017Z" fill="#C6C6C6"/>
<path opacity="0.2" d="M53.4372 48.6421L53.3312 66.3726C53.329 66.8103 53.1533 67.0976 52.8786 67.1969C52.841 67.2103 52.8012 67.2207 52.7603 67.2263V67.2352L51.7137 67.3377C51.3053 67.3777 50.8947 67.2854 50.5427 67.0742L32.9972 56.5548L31.5112 55.664V33.8721L32.9972 34.7744L52.1661 46.4205C52.873 46.8502 53.4417 47.8449 53.4372 48.6421Z" fill="#252B3D"/>
<path d="M22.0894 28.135L22.594 48.9486L49.972 65.3628L51.6474 65.1983V65.1898C51.6885 65.1838 51.7281 65.1736 51.7656 65.16C52.04 65.0611 52.2158 64.7732 52.2183 64.3359L52.3243 46.6052C52.3287 45.8077 51.7596 44.8133 51.0529 44.384L24.3594 28.1663C24.1128 28.0163 23.8821 27.9549 23.6858 27.9727L23.6693 27.9743L22.0894 28.135Z" fill="#840FAF"/>
<path d="M21.4286 28.9969L21.3225 46.7272C21.3179 47.5244 21.8874 48.5193 22.5942 48.9488L49.2879 65.1667C49.606 65.3601 49.8988 65.4057 50.1238 65.325C50.3983 65.226 50.5735 64.9384 50.5762 64.5006L50.6822 46.7703C50.6871 45.9731 50.1178 44.9785 49.411 44.5492L22.7173 28.3313C22.0108 27.9018 21.4332 28.1997 21.4286 28.9969Z" fill="#BD19FA"/>
<path d="M21.4152 31.1992L21.3918 35.129L50.6455 52.9022L50.6688 48.9724L21.4152 31.1992Z" fill="#3A4059"/>
<path d="M23.7196 46.9588L30.048 50.8037C30.2007 50.8964 30.3252 50.8319 30.3261 50.6598L30.3385 48.5641C30.3397 48.392 30.2167 48.1773 30.064 48.0846L23.7356 44.2397C23.5831 44.147 23.4584 44.2112 23.4575 44.3835L23.4451 46.4793C23.4442 46.6513 23.5669 46.8661 23.7196 46.9588Z" fill="#DC7DFF"/>
<path d="M46.8391 55.2675L48.7674 56.4391C48.8521 56.4907 48.9212 56.4549 48.9219 56.3593L48.9288 55.2222C48.9295 55.1266 48.8612 55.0074 48.7765 54.9558L46.8482 53.7842C46.7635 53.7329 46.6943 53.7685 46.6937 53.8641L46.6868 55.0012C46.6861 55.097 46.7544 55.2162 46.8391 55.2675Z" fill="#DC7DFF"/>
<path d="M42.9018 52.875L44.8301 54.0466C44.9148 54.0982 44.984 54.0624 44.9846 53.9668L44.9915 52.8297C44.9922 52.7341 44.924 52.6149 44.8393 52.5634L42.9109 51.3918C42.8262 51.3402 42.7571 51.376 42.7564 51.4716L42.7495 52.6087C42.7488 52.7045 42.8171 52.8237 42.9018 52.875Z" fill="#DC7DFF"/>
<path d="M38.9643 50.4834L40.8926 51.655C40.9773 51.7066 41.0465 51.6708 41.0471 51.5752L41.054 50.4381C41.0547 50.3425 40.9865 50.2233 40.9018 50.1717L38.9734 49.0002C38.8887 48.9486 38.8196 48.9844 38.8189 49.08L38.812 50.2171C38.8113 50.3129 38.8796 50.4321 38.9643 50.4834Z" fill="#DC7DFF"/>
<path d="M35.027 48.0908L36.9554 49.2623C37.0401 49.3139 37.1092 49.2781 37.1099 49.1825L37.1168 48.0454C37.1174 47.9498 37.0492 47.8306 36.9643 47.7791L35.0359 46.6075C34.9512 46.5561 34.8821 46.5917 34.8814 46.6873L34.8748 47.8244C34.8741 47.9202 34.9423 48.0394 35.027 48.0908Z" fill="#DC7DFF"/>
<path d="M31.0895 45.6992L33.0179 46.8707C33.1026 46.9223 33.1717 46.8865 33.1724 46.7909L33.1793 45.6538C33.18 45.5582 33.1117 45.439 33.027 45.3875L31.0987 44.2159C31.014 44.1645 30.9448 44.2001 30.9442 44.2957L30.9373 45.4328C30.9366 45.5286 31.0048 45.6478 31.0895 45.6992Z" fill="#DC7DFF"/>
<path d="M27.1528 43.3076L29.0811 44.4792C29.1658 44.5308 29.235 44.495 29.2356 44.3994L29.2425 43.2623C29.2432 43.1667 29.1749 43.0475 29.0902 42.996L27.1619 41.8244C27.0772 41.7728 27.008 41.8086 27.0074 41.9042L27.0005 43.0413C26.9998 43.1369 27.0681 43.2561 27.1528 43.3076Z" fill="#DC7DFF"/>
<path d="M23.2153 40.915L25.1436 42.0866C25.2283 42.1381 25.2975 42.1023 25.2981 42.0068L25.305 40.8696C25.3057 40.774 25.2374 40.6549 25.1527 40.6033L23.2244 39.4317C23.1397 39.3803 23.0706 39.4159 23.0699 39.5115L23.063 40.6486C23.0623 40.7442 23.1306 40.8634 23.2153 40.915Z" fill="#DC7DFF"/>
<path d="M21.428 29.1162L21.4236 29.8696L50.6772 47.6431L50.6817 46.8896L21.428 29.1162Z" fill="#DC7DFF"/>
<path d="M45.3977 60.5182L48.4322 62.3618C48.6814 62.5132 48.8849 62.4081 48.8866 62.1268L48.9071 58.7039C48.9089 58.4227 48.7081 58.0721 48.4589 57.9207L45.4243 56.0771C45.1751 55.9257 44.9717 56.0308 44.9699 56.3118L44.9495 59.7348C44.9477 60.016 45.1484 60.3668 45.3977 60.5182Z" fill="#DC7DFF"/>
<path d="M31.4231 50.889L43.8595 58.4447C43.9451 58.4967 44.0147 58.4605 44.0154 58.3642L44.0205 57.4899C44.0211 57.3934 43.9522 57.2731 43.8666 57.2211L31.4302 49.6654C31.3447 49.6133 31.2751 49.6496 31.2744 49.7461L31.2693 50.6204C31.2688 50.7167 31.3378 50.837 31.4231 50.889Z" fill="#DC7DFF"/>
<path opacity="0.2" d="M32.2759 34.1387L50.124 65.3251C50.3986 65.2262 50.5738 64.9385 50.5764 64.5008L50.6135 58.2807L39.2071 38.3497L32.2759 34.1387Z" fill="white"/>
<path opacity="0.2" d="M22.772 28.3643L40.9269 60.0869L44.3183 62.1473L26.1634 30.4247L22.772 28.3643Z" fill="white"/>
<path d="M22.2853 87.189C27.0565 87.189 30.9244 85.194 30.9244 82.7332C30.9244 80.2723 27.0565 78.2773 22.2853 78.2773C17.5141 78.2773 13.6462 80.2723 13.6462 82.7332C13.6462 85.194 17.5141 87.189 22.2853 87.189Z" fill="#E5E5E5"/>
<path d="M29.9961 81.8711C29.9964 81.8826 29.9964 81.8938 29.9964 81.9053C29.9964 82.3255 29.8552 82.7294 29.5951 83.1063C29.5315 83.1987 29.4608 83.289 29.3837 83.3775C29.1671 83.6256 28.8977 83.8597 28.5824 84.0769C28.5142 84.124 28.4435 84.17 28.371 84.2154C28.1265 84.3685 27.8586 84.5113 27.5698 84.6435C27.5007 84.6753 27.4302 84.7067 27.3584 84.7369C27.1054 84.8445 26.8377 84.9439 26.557 85.0346C26.4871 85.0573 26.4169 85.0793 26.3453 85.1006C26.0881 85.178 25.8207 85.248 25.5441 85.3103C25.4741 85.3263 25.4038 85.3414 25.3327 85.3563C25.0726 85.4101 24.8054 85.457 24.5315 85.4968C24.4612 85.507 24.391 85.5168 24.3198 85.5257C24.0582 85.5599 23.7907 85.587 23.5186 85.6073C23.4484 85.6124 23.3781 85.6173 23.3072 85.6215C23.044 85.6373 22.7768 85.6466 22.506 85.6491C22.4591 85.6495 22.4117 85.6497 22.3644 85.6497C22.3412 85.6497 22.3177 85.6497 22.2943 85.6493C22.0236 85.6482 21.7563 85.6402 21.4929 85.6257C21.422 85.6219 21.3515 85.6173 21.2813 85.6124C21.081 85.5984 20.8829 85.5804 20.6877 85.559C20.6179 85.5515 20.5487 85.5435 20.48 85.5348C20.4091 85.5261 20.3387 85.5166 20.2686 85.5066C19.995 85.4685 19.7275 85.423 19.4674 85.3705C19.3963 85.3561 19.3258 85.3416 19.256 85.3258C19.0901 85.2896 18.9279 85.2505 18.7685 85.2087C18.6624 85.1809 18.5579 85.1518 18.4548 85.1215C18.3836 85.1006 18.3129 85.0791 18.2434 85.057C17.963 84.9688 17.6954 84.8716 17.4419 84.7667C17.3919 84.746 17.3423 84.7249 17.2932 84.7036C17.2721 84.6945 17.2512 84.6851 17.2303 84.6758C17.1158 84.6249 17.0042 84.572 16.8961 84.5175C16.7325 84.4348 16.5767 84.3488 16.4291 84.2594C16.3564 84.2151 16.2861 84.1705 16.2174 84.1251C15.9471 83.9453 15.7088 83.7532 15.5067 83.5507C15.4756 83.5195 15.4453 83.4882 15.4162 83.4566C15.3795 83.4173 15.3442 83.3775 15.3104 83.3375C15.2733 83.2939 15.2384 83.2496 15.2046 83.205C14.8989 82.8006 14.7319 82.3624 14.7319 81.9055C14.7319 81.8735 14.7328 81.8413 14.7348 81.8093L14.7355 79.2218L15.2046 79.2207L15.416 79.22L16.2172 79.2182L16.4288 79.2176L17.0542 79.2162L17.2301 79.2158L17.4415 79.2151L18.2429 79.2133L18.4543 79.2131L19.2555 79.2109L19.467 79.2104L20.2682 79.2084L20.4796 79.208L21.2808 79.2062L21.4925 79.2056L22.2939 79.2038L22.5053 79.2031L23.3065 79.2013L23.5179 79.2009L24.3192 79.1989L24.5308 79.1987L25.332 79.1967L25.5434 79.1962L26.3446 79.1944L26.5563 79.1938L27.3577 79.192L27.5691 79.1913H27.6212L28.3704 79.1895L28.5818 79.1891L29.383 79.1871L29.5944 79.1867L29.9928 79.1855L29.9957 81.8711H29.9961Z" fill="#BD19FA"/>
<path d="M15.4162 79.2197V83.4563C15.3796 83.417 15.3442 83.3772 15.3104 83.3372C15.2733 83.2936 15.2384 83.2494 15.2046 83.2047V79.2204L15.4162 79.2197Z" fill="#840FAF"/>
<path d="M16.4292 79.2168V84.2586C16.3565 84.2144 16.2862 84.1697 16.2175 84.1243V79.2175L16.4292 79.2168Z" fill="#840FAF"/>
<path d="M17.4419 79.2148V84.7664C17.3918 84.7458 17.3423 84.7246 17.2931 84.7033C17.272 84.6942 17.2511 84.6848 17.2302 84.6755V79.2157L17.4419 79.2148Z" fill="#840FAF"/>
<path d="M18.4546 79.2119V85.1203C18.3834 85.0994 18.3127 85.0778 18.2432 85.0558V79.2121L18.4546 79.2119Z" fill="#840FAF"/>
<path d="M19.467 79.21V85.37C19.3959 85.3556 19.3254 85.3411 19.2556 85.3253V79.2104L19.467 79.21Z" fill="#840FAF"/>
<path d="M20.4802 79.208V85.5346C20.4093 85.5259 20.3388 85.5163 20.2688 85.5063V79.2084L20.4802 79.208Z" fill="#840FAF"/>
<path d="M21.4929 79.2051V85.625C21.422 85.6212 21.3515 85.6166 21.2812 85.6117V79.2057L21.4929 79.2051Z" fill="#840FAF"/>
<path d="M22.5061 79.2031V85.6488C22.4592 85.6493 22.4118 85.6495 22.3645 85.6495C22.3413 85.6495 22.3178 85.6495 22.2944 85.6491V79.2038L22.5061 79.2031Z" fill="#840FAF"/>
<path d="M23.5188 79.2012V85.6071C23.4485 85.6122 23.3783 85.6171 23.3074 85.6213V79.2014L23.5188 79.2012Z" fill="#840FAF"/>
<path d="M24.5315 79.1982V85.4961C24.4612 85.5064 24.391 85.5161 24.3198 85.525V79.1985L24.5315 79.1982Z" fill="#840FAF"/>
<path d="M25.5444 79.1963V85.3101C25.4744 85.3261 25.4041 85.3412 25.333 85.3561V79.1965L25.5444 79.1963Z" fill="#840FAF"/>
<path d="M26.5571 79.1934V85.0342C26.4873 85.0568 26.417 85.0789 26.3455 85.1002V79.1942L26.5571 79.1934Z" fill="#840FAF"/>
<path d="M27.5701 79.1914V84.6436C27.5009 84.6754 27.4304 84.7068 27.3586 84.737V79.1921L27.5701 79.1914Z" fill="#840FAF"/>
<path d="M28.583 79.1895V84.0772C28.5148 84.1243 28.4441 84.1704 28.3716 84.2157V79.1899L28.583 79.1895Z" fill="#840FAF"/>
<path d="M29.5955 79.1865V83.1061C29.5319 83.1986 29.4612 83.2889 29.384 83.3773V79.1867L29.5955 79.1865Z" fill="#840FAF"/>
<path d="M29.9946 79.2234C29.9946 81.4366 26.5792 83.2308 22.3646 83.2308C21.7888 83.2308 21.2279 83.1973 20.6886 83.1337C20.0103 83.0539 19.3663 82.9267 18.7696 82.7589C18.2369 82.6093 17.7423 82.4272 17.2945 82.218C17.1578 82.1542 17.0253 82.0877 16.8977 82.0188C16.3366 81.7162 15.8662 81.3674 15.5089 80.9842C15.4389 80.9092 15.3733 80.8332 15.3126 80.7558C14.94 80.2839 14.7344 79.7661 14.7344 79.2232C14.7344 79.1736 14.7362 79.1241 14.7406 79.0745C14.8884 76.9303 18.2454 75.2158 22.3644 75.2158C23.3781 75.2158 24.3454 75.3196 25.2302 75.5082C25.4012 75.5446 25.569 75.584 25.7335 75.6267C26.4522 75.8127 27.1067 76.0564 27.6756 76.3463C27.801 76.4101 27.9222 76.4761 28.0391 76.5444C28.4546 76.7871 28.8145 77.0563 29.1082 77.3471C29.411 77.6468 29.6435 77.9692 29.7943 78.3082C29.9043 78.5556 29.9708 78.8119 29.9886 79.0747C29.9928 79.1243 29.9946 79.1741 29.9946 79.2234Z" fill="#9100C6"/>
<path opacity="0.3" d="M29.7947 78.3087L20.689 83.1344C20.0107 83.0546 19.3667 82.9275 18.77 82.7596L29.1087 77.3477C29.4112 77.6473 29.6438 77.9697 29.7947 78.3087Z" fill="white"/>
<path opacity="0.3" d="M25.7339 75.6275L15.5093 80.9848C15.4393 80.9099 15.3737 80.8338 15.313 80.7565L25.2306 75.5088C25.4015 75.5455 25.5694 75.5848 25.7339 75.6275Z" fill="white"/>
<path opacity="0.3" d="M28.0396 76.5448L17.2953 82.2184C17.1585 82.1546 17.026 82.0881 16.8984 82.0192L27.6764 76.3467C27.8015 76.4105 27.9227 76.4765 28.0396 76.5448Z" fill="white"/>
<path d="M28.4638 79.2236C28.4638 79.2727 28.4611 79.3218 28.4578 79.3705C28.3106 81.0688 25.6344 82.4264 22.3653 82.4264C19.0962 82.4264 16.42 81.0688 16.2728 79.3705C16.2695 79.3218 16.2668 79.2727 16.2668 79.2236C16.2668 77.4573 19.0024 76.0205 22.3653 76.0205C25.728 76.0205 28.4638 77.4573 28.4638 79.2236Z" fill="#840FAF"/>
<path d="M28.4577 79.3708C28.3105 81.0691 25.6343 82.4267 22.3652 82.4267C22.292 82.4267 22.2196 82.4258 22.1473 82.4245C21.4181 82.4109 20.7212 82.3302 20.078 82.1931C19.4347 82.0559 18.846 81.8627 18.3335 81.6248C18.2035 81.5646 18.0783 81.5014 17.9574 81.4354C17.4112 81.1346 16.9739 80.7789 16.682 80.3848C16.6113 80.2905 16.5493 80.1936 16.4966 80.0953C16.3707 79.8632 16.2949 79.6207 16.2727 79.3708C16.4199 77.6726 19.0961 76.3145 22.3652 76.3145C22.7787 76.3145 23.1828 76.3362 23.5743 76.3778C23.7735 76.3989 23.9701 76.4252 24.1624 76.4565C24.9478 76.5839 25.6659 76.7926 26.281 77.0639C26.4137 77.1226 26.5422 77.1841 26.6656 77.2488C27.1447 77.4992 27.5453 77.7911 27.8458 78.1132C28.1386 78.4273 28.336 78.7697 28.4194 79.1305C28.4381 79.2094 28.4508 79.2899 28.4577 79.3708Z" fill="#BD19FA"/>
<path opacity="0.2" d="M28.4195 79.1304L22.1477 82.4246C21.4185 82.411 20.7215 82.3303 20.0784 82.1932L27.8462 78.1133C28.1388 78.4272 28.3362 78.7696 28.4195 79.1304Z" fill="white"/>
<path opacity="0.2" d="M24.1621 76.4566L16.682 80.3849C16.6113 80.2906 16.5493 80.1937 16.4966 80.0954L23.5743 76.3779C23.7731 76.399 23.9698 76.4253 24.1621 76.4566Z" fill="white"/>
<path opacity="0.2" d="M26.6657 77.2494L18.3337 81.6254C18.2036 81.5652 18.0785 81.502 17.9575 81.436L26.2811 77.0645C26.4138 77.1231 26.5423 77.1847 26.6657 77.2494Z" fill="white"/>
<path d="M23.2131 81.0419V81.5741H21.9262V81.0659C21.0133 81.037 20.1279 80.9076 19.5803 80.7302L20.2742 79.9056C20.8766 80.0926 21.6798 80.2124 22.3828 80.2124C22.9944 80.2124 23.2134 80.1453 23.2134 80.0301C23.2134 79.6082 19.6808 79.9488 19.6808 78.6974C19.6808 78.1556 20.4293 77.7003 21.9264 77.59V77.0674H23.2134V77.5805C23.889 77.614 24.5461 77.7052 25.0663 77.8586L24.4183 78.6783C23.7885 78.5104 23.1951 78.429 22.6385 78.429C22.0086 78.429 21.8077 78.5249 21.8077 78.64C21.8077 79.0428 25.3402 78.7072 25.3402 79.9441C25.34 80.4616 24.6279 80.9123 23.2131 81.0419Z" fill="#840FAF"/>
<path d="M23.1753 80.8644V81.3964H21.8883V80.8882C20.9755 80.8595 20.09 80.7299 19.5425 80.5527L20.2361 79.7279C20.8386 79.9149 21.6418 80.0347 22.3447 80.0347C22.9563 80.0347 23.1753 79.9676 23.1753 79.8524C23.1753 79.4307 19.6427 79.771 19.6427 78.5196C19.6427 77.9779 20.3913 77.5226 21.8883 77.4121V76.8896H23.1753V77.4025C23.8507 77.4361 24.5081 77.5272 25.0283 77.6806L24.3802 78.5005C23.7504 78.3327 23.1571 78.2511 22.6002 78.2511C21.9704 78.2511 21.7696 78.3471 21.7696 78.4621C21.7696 78.8649 25.3022 78.5292 25.3022 79.7661C25.3022 80.2844 24.5901 80.735 23.1753 80.8644Z" fill="#9100C6"/>
<path d="M29.8219 77.7523C29.8221 77.7638 29.8221 77.7749 29.8221 77.7865C29.8221 78.2067 29.6809 78.6106 29.4208 78.9874C29.3572 79.0799 29.2865 79.1702 29.2094 79.2586C28.9929 79.5067 28.7236 79.7408 28.4082 79.958C28.3399 80.0052 28.2692 80.0512 28.1968 80.0965C27.9522 80.2497 27.6843 80.3924 27.3955 80.5247C27.3264 80.5565 27.2559 80.5878 27.1841 80.6181C26.9311 80.7257 26.6635 80.8251 26.3827 80.9158C26.3129 80.9384 26.2426 80.9604 26.171 80.9818C25.9138 81.0591 25.6464 81.1292 25.3698 81.1912C25.2998 81.2072 25.2295 81.2223 25.1584 81.2372C24.8983 81.2908 24.6311 81.3379 24.3572 81.3777C24.2869 81.388 24.2167 81.3977 24.1458 81.4066C23.8839 81.4409 23.6164 81.468 23.3446 81.4882C23.2743 81.4933 23.2041 81.4982 23.1331 81.5024C22.8699 81.5182 22.6027 81.5276 22.3319 81.53C22.285 81.5305 22.2377 81.5307 22.1903 81.5307C22.1672 81.5307 22.1436 81.5307 22.1203 81.5302C21.8495 81.5291 21.5823 81.5211 21.3189 81.5067C21.2479 81.5029 21.1775 81.4982 21.1072 81.4933C20.9069 81.4793 20.7088 81.4613 20.5136 81.44C20.4441 81.4324 20.3747 81.4244 20.306 81.4157C20.2351 81.4071 20.1646 81.3975 20.0946 81.3875C19.8209 81.3495 19.5535 81.3039 19.2934 81.2517C19.2222 81.2374 19.1517 81.2228 19.0819 81.207C18.9161 81.1707 18.7538 81.1316 18.5944 81.0898C18.4884 81.062 18.3839 81.0329 18.2807 81.0027C18.2096 80.9818 18.1389 80.9602 18.0693 80.9382C17.789 80.85 17.5213 80.7528 17.2679 80.6479C17.2179 80.6272 17.1683 80.6061 17.1191 80.5847C17.098 80.5756 17.0771 80.5663 17.0562 80.5569C16.9417 80.506 16.8301 80.4531 16.7221 80.3987C16.5585 80.316 16.4026 80.2299 16.255 80.1408C16.1825 80.0965 16.1121 80.0519 16.0436 80.0065C15.7733 79.8267 15.5349 79.6346 15.3329 79.432C15.3017 79.4009 15.2715 79.3696 15.2424 79.3378C15.2057 79.2984 15.1704 79.2586 15.1366 79.2186C15.0997 79.1751 15.0645 79.1308 15.0307 79.0861C14.7251 78.6817 14.5581 78.2436 14.5581 77.7867C14.5581 77.7547 14.559 77.7227 14.561 77.6904L14.5617 75.103L15.0307 75.1018L15.2422 75.1012L16.0434 75.0994L16.2548 75.0987L16.8802 75.0974L17.056 75.097L17.2674 75.0963L18.0689 75.0945L18.2803 75.0943L19.0815 75.0923L19.2929 75.0918L20.0941 75.0898L20.3056 75.0896L21.1068 75.0878L21.3184 75.0872L22.1198 75.0854L22.3313 75.0847L23.1325 75.0829L23.3439 75.0825L24.1451 75.0805L24.3565 75.0803L25.1577 75.0783L25.3692 75.0781L26.1704 75.0763L26.382 75.0756L27.1835 75.0738L27.3949 75.0732H27.4471L28.1961 75.0714L28.4075 75.0709L29.2087 75.0689L29.4201 75.0685L29.8185 75.0674L29.8214 77.7529H29.8219V77.7523Z" fill="#BD19FA"/>
<path d="M15.2414 75.1016V79.3379C15.2047 79.2986 15.1694 79.2588 15.1356 79.2188C15.0987 79.1752 15.0636 79.131 15.0298 79.0863V75.102L15.2414 75.1016Z" fill="#840FAF"/>
<path d="M16.2544 75.0986V80.1405C16.1819 80.0962 16.1114 80.0515 16.043 80.0062V75.0993L16.2544 75.0986Z" fill="#840FAF"/>
<path d="M17.2671 75.0967V80.6483C17.217 80.6276 17.1675 80.6065 17.1183 80.5851C17.0972 80.576 17.0763 80.5667 17.0554 80.5573V75.0976L17.2671 75.0967Z" fill="#840FAF"/>
<path d="M18.2805 75.0947V81.0031C18.2094 80.9822 18.1387 80.9607 18.0691 80.9387V75.095L18.2805 75.0947Z" fill="#840FAF"/>
<path d="M19.293 75.0928V81.2528C19.2218 81.2386 19.1513 81.2239 19.0815 81.2081V75.0932L19.293 75.0928Z" fill="#840FAF"/>
<path d="M20.3054 75.0898V81.4164C20.2345 81.4077 20.164 81.3982 20.094 81.3882V75.0903L20.3054 75.0898Z" fill="#840FAF"/>
<path d="M21.3188 75.0879V81.5078C21.2479 81.5041 21.1774 81.4994 21.1072 81.4945V75.0886L21.3188 75.0879Z" fill="#840FAF"/>
<path d="M22.3313 75.085V81.5307C22.2844 81.5311 22.237 81.5314 22.1897 81.5314C22.1665 81.5314 22.143 81.5314 22.1196 81.5309V75.0856L22.3313 75.085Z" fill="#840FAF"/>
<path d="M23.3447 75.083V81.4889C23.2745 81.4941 23.2042 81.4989 23.1333 81.5032V75.0832L23.3447 75.083Z" fill="#840FAF"/>
<path d="M24.3567 75.0801V81.378C24.2864 81.3882 24.2162 81.398 24.1453 81.4069V75.0803L24.3567 75.0801Z" fill="#840FAF"/>
<path d="M25.3696 75.0781V81.1919C25.2996 81.2079 25.2293 81.2231 25.1582 81.238V75.0783L25.3696 75.0781Z" fill="#840FAF"/>
<path d="M26.3823 75.0752V80.916C26.3125 80.9387 26.2422 80.9607 26.1707 80.982V75.0759L26.3823 75.0752Z" fill="#840FAF"/>
<path d="M27.3953 75.0732V80.5255C27.3261 80.5573 27.2556 80.5886 27.1838 80.6188V75.0739L27.3953 75.0732Z" fill="#840FAF"/>
<path d="M28.4082 75.0703V79.9581C28.3399 80.0052 28.2693 80.0512 28.1968 80.0966V75.0708L28.4082 75.0703Z" fill="#840FAF"/>
<path d="M29.4209 75.0684V78.988C29.3573 79.0804 29.2866 79.1707 29.2095 79.2592V75.0686L29.4209 75.0684Z" fill="#840FAF"/>
<path d="M29.8205 75.1053C29.8205 77.3184 26.4051 79.1127 22.1905 79.1127C21.6147 79.1127 21.0538 79.0791 20.5145 79.0155C19.8362 78.9359 19.1922 78.8086 18.5955 78.6407C18.0629 78.4911 17.5682 78.309 17.1207 78.0998C16.984 78.036 16.8515 77.9696 16.7239 77.9006C16.1628 77.5981 15.6923 77.2493 15.3351 76.866C15.2651 76.7911 15.1995 76.715 15.1388 76.6377C14.7662 76.1657 14.5605 75.6479 14.5605 75.1051C14.5605 75.0555 14.5625 75.0059 14.5668 74.9563C14.7146 72.8121 18.0715 71.0977 22.1905 71.0977C23.2043 71.0977 24.1716 71.2015 25.0564 71.39C25.2273 71.4265 25.3952 71.4658 25.5597 71.5087C26.2784 71.6948 26.9329 71.9384 27.5018 72.2283C27.6272 72.2921 27.7483 72.3582 27.8653 72.4264C28.2808 72.6692 28.6407 72.9384 28.9344 73.2292C29.2372 73.5289 29.4697 73.8512 29.6204 74.1902C29.7305 74.4377 29.797 74.694 29.8147 74.9568C29.8187 75.0059 29.8205 75.0557 29.8205 75.1053Z" fill="#9100C6"/>
<path opacity="0.3" d="M29.6202 74.1896L20.5145 79.0153C19.8362 78.9357 19.1921 78.8083 18.5955 78.6405L28.9341 73.2285C29.2369 73.5284 29.4694 73.8508 29.6202 74.1896Z" fill="white"/>
<path opacity="0.3" d="M25.5591 71.5084L15.3345 76.8657C15.2645 76.7907 15.1989 76.7147 15.1382 76.6373L25.0558 71.3896C25.2267 71.4261 25.3946 71.4657 25.5591 71.5084Z" fill="white"/>
<path opacity="0.3" d="M27.8648 72.4256L17.1205 78.0993C16.9837 78.0354 16.8512 77.969 16.7236 77.9001L27.5016 72.2275C27.6267 72.2913 27.7479 72.3574 27.8648 72.4256Z" fill="white"/>
<path d="M28.289 75.1054C28.289 75.1546 28.2863 75.2037 28.283 75.2524C28.1358 76.9506 25.4596 78.3083 22.1905 78.3083C18.9214 78.3083 16.2452 76.9506 16.098 75.2524C16.0947 75.2037 16.092 75.1546 16.092 75.1054C16.092 73.3391 18.8276 71.9023 22.1905 71.9023C25.5532 71.9026 28.289 73.3394 28.289 75.1054Z" fill="#840FAF"/>
<path d="M28.2828 75.2524C28.1357 76.9507 25.4595 78.3083 22.1904 78.3083C22.1172 78.3083 22.0448 78.3074 21.9725 78.3061C21.2433 78.2928 20.5464 78.2118 19.9032 78.0747C19.2599 77.9375 18.6712 77.7443 18.1587 77.5067C18.0285 77.4462 17.9035 77.3833 17.7826 77.3173C17.2364 77.0165 16.7991 76.6608 16.5072 76.2666C16.4365 76.1723 16.3745 76.0754 16.3218 75.9772C16.1957 75.7451 16.1201 75.5025 16.0979 75.2526C16.2451 73.5544 18.9213 72.1963 22.1904 72.1963C22.6039 72.1963 23.008 72.2181 23.3995 72.2596C23.5987 72.2808 23.7952 72.307 23.9875 72.3383C24.773 72.4657 25.491 72.6745 26.1062 72.9457C26.2389 73.0044 26.3674 73.066 26.4908 73.1307C26.9699 73.381 27.3705 73.6729 27.671 73.995C27.9638 74.3091 28.1612 74.6515 28.2446 75.0123C28.2633 75.091 28.276 75.1715 28.2828 75.2524Z" fill="#BD19FA"/>
<path opacity="0.2" d="M28.2447 75.0122L21.9728 78.3064C21.2437 78.2931 20.5467 78.2122 19.9036 78.075L27.6714 73.9951C27.9639 74.3092 28.1614 74.6516 28.2447 75.0122Z" fill="white"/>
<path opacity="0.2" d="M23.9876 72.3385L16.5074 76.2667C16.4367 76.1725 16.3747 76.0755 16.322 75.9773L23.3998 72.2598C23.5988 72.2807 23.7953 72.3071 23.9876 72.3385Z" fill="white"/>
<path opacity="0.2" d="M26.4912 73.1305L18.1591 77.5065C18.0288 77.446 17.9039 77.3831 17.783 77.3171L26.1066 72.9453C26.2393 73.004 26.3678 73.0656 26.4912 73.1305Z" fill="white"/>
<path d="M23.0383 76.9227V77.455H21.7514V76.9468C20.8385 76.9179 19.9531 76.7885 19.4055 76.6111L20.0991 75.7865C20.7016 75.9735 21.5048 76.0933 22.2078 76.0933C22.8193 76.0933 23.0383 76.0262 23.0383 75.911C23.0383 75.4891 19.5058 75.8296 19.5058 74.5782C19.5058 74.0365 20.2543 73.5812 21.7514 73.4709V72.9482H23.0383V73.4613C23.7139 73.4949 24.3711 73.5861 24.8913 73.7395L24.2433 74.5591C23.6134 74.3913 23.0201 74.3099 22.4632 74.3099C21.8334 74.3099 21.6324 74.4057 21.6324 74.5209C21.6324 74.9237 25.165 74.588 25.165 75.825C25.1652 76.3427 24.4531 76.7934 23.0383 76.9227Z" fill="#840FAF"/>
<path d="M23.0005 76.7462V77.2782H21.7135V76.77C20.8007 76.7413 19.9152 76.6117 19.3677 76.4345L20.0613 75.6098C20.6638 75.7967 21.467 75.9165 22.1699 75.9165C22.7815 75.9165 23.0005 75.8494 23.0005 75.7342C23.0005 75.3123 19.4679 75.6529 19.4679 74.4015C19.4679 73.8597 20.2165 73.4044 21.7135 73.2939V72.7715H23.0005V73.2844C23.6759 73.3179 24.3332 73.4091 24.8535 73.5625L24.2054 74.3824C23.5756 74.2145 22.9823 74.1329 22.4254 74.1329C21.7956 74.1329 21.5948 74.2287 21.5948 74.3439C21.5948 74.7465 25.1273 74.411 25.1273 75.648C25.1273 76.1662 24.4153 76.6166 23.0005 76.7462Z" fill="#9100C6"/>
<path d="M30.7649 73.7384C30.7651 73.7499 30.7651 73.761 30.7651 73.7726C30.7651 74.1928 30.624 74.5967 30.3639 74.9735C30.3003 75.066 30.2296 75.1563 30.1524 75.2447C29.9359 75.4928 29.6667 75.7269 29.3512 75.9441C29.283 75.9913 29.2123 76.0373 29.1396 76.0826C28.895 76.2358 28.6272 76.3785 28.3384 76.5108C28.2692 76.5426 28.1988 76.574 28.1267 76.6042C27.8737 76.7118 27.6061 76.8114 27.3253 76.9019C27.2555 76.9245 27.1852 76.9465 27.1139 76.9679C26.8567 77.0453 26.5892 77.1153 26.3127 77.1775C26.2426 77.1935 26.1724 77.2087 26.1012 77.2235C25.8411 77.2771 25.5739 77.3243 25.3 77.3641C25.2298 77.3743 25.1595 77.3841 25.0886 77.393C24.8269 77.4272 24.5593 77.4543 24.2874 77.4745C24.2171 77.4797 24.1469 77.4845 24.076 77.4888C23.8128 77.5046 23.5455 77.5139 23.2748 77.5163C23.2278 77.5168 23.1805 77.517 23.1331 77.517C23.11 77.517 23.0865 77.517 23.0631 77.5166C22.7923 77.5157 22.5251 77.5074 22.2617 77.493C22.1908 77.4892 22.1203 77.4845 22.05 77.4797C21.8497 77.4656 21.6517 77.4476 21.4565 77.4263C21.3869 77.4187 21.3175 77.4107 21.2488 77.4021C21.1779 77.3934 21.1074 77.3838 21.0374 77.3738C20.7637 77.3358 20.4963 77.2902 20.2362 77.238C20.1651 77.2238 20.0946 77.2091 20.0248 77.1933C19.8589 77.1571 19.6966 77.1179 19.5372 77.0762C19.4312 77.0484 19.3267 77.0192 19.2236 76.989C19.1524 76.9681 19.0817 76.9465 19.0121 76.9245C18.7318 76.8363 18.4641 76.7391 18.2107 76.6342C18.1607 76.6135 18.1111 76.5924 18.062 76.5711C18.0409 76.5619 18.02 76.5526 17.9991 76.5433C17.8846 76.4924 17.773 76.4395 17.6649 76.385C17.5013 76.3023 17.3455 76.2163 17.1978 76.1271C17.1251 76.0829 17.0549 76.0382 16.9862 75.9928C16.7159 75.813 16.4776 75.6209 16.2755 75.4184C16.2443 75.3872 16.2141 75.3559 16.1848 75.3243C16.1481 75.285 16.1127 75.2452 16.0789 75.2052C16.0418 75.1616 16.0069 75.1174 15.9731 75.0727C15.6674 74.6683 15.5005 74.2301 15.5005 73.7733C15.5005 73.7412 15.5014 73.709 15.5034 73.677L15.504 71.0895L15.9731 71.0884L16.1845 71.0877L16.9858 71.0859L17.1974 71.0853L17.8228 71.0839L17.9986 71.0835L18.21 71.0828L19.0115 71.0811L19.2229 71.0808L20.0241 71.0788L20.2355 71.0784L21.0367 71.0764L21.2482 71.0759L22.0494 71.0742L22.261 71.0735L23.0624 71.0717L23.2739 71.0711L24.0751 71.0693L24.2865 71.0688L25.0877 71.0668L25.2991 71.0666L26.1003 71.0646L26.3118 71.0644L27.113 71.0626L27.3244 71.0619L28.1258 71.0602L28.3375 71.0595H28.3895L29.1385 71.0577L29.3501 71.0573L30.1513 71.0553L30.3627 71.0548L30.7611 71.0537L30.764 73.7392H30.7649V73.7384Z" fill="#BD19FA"/>
<path d="M16.1848 71.0869V75.3233C16.1481 75.284 16.1128 75.2442 16.079 75.2041C16.0418 75.1606 16.0069 75.1163 15.9731 75.0716V71.0874L16.1848 71.0869Z" fill="#840FAF"/>
<path d="M17.1972 71.084V76.1258C17.1245 76.0816 17.0543 76.0369 16.9856 75.9915V71.0846L17.1972 71.084Z" fill="#840FAF"/>
<path d="M18.2104 71.082V76.6336C18.1604 76.6129 18.1108 76.5918 18.0617 76.5705C18.0406 76.5614 18.0197 76.552 17.9988 76.5427V71.0829L18.2104 71.082Z" fill="#840FAF"/>
<path d="M19.2231 71.0791V76.9875C19.152 76.9666 19.0813 76.945 19.0117 76.923V71.0793L19.2231 71.0791Z" fill="#840FAF"/>
<path d="M20.2356 71.0771V77.2372C20.1644 77.223 20.094 77.2083 20.0242 77.1925V71.0776L20.2356 71.0771Z" fill="#840FAF"/>
<path d="M21.2488 71.0752V77.4018C21.1779 77.3931 21.1074 77.3835 21.0374 77.3735V71.0756L21.2488 71.0752Z" fill="#840FAF"/>
<path d="M22.2614 71.0723V77.4922C22.1905 77.4884 22.1201 77.4838 22.0498 77.4789V71.0729L22.2614 71.0723Z" fill="#840FAF"/>
<path d="M23.2746 71.0703V77.516C23.2277 77.5165 23.1804 77.5167 23.133 77.5167C23.1099 77.5167 23.0863 77.5167 23.063 77.5163V71.071L23.2746 71.0703Z" fill="#840FAF"/>
<path d="M24.2873 71.0674V77.4733C24.2171 77.4784 24.1468 77.4833 24.0759 77.4875V71.0676L24.2873 71.0674Z" fill="#840FAF"/>
<path d="M25.2998 71.0654V77.3633C25.2295 77.3735 25.1593 77.3833 25.0884 77.3922V71.0656L25.2998 71.0654Z" fill="#840FAF"/>
<path d="M26.313 71.0625V77.1763C26.243 77.1923 26.1727 77.2074 26.1016 77.2223V71.0627L26.313 71.0625Z" fill="#840FAF"/>
<path d="M27.3254 71.0605V76.9014C27.2556 76.924 27.1854 76.946 27.114 76.9674V71.0612L27.3254 71.0605Z" fill="#840FAF"/>
<path d="M28.3386 71.0576V76.5098C28.2695 76.5416 28.199 76.573 28.127 76.6032V71.0583L28.3386 71.0576Z" fill="#840FAF"/>
<path d="M29.3513 71.0566V75.9444C29.283 75.9915 29.2123 76.0376 29.1396 76.0829V71.0571L29.3513 71.0566Z" fill="#840FAF"/>
<path d="M30.364 71.0537V74.9733C30.3004 75.0658 30.2297 75.156 30.1526 75.2445V71.0539L30.364 71.0537Z" fill="#840FAF"/>
<path d="M30.7631 71.0906C30.7631 73.3038 27.3477 75.098 23.1331 75.098C22.5573 75.098 21.9965 75.0645 21.4571 75.0009C20.7788 74.9211 20.1348 74.7939 19.5381 74.6261C19.0055 74.4765 18.5106 74.2944 18.0631 74.0852C17.9264 74.0214 17.7939 73.9549 17.6663 73.886C17.1051 73.5834 16.6347 73.2346 16.2775 72.8514C16.2077 72.7767 16.1419 72.7004 16.0812 72.623C15.7086 72.1511 15.5029 71.6333 15.5029 71.0904C15.5029 71.0408 15.5047 70.9913 15.5092 70.9417C15.657 68.7975 19.0139 67.083 23.1329 67.083C24.1467 67.083 25.1139 67.1868 25.9987 67.3753C26.1697 67.4118 26.3376 67.4512 26.5021 67.4941C27.2208 67.6801 27.8753 67.9238 28.4442 68.2137C28.5696 68.2775 28.6907 68.3435 28.8077 68.4118C29.2232 68.6545 29.5831 68.9238 29.8768 69.2145C30.1796 69.5142 30.4121 69.8366 30.5628 70.1756C30.6729 70.423 30.7391 70.6794 30.7571 70.9421C30.7613 70.9913 30.7631 71.0411 30.7631 71.0906Z" fill="#9100C6"/>
<path opacity="0.3" d="M30.563 70.1749L21.4573 75.0007C20.7791 74.9209 20.135 74.7937 19.5383 74.6258L29.877 69.2139C30.1795 69.5138 30.4121 69.8361 30.563 70.1749Z" fill="white"/>
<path opacity="0.3" d="M26.5022 67.4937L16.2776 72.851C16.2078 72.7763 16.142 72.7001 16.0813 72.6227L25.9989 67.375C26.1698 67.4115 26.3377 67.451 26.5022 67.4937Z" fill="white"/>
<path opacity="0.3" d="M28.8079 68.4119L18.0636 74.0856C17.9269 74.0218 17.7944 73.9553 17.6667 73.8864L28.4447 68.2139C28.5698 68.2777 28.691 68.3437 28.8079 68.4119Z" fill="white"/>
<path d="M29.2321 71.0908C29.2321 71.1399 29.2294 71.189 29.2261 71.2377C29.0789 72.936 26.403 74.2936 23.1336 74.2936C19.8645 74.2936 17.1883 72.936 17.0412 71.2377C17.0378 71.189 17.0352 71.1399 17.0352 71.0908C17.0352 69.3245 19.7707 67.8877 23.1336 67.8877C26.4963 67.8879 29.2321 69.3247 29.2321 71.0908Z" fill="#840FAF"/>
<path d="M29.2257 71.2378C29.0786 72.936 26.4026 74.2937 23.1333 74.2937C23.0601 74.2937 22.9877 74.2928 22.9154 74.2915C22.1862 74.2779 21.4893 74.1972 20.8461 74.06C20.2027 73.9229 19.6141 73.7297 19.1019 73.492C18.9716 73.4318 18.8466 73.3686 18.7257 73.3026C18.1795 73.0018 17.7422 72.6461 17.4503 72.252C17.3796 72.1577 17.3176 72.0608 17.2649 71.9625C17.1388 71.7304 17.0632 71.4879 17.041 71.238C17.1882 69.5397 19.8644 68.1816 23.1335 68.1816C23.547 68.1816 23.9512 68.2034 24.3426 68.245C24.5418 68.2661 24.7384 68.2924 24.9307 68.3237C25.7161 68.4511 26.4342 68.6598 27.0493 68.9311C27.182 68.9897 27.3105 69.0513 27.4339 69.116C27.913 69.3663 28.3136 69.6582 28.6142 69.9804C28.9069 70.2945 29.1044 70.6369 29.1877 70.9977C29.2062 71.0764 29.2188 71.1569 29.2257 71.2378Z" fill="#BD19FA"/>
<path opacity="0.2" d="M29.1871 70.9966L22.9152 74.2908C22.186 74.2772 21.4891 74.1965 20.8459 74.0594L28.6138 69.9795C28.9063 70.2936 29.1037 70.636 29.1871 70.9966Z" fill="white"/>
<path opacity="0.2" d="M24.9304 68.3228L17.4503 72.2511C17.3796 72.1568 17.3176 72.0599 17.2649 71.9616L24.3427 68.2441C24.5414 68.265 24.7381 68.2915 24.9304 68.3228Z" fill="white"/>
<path opacity="0.2" d="M27.434 69.1149L19.102 73.4909C18.9717 73.4306 18.8468 73.3675 18.7258 73.3015L27.0494 68.9297C27.1821 68.9884 27.3106 69.05 27.434 69.1149Z" fill="white"/>
<path d="M23.9814 72.9081V73.4403H22.6945V72.9321C21.7817 72.9032 20.8962 72.7738 20.3486 72.5964L21.0425 71.7719C21.6449 71.9588 22.4482 72.0786 23.1511 72.0786C23.7627 72.0786 23.9817 72.0115 23.9817 71.8964C23.9817 71.4744 20.4491 71.815 20.4491 70.5636C20.4491 70.0218 21.1976 69.5665 22.6947 69.4563V68.9336H23.9817V69.4467C24.6573 69.4803 25.3144 69.5714 25.8346 69.7248L25.1866 70.5445C24.5568 70.3766 23.9634 70.2953 23.4065 70.2953C22.7767 70.2953 22.5758 70.3911 22.5758 70.5062C22.5758 70.9091 26.1083 70.5734 26.1083 71.8103C26.1083 72.3281 25.3962 72.7787 23.9814 72.9081Z" fill="#840FAF"/>
<path d="M23.9436 72.7306V73.2626H22.6566V72.7544C21.7438 72.7257 20.8583 72.5961 20.3108 72.4189L21.0044 71.5941C21.6069 71.7811 22.4101 71.9009 23.113 71.9009C23.7246 71.9009 23.9436 71.8338 23.9436 71.7186C23.9436 71.2969 20.4111 71.6373 20.4111 70.3859C20.4111 69.8441 21.1596 69.3888 22.6566 69.2783V68.7559H23.9436V69.2687C24.619 69.3023 25.2764 69.3935 25.7966 69.5469L25.1485 70.3667C24.5187 70.1989 23.9254 70.1173 23.3685 70.1173C22.7387 70.1173 22.5379 70.2131 22.5379 70.3283C22.5379 70.7311 26.0705 70.3954 26.0705 71.6324C26.0705 72.1506 25.3584 72.601 23.9436 72.7306Z" fill="#9100C6"/>
<path d="M9.0502 92.3057C13.8214 92.3057 17.6893 90.3109 17.6893 87.8501C17.6893 85.3894 13.8214 83.3945 9.0502 83.3945C4.27897 83.3945 0.411133 85.3894 0.411133 87.8501C0.411133 90.3109 4.27897 92.3057 9.0502 92.3057Z" fill="#E5E5E5"/>
<path d="M16.6456 87.5376C16.6458 87.5492 16.6458 87.5603 16.6458 87.5719C16.6458 87.992 16.5046 88.396 16.2445 88.7728C16.181 88.8653 16.1103 88.9555 16.0331 89.044C15.8166 89.2921 15.5474 89.5262 15.2319 89.7434C15.1637 89.7905 15.093 89.8366 15.0203 89.8819C14.7757 90.0349 14.5078 90.1778 14.219 90.3101C14.1499 90.3419 14.0794 90.3732 14.0076 90.4035C13.7546 90.5111 13.487 90.6104 13.2062 90.7011C13.1364 90.7238 13.0661 90.7458 12.9948 90.7672C12.7376 90.8445 12.4701 90.9146 12.1936 90.9768C12.1235 90.9928 12.0533 91.0079 11.9821 91.0228C11.722 91.0766 11.4548 91.1235 11.1809 91.1633C11.1107 91.1735 11.0404 91.1833 10.9695 91.1922C10.7078 91.2265 10.4402 91.2536 10.1683 91.2738C10.098 91.2789 10.0278 91.2838 9.95687 91.288C9.69365 91.3038 9.42644 91.3132 9.15566 91.3156C9.10875 91.316 9.0614 91.3163 9.01405 91.3163C8.99092 91.3163 8.96736 91.3163 8.94402 91.3158C8.67324 91.3147 8.40602 91.3067 8.14258 91.2923C8.07166 91.2885 8.00119 91.2838 7.93094 91.2789C7.73064 91.2649 7.53256 91.2469 7.33736 91.2256C7.26756 91.218 7.19842 91.21 7.12973 91.2011C7.05881 91.1924 6.98833 91.1831 6.91831 91.1729C6.64464 91.1349 6.3772 91.0893 6.11709 91.037C6.04595 91.0226 5.97548 91.0081 5.90567 90.9924C5.73983 90.9561 5.57754 90.917 5.41814 90.8752C5.3121 90.8474 5.20761 90.8183 5.10446 90.7881C5.03332 90.7672 4.96262 90.7456 4.89304 90.7236C4.6127 90.6353 4.34504 90.5382 4.0916 90.4332C4.04158 90.4126 3.99201 90.3915 3.94288 90.3701C3.92176 90.361 3.90086 90.3517 3.87996 90.3421C3.76547 90.2912 3.65387 90.2383 3.54583 90.1838C3.3822 90.1013 3.22636 90.0151 3.07875 89.9259C3.00627 89.8817 2.9358 89.837 2.86733 89.7917C2.597 89.6118 2.35868 89.4197 2.15659 89.2172C2.12547 89.1861 2.09524 89.1547 2.06611 89.1232C2.02943 89.0838 1.99408 89.044 1.96029 89.004C1.92317 88.9604 1.88826 88.9162 1.85447 88.8715C1.54879 88.4671 1.38184 88.0289 1.38184 87.5721C1.38184 87.5401 1.38273 87.5078 1.38473 87.4758L1.38539 84.8883L1.85447 84.8872L2.06589 84.8865L2.86711 84.8848L3.07853 84.8841L3.70389 84.8828L3.87974 84.8823L4.09138 84.8817L4.89282 84.8799L5.10424 84.8797L5.90545 84.8777L6.11687 84.8772L6.91808 84.8752L7.1295 84.8748L7.93072 84.873L8.14236 84.8723L8.94379 84.8705L9.15521 84.8699L9.95643 84.8681L10.1678 84.8677L10.9691 84.8657L11.1805 84.8654L11.9817 84.8634L12.1931 84.8632L12.9943 84.8614L13.2057 84.8608L14.0072 84.859L14.2186 84.8583H14.2708L15.0198 84.8565L15.2315 84.8561L16.0327 84.8541L16.2441 84.8537L16.6425 84.8525L16.6454 87.5381L16.6456 87.5376Z" fill="#BD19FA"/>
<path d="M2.06565 84.8867V89.1233C2.02896 89.084 1.99362 89.0442 1.95983 89.0042C1.9227 88.9606 1.8878 88.9164 1.854 88.8717V84.8874L2.06565 84.8867Z" fill="#840FAF"/>
<path d="M3.07861 84.8838V89.9256C3.00613 89.8814 2.93566 89.8367 2.86719 89.7913V84.8845L3.07861 84.8838Z" fill="#840FAF"/>
<path d="M4.09128 84.8818V90.4334C4.04126 90.4127 3.99168 90.3916 3.94255 90.3703C3.92143 90.3612 3.90054 90.3518 3.87964 90.3423V84.8825L4.09128 84.8818Z" fill="#840FAF"/>
<path d="M5.104 84.8799V90.7883C5.03286 90.7674 4.96216 90.7458 4.89258 90.7238V84.8801L5.104 84.8799Z" fill="#840FAF"/>
<path d="M6.11669 84.877V91.037C6.04555 91.0226 5.97508 91.0081 5.90527 90.9923V84.8774L6.11669 84.877Z" fill="#840FAF"/>
<path d="M7.12963 84.875V91.2016C7.05872 91.1929 6.98824 91.1836 6.91821 91.1733V84.8754L7.12963 84.875Z" fill="#840FAF"/>
<path d="M8.14231 84.8721V91.292C8.07139 91.2882 8.00091 91.2836 7.93066 91.2787V84.8727L8.14231 84.8721Z" fill="#840FAF"/>
<path d="M9.15549 84.8701V91.3158C9.10858 91.3163 9.06123 91.3165 9.01388 91.3165C8.99076 91.3165 8.96719 91.3165 8.94385 91.3161V84.8708L9.15549 84.8701Z" fill="#840FAF"/>
<path d="M10.1677 84.8672V91.2731C10.0975 91.2782 10.0272 91.2831 9.9563 91.2873V84.8674L10.1677 84.8672Z" fill="#840FAF"/>
<path d="M11.1809 84.8652V91.1631C11.1107 91.1734 11.0404 91.1831 10.9695 91.192V84.8655L11.1809 84.8652Z" fill="#840FAF"/>
<path d="M12.1934 84.8623V90.9761C12.1233 90.9921 12.0531 91.0072 11.9819 91.0221V84.8625L12.1934 84.8623Z" fill="#840FAF"/>
<path d="M13.2063 84.8604V90.7012C13.1365 90.7238 13.0662 90.7458 12.9949 90.7672V84.8612L13.2063 84.8604Z" fill="#840FAF"/>
<path d="M14.2187 84.8574V90.3096C14.1496 90.3414 14.0791 90.3728 14.0073 90.403V84.8581L14.2187 84.8574Z" fill="#840FAF"/>
<path d="M15.2322 84.8564V89.7442C15.1639 89.7913 15.0932 89.8374 15.0205 89.8827V84.8569L15.2322 84.8564Z" fill="#840FAF"/>
<path d="M16.2444 84.8535V88.7731C16.1808 88.8656 16.1101 88.9559 16.033 89.0443V84.8537L16.2444 84.8535Z" fill="#840FAF"/>
<path d="M16.6445 84.8904C16.6445 87.1036 13.2291 88.8978 9.01451 88.8978C8.43872 88.8978 7.87782 88.8643 7.33849 88.8007C6.66022 88.7209 6.01618 88.5937 5.41949 88.4259C4.88683 88.2763 4.39219 88.0942 3.94467 87.885C3.80795 87.8212 3.67545 87.7547 3.54784 87.6858C2.98673 87.3832 2.51631 87.0344 2.15906 86.6512C2.08903 86.5762 2.02345 86.5002 1.96276 86.4228C1.59016 85.9509 1.38452 85.4331 1.38452 84.8902C1.38452 84.8406 1.3863 84.7911 1.39075 84.7415C1.53858 82.5973 4.8955 80.8828 9.01451 80.8828C10.0283 80.8828 10.9955 80.9866 11.8803 81.1749C12.0513 81.2114 12.2191 81.2507 12.3837 81.2934C13.1024 81.4795 13.7569 81.7232 14.3258 82.0131C14.4512 82.0769 14.5723 82.1429 14.6893 82.2111C15.1048 82.4539 15.4647 82.7231 15.7584 83.0139C16.0611 83.3136 16.2937 83.6359 16.4444 83.975C16.5545 84.2224 16.6207 84.4787 16.6387 84.7415C16.6429 84.7913 16.6445 84.8409 16.6445 84.8904Z" fill="#9100C6"/>
<path opacity="0.3" d="M16.4439 83.9757L7.33819 88.8014C6.65991 88.7216 6.01588 88.5945 5.41919 88.4266L15.7578 83.0146C16.0606 83.3143 16.2932 83.6367 16.4439 83.9757Z" fill="white"/>
<path opacity="0.3" d="M12.3831 81.2945L2.15846 86.6518C2.08843 86.5769 2.02285 86.5008 1.96216 86.4235L11.8797 81.1758C12.0507 81.2125 12.2185 81.2518 12.3831 81.2945Z" fill="white"/>
<path opacity="0.3" d="M14.6888 82.2118L3.94444 87.8854C3.80771 87.8216 3.67521 87.7551 3.54761 87.6862L14.3255 82.0137C14.4509 82.0775 14.5721 82.1435 14.6888 82.2118Z" fill="white"/>
<path d="M15.1127 84.8906C15.1127 84.9397 15.1101 84.9888 15.1067 85.0375C14.9595 86.7358 12.2834 88.0934 9.01425 88.0934C5.74514 88.0934 3.06894 86.7358 2.92177 85.0375C2.91844 84.9888 2.91577 84.9397 2.91577 84.8906C2.91577 83.1245 5.65133 81.6875 9.01425 81.6875C12.3772 81.6875 15.1127 83.1243 15.1127 84.8906Z" fill="#840FAF"/>
<path d="M15.107 85.0378C14.9599 86.736 12.2837 88.0937 9.01457 88.0937C8.94143 88.0937 8.86896 88.0928 8.7967 88.0915C8.06752 88.0779 7.37057 87.9972 6.72742 87.8601C6.08405 87.7229 5.49536 87.5297 4.98293 87.2918C4.85288 87.2316 4.72772 87.1684 4.60678 87.1024C4.06056 86.8016 3.62327 86.4459 3.33137 86.0518C3.26068 85.9575 3.19865 85.8606 3.14574 85.7623C3.01991 85.5304 2.94411 85.2877 2.92188 85.0378C3.06905 83.3396 5.74524 81.9814 9.01435 81.9814C9.42785 81.9814 9.83201 82.0032 10.2235 82.0448C10.4227 82.0659 10.6192 82.0922 10.8115 82.1235C11.597 82.2509 12.315 82.4596 12.9302 82.7309C13.0629 82.7896 13.1914 82.8511 13.3148 82.9158C13.7938 83.1661 14.1944 83.458 14.495 83.7802C14.7878 84.0943 14.9852 84.4367 15.0686 84.7975C15.0873 84.8764 15.1002 84.9569 15.107 85.0378Z" fill="#BD19FA"/>
<path opacity="0.2" d="M15.0687 84.7973L8.79682 88.0916C8.06764 88.078 7.37069 87.9973 6.72754 87.8601L14.4954 83.7803C14.7879 84.0942 14.9853 84.4365 15.0687 84.7973Z" fill="white"/>
<path opacity="0.2" d="M10.8115 82.1226L3.33138 86.0509C3.26069 85.9566 3.19866 85.8597 3.14575 85.7615L10.2235 82.0439C10.4227 82.0651 10.6192 82.0913 10.8115 82.1226Z" fill="white"/>
<path opacity="0.2" d="M13.3149 82.9154L4.98284 87.2914C4.85279 87.2312 4.72763 87.168 4.60669 87.102L12.9301 82.7305C13.063 82.7889 13.1915 82.8507 13.3149 82.9154Z" fill="white"/>
<path d="M9.86206 86.7089V87.2411H8.57509V86.7329C7.66227 86.704 6.7768 86.5746 6.22925 86.3972L6.92286 85.5726C7.52533 85.7596 8.32855 85.8794 9.0315 85.8794C9.64308 85.8794 9.86206 85.8123 9.86206 85.6971C9.86206 85.2752 6.32951 85.6158 6.32951 84.3644C6.32951 83.8226 7.07804 83.3673 8.57509 83.257V82.7344H9.86206V83.2475C10.5377 83.281 11.1948 83.3722 11.715 83.5256L11.067 84.3453C10.4372 84.1774 9.84383 84.096 9.28693 84.096C8.65712 84.096 8.45615 84.1919 8.45615 84.307C8.45615 84.7098 11.9887 84.3742 11.9887 85.6111C11.9889 86.1286 11.2769 86.5793 9.86206 86.7089Z" fill="#840FAF"/>
<path d="M9.82495 86.5314V87.0634H8.53798V86.5552C7.62517 86.5265 6.73969 86.3969 6.19214 86.2197L6.88575 85.3949C7.48822 85.5819 8.29144 85.7017 8.99439 85.7017C9.60597 85.7017 9.82495 85.6346 9.82495 85.5194C9.82495 85.0974 6.2924 85.438 6.2924 84.1866C6.2924 83.6449 7.04093 83.1896 8.53798 83.0791V82.5566H9.82495V83.0695C10.5003 83.1031 11.1577 83.1942 11.6779 83.3476L11.0299 84.1675C10.4001 83.9997 9.80672 83.9181 9.24982 83.9181C8.62001 83.9181 8.41926 84.0139 8.41926 84.1291C8.41926 84.5317 11.9518 84.1962 11.9518 85.4331C11.9518 85.9511 11.2397 86.4018 9.82495 86.5314Z" fill="#9100C6"/>
<path d="M18.4673 84.6209C18.4676 84.6325 18.4676 84.6436 18.4676 84.6552C18.4676 85.0754 18.3264 85.4793 18.0663 85.8561C18.0027 85.9486 17.932 86.0389 17.8549 86.1273C17.6383 86.3754 17.3691 86.6095 17.0537 86.8267C16.9854 86.8739 16.9147 86.9199 16.842 86.9652C16.5975 87.1184 16.3296 87.2611 16.0408 87.3934C15.9717 87.4252 15.9012 87.4565 15.8294 87.4868C15.5764 87.5944 15.3087 87.6937 15.0279 87.7845C14.9581 87.8071 14.8879 87.8291 14.8165 87.8505C14.5593 87.9278 14.2919 87.9979 14.0153 88.0601C13.9453 88.0761 13.875 88.0912 13.8039 88.1061C13.5438 88.1597 13.2766 88.2068 13.0027 88.2466C12.9324 88.2569 12.8622 88.2666 12.7913 88.2755C12.5296 88.3098 12.2619 88.3369 11.99 88.3571C11.9198 88.3622 11.8495 88.3671 11.7786 88.3714C11.5154 88.3871 11.2482 88.3965 10.9774 88.3989C10.9305 88.3994 10.8832 88.3996 10.8358 88.3996C10.8125 88.3996 10.7891 88.3996 10.7658 88.3991C10.495 88.3983 10.2278 88.39 9.96434 88.3756C9.89342 88.3718 9.82295 88.3671 9.75269 88.3622C9.55239 88.3482 9.35431 88.3302 9.15912 88.3089C9.08931 88.3013 9.02018 88.2933 8.95148 88.2847C8.88056 88.276 8.81009 88.2664 8.74006 88.2564C8.46639 88.2184 8.19895 88.1728 7.93885 88.1206C7.86771 88.1064 7.79723 88.0917 7.72743 88.0759C7.56158 88.0397 7.39929 88.0005 7.2399 87.9587C7.13385 87.931 7.02937 87.9018 6.92621 87.8716C6.85507 87.8507 6.78438 87.8291 6.71479 87.8071C6.43446 87.7189 6.16679 87.6217 5.91336 87.5168C5.86334 87.4961 5.81376 87.475 5.76463 87.4537C5.74351 87.4445 5.72261 87.4352 5.70172 87.4259C5.58723 87.375 5.47563 87.322 5.36758 87.2676C5.20396 87.1849 5.04812 87.0988 4.9005 87.0097C4.82803 86.9655 4.75756 86.9208 4.68886 86.8754C4.41853 86.6956 4.18021 86.5035 3.97813 86.301C3.947 86.2698 3.91677 86.2385 3.88765 86.2069C3.85097 86.1676 3.81562 86.1278 3.78183 86.0878C3.7447 86.0442 3.7098 85.9999 3.67601 85.9553C3.37033 85.5509 3.20337 85.1127 3.20337 84.6558C3.20337 84.6238 3.20426 84.5918 3.20626 84.5596L3.20693 81.9721L3.67601 81.971L3.88742 81.9703L4.68864 81.9685L4.90028 81.9679L5.52565 81.9665L5.70149 81.9661L5.91314 81.9654L6.71457 81.9636L6.92599 81.9634L7.72721 81.9614L7.93863 81.961L8.73984 81.959L8.95126 81.9588L9.75247 81.957L9.96411 81.9563L10.7655 81.9545L10.977 81.9539L11.7782 81.9521L11.9896 81.9516L12.7908 81.9496L13.0022 81.9494L13.8034 81.9474L14.0149 81.9472L14.8161 81.9454L15.0275 81.9448L15.8289 81.943L16.0404 81.9423H16.0926L16.8416 81.9405L17.0532 81.9401L17.8544 81.9381L18.0658 81.9376L18.4642 81.9365L18.4671 84.6221L18.4673 84.6209Z" fill="#BD19FA"/>
<path d="M3.88767 81.9697V86.2061C3.85099 86.1668 3.81564 86.127 3.78185 86.087C3.74472 86.0434 3.70982 85.9991 3.67603 85.9545V81.9704L3.88767 81.9697Z" fill="#840FAF"/>
<path d="M4.90012 81.9668V87.0086C4.82764 86.9644 4.75717 86.9197 4.68848 86.8743V81.9675L4.90012 81.9668Z" fill="#840FAF"/>
<path d="M5.91306 81.9648V87.5164C5.86304 87.4958 5.81346 87.4746 5.76433 87.4533C5.74321 87.4442 5.72231 87.4348 5.70142 87.4255V81.9657L5.91306 81.9648Z" fill="#840FAF"/>
<path d="M6.92602 81.9629V87.8713C6.85488 87.8504 6.78418 87.8288 6.7146 87.8068V81.9631L6.92602 81.9629Z" fill="#840FAF"/>
<path d="M7.93847 81.96V88.12C7.86733 88.1058 7.79686 88.0911 7.72705 88.0753V81.9604L7.93847 81.96Z" fill="#840FAF"/>
<path d="M8.95165 81.958V88.2846C8.88074 88.2759 8.81026 88.2663 8.74023 88.2563V81.9585L8.95165 81.958Z" fill="#840FAF"/>
<path d="M9.9636 81.9551V88.375C9.89268 88.3712 9.8222 88.3666 9.75195 88.3617V81.9557L9.9636 81.9551Z" fill="#840FAF"/>
<path d="M10.9773 81.9531V88.3988C10.9304 88.3993 10.883 88.3995 10.8357 88.3995C10.8123 88.3995 10.789 88.3995 10.7656 88.3991V81.9538L10.9773 81.9531Z" fill="#840FAF"/>
<path d="M11.9895 81.9512V88.3571C11.9192 88.3622 11.849 88.3671 11.7781 88.3713V81.9514L11.9895 81.9512Z" fill="#840FAF"/>
<path d="M13.0027 81.9482V88.2461C12.9324 88.2564 12.8622 88.2661 12.7913 88.275V81.9485L13.0027 81.9482Z" fill="#840FAF"/>
<path d="M14.0151 81.9463V88.0601C13.9451 88.0761 13.8749 88.0912 13.8037 88.1061V81.9465L14.0151 81.9463Z" fill="#840FAF"/>
<path d="M15.0276 81.9443V87.7852C14.9578 87.8078 14.8875 87.8298 14.8162 87.8512V81.945L15.0276 81.9443Z" fill="#840FAF"/>
<path d="M16.0408 81.9414V87.3936C15.9716 87.4254 15.9012 87.4568 15.8293 87.487V81.9421L16.0408 81.9414Z" fill="#840FAF"/>
<path d="M17.0534 81.9395V86.8272C16.9852 86.8743 16.9145 86.9204 16.8418 86.9657V81.9399L17.0534 81.9395Z" fill="#840FAF"/>
<path d="M18.0662 81.9365V85.8561C18.0026 85.9486 17.9319 86.0389 17.8547 86.1273V81.9367L18.0662 81.9365Z" fill="#840FAF"/>
<path d="M18.466 81.9742C18.466 84.1873 15.0506 85.9816 10.836 85.9816C10.2602 85.9816 9.69933 85.948 9.16 85.8845C8.48173 85.8046 7.83769 85.6775 7.241 85.5096C6.70834 85.36 6.21348 85.1779 5.76596 84.9688C5.62924 84.9049 5.49674 84.8385 5.36913 84.7696C4.80802 84.467 4.3376 84.1182 3.98035 83.7349C3.91032 83.6602 3.84474 83.584 3.78404 83.5066C3.41145 83.0346 3.20581 82.5169 3.20581 81.974C3.20581 81.9244 3.20759 81.8748 3.21204 81.8253C3.3601 79.6811 6.71701 77.9668 10.836 77.9668C11.8498 77.9668 12.817 78.0706 13.7018 78.2591C13.8728 78.2956 14.0407 78.3349 14.2052 78.3779C14.9239 78.5639 15.5784 78.8076 16.1473 79.0975C16.2727 79.1613 16.3938 79.2273 16.5108 79.2956C16.9263 79.5383 17.2862 79.8075 17.5799 80.0983C17.8827 80.398 18.1152 80.7204 18.2659 81.0594C18.376 81.3068 18.4422 81.5631 18.4602 81.8259C18.4644 81.8748 18.466 81.9246 18.466 81.9742Z" fill="#9100C6"/>
<path opacity="0.3" d="M18.2654 81.0587L9.15972 85.8844C8.48145 85.8046 7.83741 85.6775 7.24072 85.5096L17.5794 80.0977C17.8822 80.3976 18.1147 80.7199 18.2654 81.0587Z" fill="white"/>
<path opacity="0.3" d="M14.2048 78.3775L3.98024 83.7348C3.91021 83.6601 3.84463 83.5838 3.78394 83.5065L13.7015 78.2588C13.8725 78.2952 14.0403 78.3348 14.2048 78.3775Z" fill="white"/>
<path opacity="0.3" d="M16.5101 79.2957L5.76572 84.9694C5.629 84.9056 5.4965 84.8391 5.3689 84.7702L16.1468 79.0977C16.2722 79.1615 16.3934 79.2275 16.5101 79.2957Z" fill="white"/>
<path d="M16.9343 81.9746C16.9343 82.0237 16.9316 82.0728 16.9283 82.1215C16.7811 83.8198 14.1051 85.1774 10.8358 85.1774C7.56668 85.1774 4.89048 83.8198 4.74331 82.1215C4.73997 82.0728 4.7373 82.0237 4.7373 81.9746C4.7373 80.2083 7.47286 78.7715 10.8358 78.7715C14.1987 78.7715 16.9343 80.2085 16.9343 81.9746Z" fill="#840FAF"/>
<path d="M16.9281 82.1216C16.7809 83.8198 14.105 85.1775 10.8356 85.1775C10.7625 85.1775 10.69 85.1766 10.6178 85.1752C9.88858 85.1619 9.19164 85.081 8.54849 84.9438C7.90511 84.8067 7.31643 84.6135 6.804 84.3758C6.67395 84.3156 6.54878 84.2524 6.42785 84.1864C5.88163 83.8856 5.44434 83.5299 5.15244 83.1358C5.08175 83.0415 5.01972 82.9446 4.96703 82.8463C4.8412 82.6142 4.7654 82.3717 4.74316 82.1218C4.89033 80.4235 7.56653 79.0654 10.8356 79.0654C11.2491 79.0654 11.6533 79.0872 12.0448 79.1288C12.244 79.1499 12.4405 79.1761 12.6328 79.2075C13.4182 79.3349 14.1363 79.5436 14.7514 79.8148C14.8842 79.8735 15.0127 79.9351 15.136 79.9998C15.6151 80.2501 16.0157 80.542 16.3163 80.8642C16.6091 81.1783 16.8065 81.5207 16.8899 81.8815C16.9085 81.9604 16.9214 82.0409 16.9281 82.1216Z" fill="#BD19FA"/>
<path opacity="0.2" d="M16.8897 81.8804L10.6176 85.1746C9.88844 85.1612 9.19149 85.0803 8.54834 84.9432L16.3162 80.8633C16.6089 81.1774 16.8064 81.5198 16.8897 81.8804Z" fill="white"/>
<path opacity="0.2" d="M12.6328 79.2076L5.15269 83.1359C5.082 83.0416 5.01997 82.9447 4.96729 82.8464L12.045 79.1289C12.244 79.1498 12.4405 79.1763 12.6328 79.2076Z" fill="white"/>
<path opacity="0.2" d="M15.1364 79.9996L6.80437 84.3756C6.67432 84.3154 6.54916 84.2523 6.42822 84.1862L14.7518 79.8145C14.8845 79.8731 15.013 79.9347 15.1364 79.9996Z" fill="white"/>
<path d="M11.6838 83.7919V84.3241H10.3969V83.8159C9.48405 83.787 8.59858 83.6576 8.05103 83.4802L8.74486 82.6556C9.34733 82.8426 10.1505 82.9624 10.8535 82.9624C11.4651 82.9624 11.6841 82.8953 11.6841 82.7801C11.6841 82.3582 8.15151 82.6988 8.15151 81.4474C8.15151 80.9056 8.90004 80.4503 10.3971 80.34V79.8174H11.6841V80.3305C12.3597 80.364 13.0168 80.4552 13.537 80.6086L12.889 81.4283C12.2592 81.2604 11.6658 81.179 11.1089 81.179C10.4791 81.179 10.2782 81.2749 10.2782 81.39C10.2782 81.7929 13.8107 81.4572 13.8107 82.6941C13.8107 83.2119 13.0986 83.6625 11.6838 83.7919Z" fill="#840FAF"/>
<path d="M11.6465 83.6144V84.1464H10.3595V83.6382C9.4467 83.6095 8.56123 83.4799 8.01367 83.3027L8.70729 82.4779C9.30975 82.6649 10.113 82.7847 10.8159 82.7847C11.4275 82.7847 11.6465 82.7176 11.6465 82.6024C11.6465 82.1805 8.11393 82.521 8.11393 81.2696C8.11393 80.7279 8.86246 80.2726 10.3595 80.1621V79.6396H11.6465V80.1525C12.3219 80.1861 12.9792 80.2772 13.4995 80.4306L12.8514 81.2505C12.2216 81.0827 11.6282 81.0011 11.0714 81.0011C10.4415 81.0011 10.2408 81.0969 10.2408 81.2121C10.2408 81.6149 13.7733 81.2792 13.7733 82.5161C13.7733 83.0344 13.0613 83.4848 11.6465 83.6144Z" fill="#9100C6"/>
<path d="M53.6242 93.7693C54.4924 91.8731 50.8952 88.3666 45.5896 85.9373C40.284 83.508 35.2791 83.0758 34.4109 84.972C33.5427 86.8681 37.1399 90.3746 42.4455 92.8039C47.7512 95.2332 52.756 95.6654 53.6242 93.7693Z" fill="#E5E5E5"/>
<path d="M49.4383 78.0575L39.6848 72.3672L38.0681 73.3109L47.8127 78.937L49.4383 78.0575Z" fill="#840FAF"/>
<path d="M47.8126 78.9366L38.068 73.3105L36.4204 87.3909L47.8179 93.9327L47.8126 78.9366Z" fill="#9100C6"/>
<path d="M40.5429 76.1511C40.5447 76.3769 40.3824 76.4636 40.1806 76.3449C39.9787 76.226 39.8133 75.9465 39.8115 75.7207C39.8098 75.4948 39.972 75.4081 40.1739 75.5268C40.376 75.6457 40.5412 75.9252 40.5429 76.1511Z" fill="#840FAF"/>
<path d="M45.4521 79.0397C45.4539 79.2656 45.2918 79.3525 45.0898 79.2336C44.8877 79.1147 44.7225 78.8352 44.7207 78.6093C44.7189 78.3835 44.881 78.2968 45.0831 78.4155C45.2849 78.5344 45.4503 78.8139 45.4521 79.0397Z" fill="#840FAF"/>
<path d="M47.8176 93.9332L51.0636 92.094L49.4378 78.0576L47.8123 78.9371L47.8176 93.9332Z" fill="#BD19FA"/>
<path d="M46.4363 77.6882C46.551 77.6882 46.6504 77.6024 46.6644 77.4857C46.6713 77.4272 46.8343 76.0375 46.6726 74.4331C46.577 73.4832 46.3861 72.6573 46.1055 71.9783C45.7458 71.1082 45.2358 70.4751 44.59 70.0965C43.912 69.6992 43.3108 69.6452 42.8031 69.9362C41.3142 70.7892 41.2971 74.4155 41.2971 74.5694C41.2971 74.6963 41.4 74.7993 41.527 74.7993C41.6539 74.7993 41.7569 74.6963 41.7571 74.5694C41.7575 73.5945 41.9872 70.9332 43.0318 70.335C43.3911 70.1291 43.8248 70.1809 44.3575 70.4931C46.836 71.9454 46.2142 77.3756 46.2078 77.4303C46.1927 77.5564 46.2825 77.6709 46.4087 77.686C46.4179 77.6875 46.4272 77.6882 46.4363 77.6882Z" fill="#840FAF"/>
<path d="M38.5829 81.5794C38.5551 83.409 40.0748 85.8209 41.9707 86.9556C43.8664 88.0903 45.431 87.5247 45.4588 85.6948C45.4866 83.865 43.9669 81.4534 42.0712 80.3187C40.1753 79.184 38.6107 79.7495 38.5829 81.5794ZM40.4937 83.9595C40.3867 83.5313 40.3309 83.1036 40.3276 82.687L41.8816 83.6171L41.864 84.7798L40.4937 83.9595ZM41.2775 86.1957C40.4072 85.483 39.6727 84.5039 39.2416 83.4795L40.2887 84.1062C40.427 84.5851 40.6224 85.061 40.8703 85.5214C40.9954 85.7538 41.1319 85.9801 41.2775 86.1957ZM41.86 85.0466L41.8364 86.6028C41.7331 86.4812 41.4067 86.0775 41.0832 85.4739C40.876 85.087 40.708 84.6867 40.5835 84.2825L41.86 85.0466ZM40.7064 81.2017C41.085 80.637 41.6315 80.4774 41.8058 80.4396C41.8469 80.4609 41.888 80.483 41.9289 80.5059L41.9076 81.9204L40.7064 81.2017ZM39.377 80.406C39.8276 80.0019 40.529 79.9374 41.3227 80.226C41.1648 80.2915 41.0161 80.3778 40.8798 80.483C40.6918 80.6279 40.5317 80.8089 40.4043 81.021L39.377 80.406ZM40.3334 82.4209C40.3556 82.0334 40.4419 81.6906 40.5897 81.4011L41.9036 82.1874L41.886 83.3501L40.3334 82.4209ZM38.8697 81.5449C38.9039 81.1541 39.0202 80.8293 39.2156 80.5788L40.296 81.2255C40.158 81.5234 40.0775 81.8695 40.0566 82.2555L38.8697 81.5449ZM40.051 82.5213C40.0539 82.9351 40.1057 83.3606 40.2056 83.7872L39.1071 83.1298C38.945 82.6616 38.8617 82.2174 38.8594 81.8084L40.051 82.5213ZM43.9566 84.8592L45.1805 85.5917C45.1658 85.9907 45.0709 86.3282 44.8975 86.5957L43.767 85.9189C43.8777 85.6184 43.9415 85.262 43.9566 84.8592ZM42.1839 82.086L42.2053 80.6715C42.2346 80.6901 42.2637 80.7093 42.2928 80.7286C42.4107 80.8969 42.6961 81.3244 42.9789 81.8995C43.1247 82.1957 43.2506 82.4935 43.3535 82.7863L42.1839 82.086ZM43.4618 83.1202C43.598 83.5811 43.6721 84.0199 43.6825 84.4254L42.1623 83.5155L42.1799 82.3528L43.4618 83.1202ZM43.6547 82.9666C43.536 82.6071 43.3844 82.2399 43.2039 81.8742C43.0707 81.6043 42.9242 81.3384 42.7677 81.0819C43.5734 81.7435 44.2752 82.6512 44.7138 83.6007L43.6547 82.9666ZM43.6801 84.6936C43.6643 85.1002 43.5969 85.4541 43.4793 85.7466L42.1406 84.9452L42.1581 83.7825L43.6801 84.6936ZM43.9591 84.5913C43.95 84.1873 43.8813 83.7518 43.7548 83.2959L44.8672 83.9617C45.052 84.4403 45.1564 84.8972 45.1782 85.3209L43.9591 84.5913ZM44.755 86.7795C44.2985 87.2755 43.5151 87.3611 42.6316 87.0149C42.7848 86.976 42.9293 86.9151 43.062 86.8333C43.319 86.675 43.5253 86.4396 43.6756 86.1335L44.755 86.7795ZM43.3804 85.9567C42.9842 86.6846 42.3242 86.7486 42.1132 86.7495L42.1366 85.2122L43.3804 85.9567Z" fill="#BD19FA"/>
<path d="M45.0865 79.0554C45.2012 79.0554 45.3006 78.9696 45.3146 78.8529C45.3215 78.7944 45.4844 77.4047 45.3228 75.8003C45.2272 74.8504 45.0362 74.0245 44.7557 73.3455C44.396 72.4754 43.886 71.8422 43.2402 71.4636C42.5623 71.0664 41.961 71.0123 41.4532 71.3034C39.9644 72.1564 39.9475 75.7827 39.9475 75.9368C39.9475 76.0637 40.0504 76.1667 40.1774 76.1667C40.3043 76.1667 40.4073 76.0637 40.4075 75.9368C40.4079 74.9619 40.6376 72.3006 41.6822 71.7024C42.0415 71.4965 42.4752 71.5483 43.0079 71.8605C45.4864 73.3128 44.8648 78.743 44.8582 78.7977C44.843 78.9238 44.9329 79.0383 45.0591 79.0534C45.0683 79.0547 45.0774 79.0554 45.0865 79.0554Z" fill="#BD19FA"/>
<path d="M24.2534 23.9482L25.0322 25.652V24.3978L24.2534 23.9482Z" fill="#BD19FA"/>
<path d="M25.032 25.6518L25.4179 25.4288V24.62L25.0326 24.3975L25.032 25.6518Z" fill="#7F07AB"/>
<path d="M28.6494 19.7012V25.3655L27.6699 25.9308L27.7551 20.2216L28.6494 19.7012Z" fill="#7F07AB"/>
<path d="M22.6836 17.292V23.0506L27.6705 25.9297L27.7557 20.2205L22.6836 17.292Z" fill="#BD19FA"/>
<path d="M28.65 19.7008L23.578 16.7725L22.6836 17.2927L27.7557 20.2212L28.65 19.7008Z" fill="#840FAF"/>
<path d="M23.5688 20.6236C23.5554 21.5022 24.2851 22.6602 25.1954 23.2049C26.1056 23.7498 26.8568 23.4781 26.8701 22.5995C26.8835 21.7209 26.1538 20.5629 25.2437 20.0182C24.3335 19.4736 23.5821 19.745 23.5688 20.6236ZM24.4863 21.7663C24.4349 21.5606 24.4082 21.3552 24.4065 21.1552L25.1525 21.6018L25.1441 22.16L24.4863 21.7663ZM24.8626 22.8401C24.4447 22.4979 24.0921 22.0277 23.8851 21.536L24.388 21.837C24.4543 22.0669 24.5483 22.2954 24.6672 22.5164C24.727 22.628 24.7928 22.7365 24.8626 22.8401ZM25.1423 22.2883L25.131 23.0355C25.0814 22.977 24.9247 22.7831 24.7693 22.4935C24.6699 22.3078 24.5892 22.1155 24.5294 21.9215L25.1423 22.2883ZM24.5883 20.4422C24.7702 20.1712 25.0325 20.0945 25.1161 20.0763C25.1359 20.0865 25.1556 20.0972 25.1752 20.1081L25.165 20.7872L24.5883 20.4422ZM23.9501 20.0603C24.1664 19.8662 24.5032 19.8353 24.8842 19.9738C24.8084 20.0054 24.737 20.0467 24.6715 20.0972C24.5812 20.1667 24.5043 20.2537 24.4431 20.3555L23.9501 20.0603ZM24.4093 21.0278C24.42 20.8417 24.4614 20.6772 24.5323 20.5382L25.163 20.9157L25.1545 21.4739L24.4093 21.0278ZM23.7066 20.6072C23.7231 20.4195 23.7789 20.2637 23.8727 20.1432L24.3916 20.4538C24.3253 20.5967 24.2866 20.763 24.2766 20.9482L23.7066 20.6072ZM24.2737 21.0758C24.2751 21.2745 24.3 21.4788 24.348 21.6836L23.8207 21.3679C23.7429 21.1431 23.7028 20.9297 23.7017 20.7334L24.2737 21.0758ZM26.1489 22.1982L26.7365 22.5499C26.7294 22.7416 26.6838 22.9036 26.6007 23.0319L26.058 22.7071C26.1112 22.5628 26.1416 22.3919 26.1489 22.1982ZM25.2977 20.8668L25.3079 20.1876C25.3219 20.1965 25.3359 20.2059 25.35 20.215C25.4064 20.2957 25.5436 20.5011 25.6794 20.7772C25.7494 20.9193 25.8099 21.0624 25.8593 21.2029L25.2977 20.8668ZM25.9113 21.3635C25.9767 21.5847 26.0122 21.7954 26.0173 21.9902L25.2875 21.5533L25.2959 20.9951L25.9113 21.3635ZM26.004 21.2896C25.9469 21.1171 25.8742 20.9406 25.7875 20.7652C25.7234 20.6356 25.6532 20.508 25.578 20.3848C25.9649 20.7025 26.3019 21.1383 26.5124 21.5942L26.004 21.2896ZM26.0162 22.1189C26.0087 22.3141 25.9762 22.4841 25.9197 22.6244L25.277 22.2396L25.2855 21.6814L26.0162 22.1189ZM26.1501 22.0697C26.1456 21.8759 26.1127 21.6667 26.052 21.4477L26.586 21.7674C26.6747 21.9973 26.725 22.2167 26.7352 22.4201L26.1501 22.0697ZM26.5322 23.1204C26.313 23.3585 25.9369 23.3996 25.5127 23.2333C25.5863 23.2147 25.6556 23.1855 25.7194 23.1462C25.8428 23.0701 25.942 22.9572 26.014 22.81L26.5322 23.1204ZM25.8724 22.7253C25.6821 23.0748 25.3653 23.1055 25.2639 23.1059L25.275 22.3679L25.8724 22.7253Z" fill="white"/>
<path d="M68.3589 22.9814L69.1376 24.6852V23.431L68.3589 22.9814Z" fill="#BD19FA"/>
<path d="M69.1367 24.6859L69.5227 24.4629V23.6542L69.1374 23.4316L69.1367 24.6859Z" fill="#7F07AB"/>
<path d="M72.7549 18.7334V24.3977L71.7754 24.9633L71.8605 19.2538L72.7549 18.7334Z" fill="#7F07AB"/>
<path d="M66.7886 16.3252V22.0835L71.7755 24.9629L71.8606 19.2535L66.7886 16.3252Z" fill="#BD19FA"/>
<path d="M72.755 18.733L67.6829 15.8047L66.7886 16.3251L71.8606 19.2534L72.755 18.733Z" fill="#840FAF"/>
<path d="M67.8886 19.4148C67.885 19.6536 67.9564 19.939 68.1038 20.2134L69.1095 22.0863L70.1515 21.4832C70.3042 21.3947 70.3825 21.2024 70.386 20.9634C70.3896 20.7247 70.3182 20.4392 70.171 20.1653C69.8963 19.6536 69.4694 19.4506 69.1426 19.8248C68.8327 19.0558 68.4074 18.7305 68.1229 18.8953C67.9704 18.9835 67.8921 19.1761 67.8886 19.4148Z" fill="white"/>
<path d="M93.667 36.001L92.8884 37.7048V36.4505L93.667 36.001Z" fill="#BD19FA"/>
<path d="M92.8889 37.7045L92.5029 37.4815V36.6727L92.8882 36.4502L92.8889 37.7045Z" fill="#7F07AB"/>
<path d="M89.0337 31.8828V37.5471L90.0132 38.1124L89.9281 32.4032L89.0337 31.8828Z" fill="#7F07AB"/>
<path d="M95.0003 29.4746V35.2332L90.0134 38.1123L89.9282 32.4031L95.0003 29.4746Z" fill="#BD19FA"/>
<path d="M92.7935 34.8239L92.7959 35.2491L92.3051 35.5473L92.3026 35.1411C91.9545 35.3296 91.6161 35.4312 91.4065 35.4165L91.667 34.5967C91.8976 34.6067 92.2046 34.5162 92.4727 34.3535C92.7059 34.2118 92.7891 34.1073 92.7886 34.0153C92.7866 33.6781 91.4412 34.7687 91.4352 33.7685C91.4325 33.3355 91.716 32.7982 92.2862 32.3631L92.2837 31.9456L92.7746 31.6475L92.777 32.0574C93.0349 31.9278 93.2859 31.8482 93.4851 31.8504L93.2419 32.6559C93.0009 32.6677 92.7742 32.7401 92.5619 32.8691C92.3215 33.0149 92.2455 33.1383 92.2462 33.2301C92.2482 33.552 93.5936 32.4651 93.5996 33.4537C93.6018 33.8675 93.3326 34.3926 92.7935 34.8239Z" fill="white"/>
<path d="M89.0337 31.8834L94.1058 28.9551L95.0001 29.4753L89.9281 32.4038L89.0337 31.8834Z" fill="#840FAF"/>
</svg>
