<svg width="127" height="106" viewBox="0 0 127 106" fill="none" xmlns="http://www.w3.org/2000/svg">
<path d="M97.2782 35.8297C94.0791 36.3213 91.235 38.6543 90.1231 41.6935C89.6822 42.8991 89.5144 44.288 90.0723 45.4467C90.5756 46.4883 91.5822 47.1867 92.5965 47.7446C95.2534 49.2076 98.714 49.8865 101.41 48.8487C102.736 48.3376 102.682 46.4337 101.344 45.9422C100.052 45.4701 98.6671 45.3725 97.329 46.0475C96.0883 46.6717 95.3509 48.0567 95.6982 49.4027C96.2405 51.5017 98.8388 51.9269 100.934 51.9191C104.098 51.9113 107.516 51.6109 109.907 49.5432C110.543 48.9931 111.097 48.3142 111.362 47.5144C111.78 46.2543 111.448 44.8849 111.136 43.5935C110.137 39.4307 109.4 35.2055 108.936 30.949C108.573 27.6562 108.526 23.8992 110.851 21.5388C111.998 20.3723 113.574 19.7325 115.151 19.3072C118.638 18.367 122.77 18.4918 125.364 21.0043C126.461 22.0655 126.87 24.3713 125.392 24.7614" stroke="#840FAF" stroke-linecap="round" stroke-linejoin="round"/>
<path d="M124.546 30.8004C123.692 34.6589 119.56 36.8046 117.527 40.195C114.523 45.2083 116.65 51.6807 115.522 57.4158C114.203 64.1379 108.64 69.0771 103.4 73.4896C97.556 78.4093 91.7156 83.3289 85.8713 88.2486C85.0676 88.9236 84.2132 89.6258 83.1754 89.7975C82.1259 89.9691 81.0764 89.5673 80.0972 89.1577C68.3812 84.2926 57.3715 77.7226 47.5243 69.7208C42.0857 65.3005 36.854 60.2404 34.162 53.7719C31.2359 46.7376 30.0889 39.6644 31.5832 32.1971C32.0513 29.8601 33.4519 28.28 34.0723 28.2137C35.9059 28.0226 40.0024 30.3244 34.6614 42.7543C32.8316 47.0146 29.2111 50.2216 26.2031 53.7485C13.8825 68.1915 6.21619 86.0755 1 104.33" stroke="#840FAF" stroke-linecap="round" stroke-linejoin="round"/>
<path d="M68.2997 62.335C70.7381 56.0576 72.7512 49.5032 72.9034 42.7694C73.0556 36.0356 71.1751 29.052 66.6377 24.0738C64.8353 22.0958 62.5452 20.426 59.9078 19.9656C57.2704 19.5092 54.2742 20.5001 52.9126 22.8059C51.036 25.9855 52.8189 30.0976 55.2144 32.9066C58.6554 36.9407 63.4425 39.8784 68.6665 40.768C73.8905 41.6575 79.5124 40.4129 83.6674 37.1162C87.9121 33.7454 90.448 27.7724 88.4934 22.7161C86.9056 18.6001 82.8793 15.9979 78.9857 13.9263C81.666 17.2698 85.0056 20.0866 88.7548 22.1621C90.1281 22.9229 92.4144 23.2194 92.7616 21.6862C93.0191 20.5431 91.7901 19.6691 90.7446 19.1463C84.8846 16.2242 79.0208 13.2981 73.1609 10.376" stroke="#840FAF" stroke-linecap="round" stroke-linejoin="round"/>
<path d="M101.509 14.5896C102.886 13.9888 104.528 12.8769 104.134 11.4295C103.955 10.7663 103.37 10.302 102.823 9.88454C100.623 8.21084 98.4225 6.53713 96.2221 4.86343C94.7279 3.72812 93.2102 2.5772 91.4702 1.87495C84.4438 -0.96528 76.3639 4.18068 69.0176 2.32751" stroke="#840FAF" stroke-linecap="round" stroke-linejoin="round"/>
<path d="M87.6031 61.4537C91.403 62.5266 95.4722 64.3525 96.9742 68.0042C97.341 68.8937 97.497 70.0056 96.8884 70.7508C96.4163 71.3243 95.6127 71.5155 94.8714 71.4881C92.7646 71.414 91.0012 69.9471 89.4172 68.5543C87.564 66.9274 85.7109 65.2966 83.8577 63.6697C81.3179 61.4381 78.5947 58.8476 78.3645 55.4768C82.7029 56.5926 87.2441 55.2115 91.7229 55.0554C93.1001 55.0086 94.5515 55.0944 95.7258 55.8162C96.9001 56.534 97.6843 58.0595 97.1576 59.3353C97.6687 58.317 99.2019 58.1609 100.119 58.8359C101.04 59.5108 101.406 60.732 101.395 61.8712C101.379 63.8687 100.322 65.8311 98.6675 66.9469C99.0303 65.203 97.4931 63.6931 96.0964 62.589C93.6854 60.6773 91.0558 58.7344 87.9893 58.473C86.1751 58.317 84.3571 58.7734 82.5351 58.7422C80.8536 58.711 79.3009 58.2038 77.791 57.5094C80.0733 60.0063 84.4897 60.5798 87.6031 61.4615V61.4537Z" stroke="#840FAF" stroke-linecap="round" stroke-linejoin="round"/>
<path d="M111.589 34.5383C112.635 35.2366 113.825 35.7555 114.683 36.6762C115.436 37.4838 115.885 38.5528 116.689 39.3136C117.508 40.0939 118.616 40.4762 119.689 40.8352C118.764 39.9768 117.992 38.9547 117.418 37.8311C116.895 36.805 116.486 35.6307 115.534 34.9791C114.933 34.5695 114.192 34.4329 113.501 34.1911C112.381 33.8009 111.445 33.0831 110.559 32.3301C109.588 33.165 110.723 33.957 111.589 34.5383Z" stroke="#840FAF" stroke-linecap="round" stroke-linejoin="round"/>
<path d="M10.2822 105.348C33.1601 94.5687 60.4154 93.4763 84.0852 102.391" stroke="#840FAF" stroke-linecap="round" stroke-linejoin="round"/>
</svg>
