<svg width="89" height="122" viewBox="0 0 89 122" fill="none" xmlns="http://www.w3.org/2000/svg">
<path d="M23.0614 15.5318C24.999 13.2535 26.9366 10.978 28.8769 8.69981C30.1005 7.26366 31.3595 5.79479 33.0109 4.88187C34.4744 4.0725 36.1503 3.75092 37.7936 3.44298C41.0393 2.83254 44.2876 2.22212 47.5333 1.61168C49.6562 1.21381 51.8227 0.813204 53.9647 1.0939C57.3793 1.54355 60.3143 3.65282 63.0857 5.69669C56.9214 6.50606 50.7544 7.31269 44.5901 8.12206C43.7262 8.23652 42.5654 8.9478 43.0777 9.65362C50.5855 8.92055 58.0933 8.18748 65.6011 7.45441C68.0319 7.21733 70.5827 6.99659 72.8336 7.94767C75.7659 9.18761 77.5536 12.1335 79.0797 14.9268C83.6552 23.2903 87.7702 32.2097 88.3861 41.7232C89.0047 51.2368 85.4865 61.5133 77.5263 66.7565C78.5837 65.0615 77.4882 62.6742 75.7359 61.715C73.9836 60.7557 71.8526 60.8674 69.8768 61.1618C68.2881 61.3988 66.544 61.7095 65.1705 60.8729C63.7616 60.0145 63.2302 58.1641 63.4264 56.5263C63.6226 54.8885 64.3993 53.3842 65.0806 51.8826C66.8683 47.9584 68.1055 43.6908 67.9093 39.3823C67.6586 33.8503 65.0424 28.6289 61.4997 24.3722C57.957 20.1155 53.5123 16.7145 49.0376 13.4552C47.5987 12.406 45.8628 11.3132 44.1568 11.8201C51.1932 17.5048 57.6927 23.8598 63.5354 30.7681C64.7999 32.2642 66.0562 33.8257 66.7075 35.6734C68.2908 40.1726 65.9608 44.988 64.1486 49.4027C62.3363 53.8175 61.2245 59.4667 64.5492 62.8868C66.8274 65.2304 71.0241 62.4562 73.7902 64.1949C75.537 65.2931 76.0766 67.6994 75.5779 69.7024C75.0792 71.7054 73.7602 73.3895 72.4385 74.9728C70.3183 77.51 67.9311 80.0689 64.7645 81.02C62.8187 81.6059 60.6086 81.4942 58.8727 80.4395C57.1367 79.3849 55.9813 77.3083 56.2892 75.2999C53.4551 79.9899 48.141 82.7477 42.7534 83.7478C37.3657 84.748 31.8228 84.2138 26.3697 83.6797C23.1159 83.3609 19.8594 83.0393 16.6055 82.7205C14.5453 82.5188 12.308 82.2354 10.8473 80.7693C9.68363 79.6002 9.25306 77.9078 8.87153 76.3027C8.13574 73.2178 7.40267 70.133 6.66688 67.0508C5.7921 63.3746 4.90916 59.573 5.56865 55.8504C6.10005 52.85 7.60979 50.0813 8.07307 47.0673C8.36466 45.1678 8.25838 43.1294 9.19856 41.4534C9.87712 40.2435 11.0217 39.3769 11.951 38.344C13.1636 36.9951 14.0139 35.3246 14.3954 33.5532C15.0276 30.6155 14.4526 27.2717 16.194 24.8246C17.3631 23.1786 19.3443 22.3201 20.7587 20.8812C22.1921 19.4233 23.1404 17.5756 23.0614 15.5345V15.5318Z" stroke="#840FAF" stroke-linecap="round" stroke-linejoin="round"/>
<path d="M30.8973 38.7332C29.2077 40.4201 28.8371 43.009 28.8399 45.399C28.8399 49.1134 29.5457 52.885 31.3524 56.1279C33.1619 59.3708 36.1514 62.0415 39.7377 63.0035C42.8608 63.8428 46.2972 63.3332 49.115 61.7472C51.9328 60.1611 54.1293 57.545 55.3393 54.5446C56.0832 52.7024 56.4647 50.6531 56.0314 48.7155C55.7698 47.5464 55.2221 46.4591 54.5817 45.4453C52.0881 41.502 48.0386 38.627 43.553 37.3979C39.8032 36.3678 33.9277 35.7056 30.8946 38.7332H30.8973Z" stroke="#840FAF" stroke-linecap="round" stroke-linejoin="round"/>
<path d="M1.60685 37.0168C0.871062 39.5212 0.715726 42.2681 1.63955 44.7099C2.56338 47.1516 4.68901 49.2173 7.26701 49.6315C10.1856 50.1002 12.9926 48.4978 15.5133 46.9527C17.0449 46.0152 18.5764 45.0778 20.0453 44.0504C21.9556 42.7123 23.8414 41.1072 24.6317 38.9135C25.8962 35.4089 23.9095 31.4166 20.9854 29.1056C17.9305 26.6939 12.7119 25.0206 9.10376 27.089C5.49565 29.1574 2.76232 33.0789 1.60685 37.0168Z" stroke="#840FAF" stroke-linecap="round" stroke-linejoin="round"/>
<path d="M29.1426 40.0749C29.3769 40.2875 29.6086 40.5872 29.5187 40.8897C29.1426 41.0069 28.7256 40.9088 28.3795 40.7181C28.0334 40.53 27.7391 40.2602 27.4339 40.0095C26.7581 39.4563 25.9569 38.974 25.0848 38.9821C24.706 38.9876 24.3299 39.0966 23.9893 39.2437C23.6923 38.2409 25.4227 38.6469 25.9378 38.7069C27.1287 38.8459 28.246 39.2574 29.1426 40.0749Z" stroke="#840FAF" stroke-linecap="round" stroke-linejoin="round"/>
<path d="M36.9819 36.3684C38.0938 36.7417 39.2356 37.1069 40.3965 37.1832C40.8353 37.2132 41.0178 36.6245 40.6336 36.412C40.3039 36.2321 39.9087 36.1204 39.5435 36.0359C36.2733 35.2811 33.0495 34.3218 29.8965 33.1691C28.305 32.5859 26.7299 31.9564 25.1765 31.2751C24.2336 30.8636 20.7154 28.5772 20.8817 29.5855C22.931 31.0353 26.7353 32.4796 29.0653 33.4252C31.6733 34.4853 34.314 35.4664 36.9819 36.3657V36.3684Z" stroke="#840FAF" stroke-linecap="round" stroke-linejoin="round"/>
<path d="M10.9975 61.0877C10.8421 60.747 10.7795 60.3655 10.8149 59.9921C12.4391 59.0247 14.0606 58.06 15.6847 57.0926C16.4205 56.6538 17.3661 56.2151 18.0829 56.6838C18.5352 56.9781 18.7451 57.564 19.2165 57.8229C19.7834 58.1336 20.4756 57.8692 21.1187 57.8311C22.5603 57.7466 23.7948 58.8285 24.6968 59.9567C26.6262 62.3685 27.858 65.3334 28.2068 68.402C27.065 67.7343 26.2474 66.6442 25.3209 65.7013C23.7212 64.0744 21.7182 62.8454 19.5436 62.1532C18.0802 61.6872 16.5513 61.4637 15.0334 61.243C13.6164 61.0359 11.9758 60.8942 10.9375 61.8807C10.8122 62.0006 10.695 62.145 10.6705 62.3167C10.6323 62.5974 10.8503 62.8454 11.0574 63.0389C14.8399 66.5979 20.2248 68.3829 25.3836 67.7861" stroke="#840FAF" stroke-linecap="round" stroke-linejoin="round"/>
<path d="M60.6365 76.2703C61.6339 76.72 61.3859 78.1943 60.9417 79.1917C57.6333 86.6096 52.3356 93.03 49.2698 100.551C48.7384 101.857 48.2697 103.219 48.2588 104.628C48.2506 106.037 48.7657 107.511 49.8885 108.364C50.676 108.961 51.668 109.198 52.6381 109.384C56.1454 110.062 59.7426 110.275 63.3044 110.016C64.6588 109.918 66.1495 109.681 67.0188 108.637C67.9671 107.498 67.8282 105.836 67.6047 104.369C66.7735 98.9463 65.4573 93.5941 63.6859 88.4C62.8384 85.9174 61.999 83.2767 60.7809 80.9467C60.3476 80.1155 59.7017 79.6413 59.6418 78.614C59.6254 78.3333 60.0751 76.0169 60.6365 76.2703Z" stroke="#840FAF" stroke-linecap="round" stroke-linejoin="round"/>
<path d="M17.3556 84.4316C16.6307 96.8256 16.132 109.65 20.5794 121.24" stroke="#840FAF" stroke-linecap="round" stroke-linejoin="round"/>
<path d="M50.275 49.9119C46.2254 50.7022 41.8488 49.6367 38.6168 47.0723C37.8237 46.4428 37.0798 45.7043 36.6737 44.7777C36.2677 43.8512 36.2541 42.7012 36.8454 41.8809C37.1724 41.4258 37.6493 41.1097 38.118 40.799C38.3987 40.6137 38.6903 40.4257 39.0201 40.3766C39.5215 40.303 40.0011 40.5619 40.4699 40.7527C41.7616 41.2787 43.2196 41.3331 44.4786 41.9327C45.258 42.306 45.9284 42.8701 46.5878 43.4288C47.9477 44.5842 49.3103 45.7397 50.6701 46.8925C51.0598 46.8734 51.3378 46.451 51.3269 46.0613C51.316 45.6689 51.0952 45.3173 50.8554 45.0067C49.1876 42.8374 46.457 41.8264 43.8736 40.9189C43.0042 40.6137 42.1377 40.3085 41.2683 40.0033C40.5598 39.7553 39.8458 39.5046 39.1018 39.401C38.0663 39.2566 36.9899 39.401 36.0333 39.8234" stroke="#840FAF" stroke-linecap="round" stroke-linejoin="round"/>
<path d="M27.0811 15.4659C29.7926 12.362 33.3435 9.99924 37.2568 8.70207C37.8591 8.50313 38.494 8.326 39.1181 8.43228C39.7422 8.53856 40.3499 9.00729 40.4125 9.63952C36.3384 10.2609 32.4442 12.0349 29.2994 14.7001C27.4844 16.2371 25.6531 18.3628 23.334 18.9841C24.7102 17.9376 25.9147 16.8012 27.0783 15.4686L27.0811 15.4659Z" stroke="#840FAF" stroke-linecap="round" stroke-linejoin="round"/>
<path d="M15.0113 32.7305C18.118 33.1937 21.0094 34.9678 22.8298 37.5295C22.2793 38.3143 21.1184 37.4859 20.4398 36.8073C19.2162 35.5837 17.5212 34.8452 15.7935 34.7825C15.5945 34.7743 15.3765 34.7825 15.2266 34.9133C14.9459 35.1558 15.0904 35.6137 14.995 35.9734C14.8887 36.3822 14.4799 36.6274 14.221 36.9599C13.3054 38.1344 14.5535 39.8867 15.9788 40.3227C17.4013 40.7588 18.9764 40.508 20.3826 40.9959" stroke="#840FAF" stroke-linecap="round" stroke-linejoin="round"/>
</svg>
