<svg width="99" height="123" viewBox="0 0 99 123" fill="none" xmlns="http://www.w3.org/2000/svg">
<path d="M88.7448 49.8856L88.4389 48.3884C88.2271 47.3412 87.074 46.7911 86.118 47.2706C81.9557 49.3679 78.0052 51.8888 74.3459 54.7804C73.8253 55.1922 73.2958 55.6305 73.0222 56.2335C72.781 56.7688 72.7693 57.3748 72.7663 57.9631C72.7428 63.0138 73.0958 68.0673 73.8253 73.0679C73.9371 73.8357 74.0518 74.6505 73.7341 75.3565C73.4164 76.0595 72.7222 76.5213 72.0074 76.8184C70.3366 77.5156 68.3834 77.492 66.7273 76.7596C66.1096 77.8303 65.4684 79.0099 65.6507 80.2335C65.8331 81.4572 67.3068 82.5074 68.3275 81.8102C68.7335 81.5337 69.0982 81.016 69.5718 81.1454C69.7512 81.1954 69.8895 81.3337 70.016 81.469C70.6102 82.1103 71.1249 82.8251 71.5456 83.5928C68.9659 85.043 65.8007 83.7428 62.9269 83.0251C61.6532 82.7074 60.3501 82.5103 59.0411 82.4368C57.6556 82.3603 56.1642 82.3926 55.0229 81.6073C54.5788 81.3013 54.1434 80.8572 53.561 81.0542C53.2404 81.1631 53.1021 81.4925 53.2962 81.769C53.4315 81.9661 53.6316 81.9485 53.814 81.9308C55.9319 81.719 58.0468 81.5102 60.1647 81.2984C61.0855 81.2072 62.0385 81.119 62.9122 81.4219C63.7299 81.7043 64.4035 82.3044 65.1977 82.6486C66.4597 83.1957 68.0098 83.0192 69.1188 82.2044" stroke="#840FAF" stroke-linecap="round" stroke-linejoin="round"/>
<path d="M54.5488 82.6338C56.7756 85.443 60.0054 87.4373 63.5147 88.1756C64.6619 88.4169 65.865 88.5257 66.9945 88.2109C68.527 87.7874 69.8096 86.5549 70.2949 85.0429" stroke="#840FAF" stroke-linecap="round" stroke-linejoin="round"/>
<path d="M88.5326 48.6621C89.8151 51.133 87.3118 53.7716 86.3029 56.366C84.9292 59.8929 86.4205 63.9052 85.7675 67.6321C85.1616 71.1002 82.1994 76.4744 79.7373 78.9924C73.5983 85.2667 71.651 91.4528 66.0415 97.9065C62.7793 101.657 56.1373 99.7509 52.3016 98.3183C44.5212 95.415 37.7644 89.8467 33.4315 82.7605C29.0986 75.6743 27.066 68.141 27.9573 59.8841C28.4191 55.6071 31.0371 53.6157 34.5023 53.1038C37.9674 52.592 41.5414 54.3305 43.7122 57.0779C45.8831 59.8253 46.7626 63.4404 46.6597 66.9409C46.5891 69.3735 45.8449 72.1091 43.674 73.2093C42.5386 73.7829 41.1943 73.7976 39.9471 73.5623C36.5496 72.921 32.8521 70.6148 31.4489 67.4556C30.7371 65.8554 30.4518 65.1848 30.6783 63.7199C30.7959 62.9492 32.1431 63.3051 31.5666 66.329C31.3577 67.4321 26.6513 83.7753 15.3381 108.458C14.3556 110.599 11.7259 115.218 10.6022 114.15C10.3139 113.873 10.3022 113.42 10.5051 113.079C13.3555 108.311 19.618 106.646 25.2305 106.475C39.597 106.043 53.6223 112.302 64.5649 121.624" stroke="#840FAF" stroke-linecap="round" stroke-linejoin="round"/>
<path d="M13.2589 28.1292C14.0354 25.3553 11.3733 22.4226 8.49651 22.3373C5.61674 22.252 3.01641 24.4229 1.88686 27.0703C0.757305 29.7177 0.854376 32.7357 1.36326 35.5713C2.90757 44.2224 8.99363 52.6411 17.63 54.2649C21.8864 55.065 26.2782 54.1737 30.4346 52.9559C46.8131 48.1582 61.6032 38.0893 72.0692 24.6082C74.0871 22.0108 75.9638 19.2693 78.3994 17.0573C80.832 14.8452 83.9501 13.1685 87.2387 13.2333C88.0888 13.2509 88.9566 13.3921 89.6979 13.8098C91.3069 14.7187 91.9687 16.8396 91.5363 18.6339C91.1039 20.4312 89.7626 21.899 88.2094 22.8962C87.6123 23.2874 86.7357 23.5198 86.1209 23.4433C85.6591 23.3875 85.4091 22.8727 85.6268 22.4638C86.0533 21.6578 87.1828 21.2343 88.1565 21.2843C91.8687 21.4755 94.0219 25.5201 95.1074 29.0764C96.4193 33.377 97.2812 37.8128 97.6694 42.2928C97.8842 44.7754 97.946 47.3405 97.1047 49.6849C95.3721 54.5149 90.1979 57.4682 88.4389 62.2894C88.0477 63.3601 87.8653 64.6367 88.5007 65.5839C88.9507 66.2605 89.7243 66.6311 90.4509 66.9988C93.8425 68.7108 97.1753 71.2523 98.1519 74.9233C99.6668 80.6123 94.7279 86.2277 89.2302 88.3309C86.6534 89.3163 83.8177 89.8576 81.6616 91.5784C79.5025 93.2992 78.4141 96.829 80.3526 98.7969" stroke="#840FAF" stroke-linecap="round" stroke-linejoin="round"/>
<path d="M47.208 49.2178C48.2434 50.8768 50.4496 51.4033 52.3998 51.2474C54.3501 51.0886 56.2268 50.4062 58.177 50.2591C58.9889 50.1973 59.8361 50.2385 60.5685 50.5915C61.7951 51.1827 62.4658 52.5035 63.0482 53.7331C61.8922 52.2211 60.5097 50.5797 58.6153 50.412C57.827 50.3414 57.0416 50.5444 56.2768 50.7474C55.6091 50.9239 54.9413 51.0974 54.2765 51.2739C54.0177 51.3416 53.7471 51.4151 53.55 51.5975C53.2676 51.8534 53.1941 52.2711 53.2264 52.6506C53.3058 53.6301 54.0265 54.5302 54.9678 54.8185C55.9091 55.1097 57.0092 54.7744 57.6299 54.0096C58.1211 53.4036 58.2859 52.48 57.8476 51.8328C57.3004 51.0268 56.1268 50.9709 55.1767 51.1827C54.7178 51.2827 54.1824 51.5269 54.1471 51.9946C54.103 52.5476 54.7795 52.8535 55.3296 52.9212C55.8061 52.98 56.3268 52.9741 56.721 52.6976C57.1151 52.4211 57.2799 51.7887 56.9357 51.4534" stroke="#840FAF" stroke-linecap="round" stroke-linejoin="round"/>
<path d="M89.6858 54.6734C88.321 55.7765 86.3766 55.8001 84.6499 55.4736C82.9262 55.147 81.2377 54.5264 79.4846 54.5234C77.7285 54.5234 75.7988 55.35 75.2252 57.0061C75.0899 57.3944 75.2311 57.8062 75.4958 58.1209C75.7606 58.4357 76.1459 58.6239 76.546 58.724C77.4431 58.9475 78.4403 58.7151 79.1492 58.1239C79.8581 57.5326 80.2611 56.5884 80.1994 55.6677C80.1846 55.4471 80.1317 55.2059 79.9552 55.0735" stroke="#840FAF" stroke-linecap="round" stroke-linejoin="round"/>
<path d="M77.7403 57.2395C78.4375 57.3807 79.2052 56.9512 79.4494 56.2835C79.517 56.0923 79.5494 55.8922 79.5729 55.6922C79.5876 55.5775 79.5964 55.4598 79.5729 55.348C79.4876 54.948 79.0111 54.7686 78.6022 54.7686C78.0374 54.7686 76.9344 55.1245 76.6726 55.7069C76.3755 56.3717 77.0961 57.11 77.7433 57.2424L77.7403 57.2395Z" stroke="#840FAF" stroke-linecap="round" stroke-linejoin="round"/>
<path d="M84.1796 55.9414C84.2031 57.2327 83.4265 58.5064 82.2676 59.08C82.0058 59.2095 81.7263 59.3065 81.4439 59.3801C79.8702 59.8036 78.1376 59.6095 76.6992 58.8447" stroke="#840FAF" stroke-linecap="round" stroke-linejoin="round"/>
<path d="M65.6102 73.1258C66.4986 73.1758 67.381 73.6494 67.8134 74.4289C67.8928 74.573 67.9576 74.7554 67.8723 74.8966C67.7722 75.0584 67.5428 75.0643 67.3575 75.0319C66.2368 74.8525 65.2219 74.0877 64.0924 74.1701C63.9159 74.1818 63.7394 74.2171 63.5629 74.1965C63.3893 74.1759 63.2629 74.12 63.2011 73.9612C63.7276 73.3464 64.8307 73.0817 65.6132 73.1258H65.6102Z" stroke="#840FAF" stroke-linecap="round" stroke-linejoin="round"/>
<path d="M51.046 50.8441C51.2078 50.1441 51.9667 49.7734 52.6609 49.5822C54.5994 49.0439 56.6614 49.138 58.6499 49.444C59.2677 49.5381 59.8971 49.6587 60.4384 49.9676C61.0032 50.2882 61.4356 50.7912 61.8562 51.2854C62.4063 51.9325 62.9593 52.5944 63.2799 53.3827" stroke="#840FAF" stroke-linecap="round" stroke-linejoin="round"/>
<path d="M76.2763 55.4001C78.0971 53.6205 80.9063 52.9292 83.3419 53.6616C84.1655 53.9087 84.9833 54.3411 85.4363 55.0765C85.4922 55.1648 85.4951 55.3324 85.3922 55.3236" stroke="#840FAF" stroke-linecap="round" stroke-linejoin="round"/>
<path d="M51.39 50.3184C51.1105 51.5803 51.6636 52.9334 52.6049 53.8188C53.5461 54.7042 54.8198 55.169 56.0994 55.3455C57.379 55.522 58.6791 55.4337 59.9675 55.3455C60.3441 55.319 60.7206 55.2925 61.0942 55.2425C61.3971 55.2013 61.7089 55.1396 61.956 54.9631C62.2031 54.7866 62.3737 54.463 62.2855 54.1718C62.1649 53.7717 61.5413 53.66 61.2912 53.9953C61.0412 54.3277 61.3236 54.8983 61.7413 54.9013" stroke="#840FAF" stroke-linecap="round" stroke-linejoin="round"/>
<path d="M13.106 27.1824C13.0825 27.606 13.0501 28.0502 12.8118 28.4002C12.5736 28.7502 12.047 28.9385 11.7146 28.6738C11.5529 28.5443 11.4705 28.3384 11.4234 28.1355C11.0822 26.6058 12.9207 25.0821 14.3591 25.7028C15.221 26.0734 15.7475 26.9735 15.9858 27.8795C16.227 28.7855 16.2387 29.7386 16.3976 30.6622C17.0212 34.2392 19.8892 37.1278 23.2043 38.6103C26.5194 40.0928 30.2434 40.3723 33.8733 40.3576C38.7445 40.3399 44.0481 39.6398 47.4603 36.1659C50.5607 33.0096 51.3343 27.8119 49.2929 23.8879C49.1134 23.5437 48.8752 23.1789 48.4957 23.0966C48.0133 22.9907 47.5721 23.3996 47.2985 23.8114C46.3337 25.2527 46.166 27.0706 45.4983 28.6738C44.3158 31.5094 41.4272 33.5538 38.3592 33.7244C37.2267 33.7891 36.0471 33.6008 35.1058 32.9655C34.1675 32.3301 33.5233 31.1888 33.6909 30.068C34.5322 30.1092 35.3147 29.315 35.2617 28.4737C35.247 28.2178 35.1646 27.9501 35.2617 27.7119C35.4323 27.2795 36.0147 27.2412 36.4795 27.2177C38.6798 27.1118 40.6036 25.7852 42.3979 24.5085C43.0686 24.032 43.8187 23.1966 43.3657 22.5112C41.5596 23.7025 39.6181 24.685 37.5885 25.4351C37.0384 25.6381 36.4707 25.8263 35.8824 25.8381C35.197 25.8528 34.5293 25.6234 33.888 25.3851C32.6378 24.9233 31.4053 24.4115 30.1934 23.8526C28.7138 23.1701 27.1901 22.3553 26.3459 20.961C25.5017 19.5667 25.6546 17.4488 27.0695 16.6369C27.4931 16.3957 27.9961 16.281 28.355 15.9545C29.5433 14.872 28.3432 12.4482 29.6287 11.4834C30.4523 10.8656 31.6171 11.3863 32.4731 11.957C33.4027 12.5747 34.3998 13.4424 34.3145 14.5573C34.2851 14.9279 34.1322 15.2927 34.1763 15.6633C34.2557 16.3428 34.9293 16.7664 35.5323 17.087C37.3973 18.0813 39.3328 19.099 41.4419 19.2373C41.7155 19.2549 42.0184 19.249 42.2243 19.0667C42.5126 18.8107 42.4567 18.3313 42.2538 18.0018C41.8478 17.34 40.933 17.0488 40.2212 17.3518C39.5064 17.6547 39.0828 18.5166 39.2769 19.2667C39.524 20.2197 40.6065 20.761 41.5919 20.7081C42.5744 20.6551 43.4716 20.1492 44.304 19.6256C44.457 19.5314 44.6099 19.4314 44.7188 19.2902C45.1571 18.7137 44.607 17.9136 44.051 17.4488C42.2332 15.928 40.0182 14.925 38.2533 13.3424C36.4883 11.7599 35.1941 9.25074 36.0442 7.03575C36.3589 6.21212 37.0649 5.44438 37.9473 5.4179C38.8239 5.39143 39.6093 6.08856 40.4859 6.02973C41.6772 5.95031 42.2861 4.62074 42.9333 3.61474C43.951 2.02924 45.766 0.855559 47.6427 1.0144C49.5223 1.17325 51.2372 2.95288 50.9607 4.81782C50.8666 5.45907 50.5607 6.07681 50.6107 6.72395C50.6519 7.25049 50.9254 7.72701 51.1519 8.20354C52.4962 11.0598 52.105 14.6543 50.1812 17.1576C49.94 17.4723 49.6606 17.8136 49.6812 18.2107C49.7076 18.6843 50.1871 19.0373 50.6607 19.0608C51.1343 19.0873 51.5843 18.8608 51.9726 18.5872C53.6081 17.4312 54.4494 15.3897 54.5494 13.3895C54.6494 11.3892 54.0964 9.41545 53.4022 7.53875C53.2434 7.10928 53.0728 6.64452 53.1904 6.20035C53.3787 5.47084 54.2288 5.1414 54.9759 5.04727C57.1233 4.77664 59.3824 5.5738 60.8796 7.13576C61.4503 7.72995 61.9327 8.48299 61.9239 9.30662C61.918 10.1303 61.2532 10.9774 60.4296 10.9362C60.4472 11.454 61.162 11.6863 61.2885 12.1864C61.3444 12.41 61.2709 12.6453 61.1855 12.86C59.7412 16.5634 55.6319 18.3225 52.0138 19.9697C51.5608 20.1756 51.0225 20.5904 51.2167 21.0493C51.3137 21.2816 51.5726 21.3993 51.8167 21.467C53.3287 21.8817 54.9112 21.0875 56.1231 20.0962C57.338 19.1049 58.3911 17.8812 59.7971 17.19C61.0855 16.5546 62.6857 16.4458 63.9388 17.1429C65.1949 17.843 65.9597 19.4373 65.489 20.7933C64.9772 22.2671 63.3299 22.9907 61.818 23.3819C59.7795 23.9114 57.6763 24.1467 55.5731 24.235C54.2141 24.2908 52.8257 24.282 51.5373 23.8467C50.7254 23.5731 49.9694 23.1348 49.3311 22.5642" stroke="#840FAF" stroke-linecap="round" stroke-linejoin="round"/>
</svg>
