<svg width="128" height="123" viewBox="0 0 128 123" fill="none" xmlns="http://www.w3.org/2000/svg">
<path d="M37.574 62.1338C35.924 62.7073 35.591 61.59 35.7834 61.2053C36.4456 59.8697 37.6887 58.8117 39.0612 58.1642C40.8259 57.3281 42.7977 57.0655 44.7326 56.8139C49.9933 56.1258 55.6944 55.5191 60.2892 58.1753C60.5925 55.8446 58.8797 53.6323 56.7709 52.589C54.6622 51.5458 52.2427 51.42 49.8935 51.309C46.6046 51.1573 43.312 51.0019 40.0231 50.8502C39.4349 50.8244 38.8207 50.7985 38.2806 51.0352C37.6554 51.309 37.2225 51.8861 36.8304 52.4447C34.0002 56.4625 31.6436 60.8094 29.8124 65.3709C28.795 67.9125 27.9293 70.7131 28.6618 73.3546C29.1501 75.1118 30.3118 77.0208 29.3906 78.6005C28.5249 80.084 26.4531 80.1358 24.8771 80.8202C22.5464 81.8339 21.1998 84.6899 21.899 87.1316C22.9497 87.2833 23.6378 87.0614 24.3777 86.303C24.0522 85.8553 23.3307 86.0403 22.8905 86.3806C22.4502 86.721 22.0322 87.1871 21.4773 87.1982C20.8299 87.2093 20.3711 86.6026 19.8606 86.2068C18.3956 85.0747 16.2831 85.6296 14.5813 86.3621C12.1581 87.4054 9.84593 88.7077 7.7002 90.243C8.32542 91.3084 9.86444 91.3306 11.0483 90.9903C12.2359 90.6499 13.4567 90.0728 14.6479 90.3983C15.3028 90.5759 15.854 91.0088 16.4533 91.3269C18.9542 92.6477 21.9878 91.8412 24.8143 91.9484C26.8305 92.0224 28.8283 92.5922 30.5818 93.591C32.0839 94.4456 33.523 95.648 35.2544 95.7035C32.291 94.3494 31.0628 90.7128 28.3806 88.863C26.6789 87.6866 24.4258 87.3388 22.4503 87.9492" stroke="#840FAF" stroke-linecap="round" stroke-linejoin="round"/>
<path d="M33.7598 96.8033C32.3392 96.3409 30.778 96.7404 29.4277 97.373C28.0736 98.0057 26.8306 98.864 25.4322 99.3856C23.1939 100.225 20.6228 100.137 18.4475 99.1414C17.8777 102.038 17.6853 105.009 17.8777 107.954C17.9628 109.26 18.0997 110.666 17.419 111.783C16.557 113.192 14.7294 113.599 13.1016 113.88C11.5922 114.139 9.63514 114.18 8.99512 112.793C10.7339 111.531 13.0831 111.735 14.8293 112.989C18.2218 115.427 22.8462 115.342 26.8861 114.273C30.926 113.203 34.7032 111.28 38.7653 110.299C43.1493 109.245 47.8958 109.274 51.8432 107.095C55.9275 104.842 58.4876 100.555 60.1376 96.1892C60.8923 94.1988 61.4472 92.2862 61.9023 90.207C62.5016 87.4546 63.0306 84.6022 62.4757 81.8387C61.9207 79.0788 60.0377 76.404 57.3037 75.7307C54.4144 75.0204 51.4844 76.6482 49.15 78.4906C46.4826 80.5956 44.0742 83.1298 42.6166 86.1967C41.1589 89.2673 40.7335 92.9262 41.9802 96.0856C42.3132 96.9328 42.7682 97.743 43.386 98.4089C45.4282 100.606 48.9724 100.84 51.7322 99.6668C54.4921 98.494 56.919 96.77 58.7391 94.3875C60.3521 92.2788 62.0576 89.1453 62.5793 86.5445" stroke="#840FAF" stroke-linecap="round" stroke-linejoin="round"/>
<path d="M48.2324 60.6177C47.3852 61.2392 47.2225 62.449 47.3816 63.4885C47.5147 64.3616 47.8551 65.2495 48.5432 65.8008C49.4533 66.5259 50.7925 66.5 51.858 66.0301C52.6386 65.6861 53.3378 65.1052 53.7041 64.332C54.0703 63.5588 54.0592 62.5933 53.5746 61.8903C53.2971 61.4945 52.8902 61.2022 52.461 60.9803C51.8913 60.688 51.2439 60.4993 50.6075 60.6029C49.9749 60.7028 49.3719 61.1393 49.2017 61.7572C49.05 62.3195 49.2979 62.9669 49.79 63.2777C50.282 63.5884 50.9738 63.5366 51.4141 63.1593C51.8062 62.8226 51.9431 62.1382 51.5472 61.809C51.3401 61.6388 51.0515 61.6092 50.7851 61.5981C50.4189 61.5833 50.0008 61.6129 49.7788 61.8977C49.5384 62.2048 49.6716 62.7042 50.0045 62.904C50.3375 63.1075 50.7888 63.0335 51.0922 62.793C51.3364 62.597 51.4881 62.2122 51.2809 61.9791C51.218 61.9088 51.1329 61.8645 51.0441 61.8349C50.5373 61.6647 49.9231 62.0642 49.8676 62.597" stroke="#840FAF" stroke-linecap="round" stroke-linejoin="round"/>
<path d="M37.5996 62.1154C40.6369 60.7355 44.0775 60.5986 47.4145 60.5986C49.8858 60.5986 52.5717 60.7429 54.4584 62.3374C55.3759 63.1106 56.1269 64.2353 57.3071 64.4462C56.0825 64.7273 55.0837 65.5486 53.9035 65.9704C52.2461 66.5623 50.4185 66.5253 48.6982 66.1553C46.9779 65.7891 45.3428 65.1084 43.7187 64.4314C42.6865 64.0022 41.6543 63.5694 40.6222 63.1402" stroke="#840FAF" stroke-linecap="round" stroke-linejoin="round"/>
<path d="M4.56262 52.4375C4.39244 51.9788 4.6625 51.446 5.06575 51.1723C5.469 50.8985 5.97583 50.8208 6.46417 50.7764C8.53221 50.5877 10.6113 50.8134 12.672 51.0428C13.9705 51.1871 15.3061 51.3387 16.464 51.9418C18.6541 53.0812 19.7603 55.5414 20.7037 57.824C20.7333 57.8906 20.7592 57.9646 20.7518 58.0386C20.7296 58.2051 20.5224 58.2865 20.3596 58.2421C20.1969 58.2014 20.0711 58.0793 19.9379 57.9794C19.309 57.5096 18.4655 57.48 17.6812 57.4837C15.5761 57.4911 13.4563 57.5947 11.3883 57.221C9.31651 56.8474 7.25958 55.9336 5.97214 54.2688" stroke="#840FAF" stroke-linecap="round" stroke-linejoin="round"/>
<path d="M13.7929 51.2393C13.4007 51.5315 13.1269 51.9607 12.9605 52.4194C12.4499 53.8067 12.9567 55.5048 14.148 56.3816C15.3392 57.2584 17.1076 57.2436 18.2841 56.3446C18.569 56.1264 18.8206 55.86 18.9537 55.5307C19.0536 55.2829 19.0832 55.0128 19.061 54.7464C19.0092 54.0435 18.5949 53.3665 17.9734 53.0335C17.3518 52.6969 16.5379 52.7302 15.9719 53.1482C15.4022 53.5663 15.1247 54.3543 15.343 55.0276C15.4059 55.22 15.5058 55.4012 15.6537 55.5418C16.0089 55.8785 16.6045 55.8933 17.0115 55.6232C17.4184 55.3531 17.633 54.8389 17.6034 54.3506C17.5812 53.9695 17.4147 53.5922 17.115 53.3554C16.8154 53.1223 16.3789 53.0557 16.0422 53.237C15.6686 53.4405 15.4947 53.8881 15.4836 54.3136C15.4762 54.5873 15.528 54.8722 15.7055 55.0831C16.0866 55.5344 16.919 55.3531 17.1742 54.8204C17.3481 54.4579 17.2519 53.9547 16.8968 53.7697C16.5416 53.5848 16.0089 53.9177 16.1051 54.3062" stroke="#840FAF" stroke-linecap="round" stroke-linejoin="round"/>
<path d="M23.3119 52.1529C22.6941 50.44 20.9701 49.3708 19.2387 48.8048C17.5073 48.2388 15.665 48.039 13.978 47.362C11.7287 46.463 9.8382 44.7057 8.76904 42.5304C8.46937 41.9162 8.2289 41.1948 8.48787 40.5622C8.74684 39.9296 9.71979 39.6114 10.1267 40.1626C7.91071 43.3517 4.66625 45.8155 1 47.0956C3.47869 41.8866 5.49862 36.4631 7.03393 30.9027C8.61363 25.1795 10.1379 18.6572 15.2506 15.6421C17.5296 14.2992 20.2154 13.8774 22.8162 13.3891C27.8254 12.4457 32.9862 11.0399 36.7524 7.60668C37.7476 6.7003 38.5688 5.73472 39.1571 4.52127C39.7453 3.30782 39.3901 1.53574 38.1138 1.09919C36.6451 0.596054 35.254 2.09807 34.7065 3.55199C32.7865 8.62776 35.5204 14.4952 39.6898 17.9691C43.8592 21.443 49.1902 23.1115 54.3067 24.9242C59.4194 26.7407 64.6691 28.9308 68.1688 33.0817C74.1695 40.2033 73.2298 50.9246 69.9668 59.6444C67.6472 65.8449 64.277 72.4005 66.2118 78.7304C69.6487 89.977 87.1993 92.2892 89.8482 103.747C90.159 105.097 90.2255 106.532 89.8149 107.853C89.0565 110.306 86.8404 111.978 84.691 113.384C79.6115 116.702 74.1769 119.485 68.5129 121.664C67.7656 121.397 67.5177 120.58 67.7471 119.821C67.9765 119.063 68.5795 118.482 69.1788 117.96C73.7625 113.983 79.5302 111.408 83.5886 106.899C84.506 105.881 85.3422 104.734 85.6788 103.406C86.5223 100.073 84.0547 96.8729 81.65 94.4164C79.2453 91.9562 76.5335 89.1298 76.7629 85.7003C77.0514 81.3829 81.7462 78.8784 85.9192 77.7315C90.0923 76.5883 94.8869 75.6265 97.1622 71.9491C98.9009 69.1412 98.9935 64.9829 101.964 63.5438C102.482 63.2922 103.093 63.122 103.403 62.6411C103.736 62.1268 103.61 61.4424 103.795 60.8579C103.98 60.2734 104.902 59.8738 105.146 60.4361" stroke="#840FAF" stroke-linecap="round" stroke-linejoin="round"/>
<path d="M105.127 78.1237C106.307 78.3309 105.959 80.706 104.502 80.3286C103.684 80.1141 103.155 79.2743 103.329 78.4493C103.562 77.3468 104.775 76.7142 105.878 76.7882C106.928 76.8585 107.875 77.4356 108.689 78.1015C113.543 82.0785 114.457 90.0399 110.628 95.0121C109.54 96.4253 107.635 97.6684 106.063 96.8249C105.012 96.2589 104.494 94.9122 103.369 94.509C102.759 94.2907 102.086 94.398 101.438 94.3462C98.3751 94.0946 96.8434 90.5986 95.9556 87.6537C95.1898 85.1195 94.4351 82.3338 95.4635 79.8958C94.3315 80.9169 93.4658 82.1969 92.4188 83.3031C91.1573 84.6423 89.4999 85.7855 87.5687 85.4895C86.5809 85.3378 85.6967 84.7311 85.3194 83.8062C84.6535 82.1599 85.8595 80.6727 87.1433 79.6997C88.2531 78.8599 89.5443 78.1422 90.225 76.9288C91.0611 75.4342 90.7059 73.4438 89.5738 72.1601C88.4418 70.8763 86.6586 70.277 84.9494 70.3547C82.9406 70.4472 80.8947 71.3832 78.9895 70.7431C77.0916 70.1068 75.9522 67.7909 76.607 65.9004C76.9325 64.957 77.6244 64.1616 77.8537 63.1924C78.1053 62.1491 77.7908 61.0355 78.0128 59.9849C78.5862 57.2694 82.2599 56.5184 84.9013 57.3693C90.2805 59.1044 93.525 64.9126 93.5952 70.6062C93.6026 71.2019 92.7851 71.398 92.5224 70.8652C90.9982 67.7613 91.198 63.8139 93.1698 60.9504C93.4732 60.5102 93.8247 60.07 93.9097 59.5409C94.0799 58.4865 93.1624 57.6061 92.3337 56.9327C89.7256 54.824 87.1174 52.7116 84.5055 50.6028C83.8618 50.0812 83.1477 49.4338 83.6065 48.446C83.6842 48.2795 83.7915 48.1278 83.9173 47.9946C85.9668 45.8341 89.3408 46.5814 92.1007 47.4397C94.5979 48.2203 97.2393 49.0934 98.8967 51.1171C100.391 52.9409 100.832 55.4455 100.595 57.791C100.417 59.5631 99.8919 61.276 99.2851 62.9556C99.1335 63.381 99.718 63.6585 99.9548 63.2775C100.887 61.7828 101.042 59.6963 101.224 57.8539C101.468 55.3789 102.541 52.3897 105.016 52.1122C105.848 52.0198 106.729 52.2713 107.509 51.968C108.956 51.4093 109.337 49.2488 111.294 49.4042C112.126 49.4708 112.877 49.9258 113.406 50.5732C114.509 51.9199 114.69 53.6919 115.419 55.2235C115.826 56.0781 116.403 56.8477 116.825 57.6948C118.071 60.1846 117.872 63.3366 116.325 65.6489C115.097 67.4912 113.051 68.7454 110.868 69.082C110.288 69.1708 110.051 68.3643 110.58 68.1054C112.396 67.2138 114.768 67.3876 116.636 68.3162C119.041 69.5149 120.794 71.6828 122.422 73.8211C124.231 76.1963 126.029 78.7267 126.554 81.6642C123.51 82.8739 120.121 84.0726 117.039 82.9627C113.177 81.568 111.309 77.1026 107.79 74.9828C107.051 76.6513 104.354 76.9177 103.299 75.4304C103.325 76.9066 101.953 78.2606 100.476 78.2125C99.0003 78.1644 97.7203 76.7216 97.8424 75.2492C98.0236 73.1071 98.4158 71.8826 99.7217 70.1771C100.965 68.5567 102.208 66.9326 103.451 65.3122C104.021 64.5686 104.664 63.7399 105.027 62.8779C105.375 62.0603 105.763 60.7544 104.986 60.266" stroke="#840FAF" stroke-linecap="round" stroke-linejoin="round"/>
</svg>
