<svg width="26" height="22" viewBox="0 0 26 22" fill="none" xmlns="http://www.w3.org/2000/svg">
<path d="M25.9998 16.7152C24.9646 17.2149 23.8697 17.5254 22.7379 17.6981C22.0461 17.8037 21.3462 17.8578 20.6064 17.9401C20.6064 17.7749 20.6051 17.6522 20.6064 17.5288C20.616 16.6651 20.6106 15.8029 20.3329 14.9693C19.7337 13.1721 18.5436 11.9397 16.7796 11.257C16.6884 11.2213 16.5959 11.1884 16.4697 11.1425C17.3706 10.2274 17.8559 9.15128 17.9053 7.88183C19.0187 7.88183 20.1012 7.8695 21.183 7.88869C21.5601 7.89554 21.9433 7.94695 22.3094 8.03743C24.2317 8.51244 25.6584 10.1027 25.9456 12.0596C25.9552 12.1241 25.9806 12.1858 25.9984 12.2488V16.7159L25.9998 16.7152Z" fill="#840FAF"/>
<path d="M19.696 18.3273C19.696 19.0038 19.6857 19.6804 19.7021 20.3562C19.7076 20.579 19.6274 20.6832 19.4327 20.7709C18.4626 21.2075 17.4446 21.4728 16.3977 21.638C13.2626 22.1349 10.2002 21.7627 7.18435 20.8545C6.70171 20.7092 6.70103 20.7106 6.70103 20.2033C6.7024 18.986 6.68389 17.768 6.70994 16.5513C6.76479 14.0295 8.7591 11.9533 11.2806 11.8416C12.6134 11.7826 13.953 11.7922 15.2857 11.8498C17.1813 11.9321 19.0056 13.4935 19.5047 15.3518C19.7145 16.1325 19.6946 16.9242 19.696 17.7179C19.696 17.9208 19.696 18.1237 19.696 18.3266V18.3273Z" fill="#840FAF"/>
<path d="M5.80873 17.9142C5.07997 17.8258 4.40126 17.7881 3.74174 17.6544C2.57697 17.4179 1.42384 17.1211 0.264549 16.8552C0.0712189 16.8106 -0.00213681 16.727 -8.01137e-05 16.5118C0.0129457 15.2944 0.00403329 14.0771 0.00677556 12.8597C0.0129457 10.253 1.81119 8.22197 4.39715 7.90256C4.59733 7.87788 4.80232 7.88199 5.00524 7.88199C6.00274 7.87994 7.00093 7.88131 7.99843 7.88131C8.14926 7.88131 8.29939 7.88131 8.47353 7.88131C8.54551 9.15212 9.00759 10.229 9.90636 11.1255C6.79595 12.3168 5.55576 14.6412 5.80804 17.9149L5.80873 17.9142Z" fill="#840FAF"/>
<path d="M13.1869 11.5464C11.0774 11.5396 9.38884 9.8479 9.38953 7.74084C9.38953 5.62898 11.1089 3.91674 13.215 3.92976C15.3101 3.94278 17.0233 5.67079 17.0089 7.75592C16.9945 9.85887 15.2861 11.5533 13.1869 11.5464Z" fill="#840FAF"/>
<path d="M6.50482 0.00195502C8.58826 -0.00010132 10.2885 1.67376 10.3173 3.7486C10.32 3.93162 10.272 4.05842 10.1274 4.18249C9.31016 4.88096 8.79804 5.76176 8.57249 6.81529C8.54713 6.93318 8.44086 7.07233 8.33391 7.12854C7.0046 7.8318 5.67528 7.80507 4.42001 6.98254C3.17296 6.16548 2.60326 4.9591 2.71363 3.47374C2.85897 1.51062 4.52696 0.00401136 6.50482 0.00195502Z" fill="#840FAF"/>
<path d="M19.5035 2.30543e-07C21.5177 0.000685677 23.2179 1.59915 23.3057 3.57392C23.3982 5.66247 21.9119 7.39802 19.8662 7.59474C19.2485 7.65438 18.6554 7.56184 18.0796 7.33427C17.9493 7.28287 17.8835 7.21843 17.8602 7.06901C17.6463 5.70497 16.9662 4.62676 15.8268 3.84741C15.6773 3.74528 15.6965 3.62944 15.7068 3.49783C15.8611 1.52717 17.5201 -0.000685216 19.5035 2.30543e-07Z" fill="#840FAF"/>
</svg>
