<svg width="24" height="24" viewBox="0 0 24 24" fill="none" xmlns="http://www.w3.org/2000/svg">
<g clip-path="url(#clip0_19_1780)">
<path d="M12.1682 0.174011C11.7947 0.174083 11.4289 0.280497 11.1136 0.480807C10.7983 0.681118 10.5466 0.967047 10.3879 1.30516L7.79705 6.82122L2.03705 7.69073C1.67945 7.74524 1.3438 7.89729 1.06701 8.13017C0.790213 8.36305 0.582986 8.66774 0.46811 9.01074C0.353233 9.35375 0.335154 9.72178 0.41586 10.0744C0.496567 10.427 0.672933 10.7505 0.925572 11.0094L5.15508 15.3452L4.1518 21.4779C4.09242 21.8422 4.1367 22.2158 4.27957 22.556C4.42245 22.8963 4.65815 23.1895 4.95976 23.4022C5.26137 23.6149 5.61672 23.7384 5.98521 23.7587C6.3537 23.779 6.72047 23.6952 7.0436 23.517L12.1682 20.692L17.2987 23.5347C17.6219 23.7135 17.9889 23.7977 18.3577 23.7777C18.7265 23.7577 19.0822 23.6342 19.3842 23.4215C19.6861 23.2087 19.922 22.9153 20.065 22.5747C20.2079 22.2341 20.2521 21.8602 20.1925 21.4957L19.1892 15.3609L23.4118 11.0429C23.6649 10.7844 23.8418 10.4612 23.9232 10.1087C24.0045 9.75628 23.9871 9.38821 23.8728 9.045C23.7585 8.7018 23.5519 8.39674 23.2755 8.16337C22.9991 7.93 22.6637 7.77735 22.3062 7.72221L16.5452 6.83696L13.9485 1.30516C13.7898 0.967047 13.538 0.681118 13.2228 0.480807C12.9075 0.280497 12.5417 0.174083 12.1682 0.174011Z" fill="#840FAF"/>
</g>
<defs>
<clipPath id="clip0_19_1780">
<rect width="24" height="24" fill="white"/>
</clipPath>
</defs>
</svg>
