<svg width="40" height="26" viewBox="0 0 40 26" fill="none" xmlns="http://www.w3.org/2000/svg">
<path d="M9.03079 25.8447C14.1378 25.8447 18.1703 21.704 18.1703 16.597C18.1703 11.4899 13.9759 7.34922 8.86887 7.34922C8.81778 7.34922 8.74072 7.35615 8.68963 7.35701C10.7089 5.74905 13.2451 4.78011 16.0212 4.78011C17.2984 4.78011 18.3262 3.7445 18.3262 2.46817C18.3262 1.19184 17.5044 0.156233 16.2272 0.156233C7.16219 0.157099 -0.000486374 7.53192 -0.000486374 16.597C-0.000486374 16.5987 -0.000486374 16.6004 -0.000486374 16.603C-0.000486374 21.7075 3.92548 25.8447 9.03079 25.8447Z" fill="#840FAF"/>
<path d="M30.6916 25.8447C35.7987 25.8447 39.8381 21.704 39.8381 16.597C39.8381 11.4899 35.6471 7.34922 30.5392 7.34922C30.4881 7.34922 30.4128 7.35615 30.3617 7.35701C32.381 5.74905 34.9181 4.78011 37.6941 4.78011C38.9713 4.78011 40 3.7445 40 2.46817C40 1.19184 39.1653 0.156233 37.8881 0.156233C28.823 0.157099 21.6474 7.53192 21.6474 16.597C21.6474 16.597 21.6474 16.6004 21.6474 16.603C21.6474 21.7075 25.5863 25.8447 30.6916 25.8447Z" fill="#840FAF"/>
</svg>
