<svg width="24" height="24" viewBox="0 0 24 24" fill="none" xmlns="http://www.w3.org/2000/svg">
<path fill-rule="evenodd" clip-rule="evenodd" d="M4.8712 2.06952H19.1972C19.718 2.06951 20.1675 2.0695 20.5395 2.09487C20.9312 2.1216 21.3229 2.18038 21.71 2.3407C22.5829 2.70227 23.2765 3.3958 23.638 4.26871C23.7983 4.65575 23.857 5.04752 23.8839 5.43919C23.9092 5.81119 23.9092 6.26063 23.9092 6.78153V16.3575C23.9092 16.8784 23.9092 17.3278 23.8839 17.6999C23.857 18.0915 23.7983 18.4833 23.638 18.8704C23.2765 19.7432 22.5829 20.4368 21.71 20.7983C21.3229 20.9586 20.9312 21.0174 20.5395 21.0442C20.1675 21.0695 19.718 21.0695 19.1972 21.0695H4.87119C4.35029 21.0695 3.90085 21.0695 3.52885 21.0442C3.13718 21.0174 2.74541 20.9586 2.35837 20.7983C1.48546 20.4368 0.791928 19.7432 0.430358 18.8704C0.270045 18.4833 0.211264 18.0915 0.184533 17.6999C0.159156 17.3278 0.159168 16.8784 0.15918 16.3575V6.78154C0.159168 6.26065 0.159156 5.81119 0.184533 5.43919C0.211264 5.04752 0.270045 4.65575 0.430358 4.26871C0.791928 3.3958 1.48546 2.70227 2.35837 2.3407C2.74541 2.18038 3.13718 2.1216 3.52885 2.09487C3.90085 2.0695 4.35031 2.06951 4.8712 2.06952ZM2.91115 4.77437C3.34303 4.28081 4.09325 4.23079 4.58682 4.66266L11.2522 10.4948C11.6999 10.8866 12.3685 10.8866 12.8161 10.4948L19.4816 4.66266C19.9751 4.23079 20.7254 4.28081 21.1571 4.77437C21.589 5.26794 21.539 6.01816 21.0455 6.45003L14.3801 12.2823C13.0369 13.4575 11.0315 13.4575 9.68827 12.2823L3.02287 6.45003C2.5293 6.01816 2.47928 5.26794 2.91115 4.77437Z" fill="#840FAF"/>
</svg>
