<svg width="20" height="20" viewBox="0 0 20 20" fill="none" xmlns="http://www.w3.org/2000/svg">
<g clip-path="url(#clip0_24_619)">
<path fill-rule="evenodd" clip-rule="evenodd" d="M10.0425 18.4226C10.0425 17.9082 10.4595 17.4913 10.9739 17.4913H18.4248C18.9392 17.4913 19.3562 17.9082 19.3562 18.4226C19.3562 18.937 18.9392 19.354 18.4248 19.354H10.9739C10.4595 19.354 10.0425 18.937 10.0425 18.4226Z" fill="#2BC804"/>
<path fill-rule="evenodd" clip-rule="evenodd" d="M18.214 6.40788C19.7133 4.90266 19.6496 2.92601 18.5301 1.71552C17.9841 1.12528 17.2072 0.748261 16.3271 0.727472C15.4438 0.70661 14.5286 1.04441 13.6842 1.75093C13.6625 1.769 13.6418 1.78804 13.6219 1.80799L1.54321 13.9349C1.02161 14.4585 0.72876 15.1676 0.72876 15.9067V17.484C0.72876 18.5099 1.55952 19.354 2.59507 19.354H4.15868C4.90165 19.354 5.61403 19.0581 6.13835 18.5317L18.214 6.40788ZM14.8922 4.25921C14.5285 3.89549 13.9388 3.89549 13.5751 4.25921C13.2114 4.62294 13.2114 5.21265 13.5751 5.57638L14.5065 6.50775C14.8702 6.87147 15.4599 6.87147 15.8236 6.50775C16.1873 6.14402 16.1873 5.55431 15.8236 5.19058L14.8922 4.25921Z" fill="#2BC804"/>
</g>
<defs>
<clipPath id="clip0_24_619">
<rect width="19" height="19" fill="white" transform="translate(0.5 0.5)"/>
</clipPath>
</defs>
</svg>
