<svg width="24" height="24" viewBox="0 0 24 24" fill="none" xmlns="http://www.w3.org/2000/svg">
<g clip-path="url(#clip0_19_1354)">
<path d="M15.6497 14.113L15.158 14.6018C15.158 14.6018 13.9893 15.7639 10.7992 12.5919C7.60917 9.41998 8.77787 8.25791 8.77787 8.25791L9.08748 7.95004C9.85029 7.19161 9.92218 5.97396 9.25664 5.08503L7.8954 3.26665C7.07173 2.16642 5.48014 2.02108 4.53606 2.95978L2.84161 4.64462C2.3735 5.11008 2.0598 5.71345 2.09784 6.38279C2.19517 8.09517 2.96992 11.7795 7.29312 16.0782C11.8777 20.6367 16.1793 20.8178 17.9385 20.6538C18.4949 20.602 18.9787 20.3186 19.3686 19.9309L20.9022 18.4061C21.9374 17.3768 21.6455 15.6121 20.321 14.8922L18.2585 13.771C17.3889 13.2982 16.3294 13.4371 15.6497 14.113Z" fill="#840FAF"/>
</g>
<defs>
<clipPath id="clip0_19_1354">
<rect width="19.8636" height="19" fill="white" transform="translate(2 2)"/>
</clipPath>
</defs>
</svg>
