<svg width="5" height="20" viewBox="0 0 5 20" fill="none" xmlns="http://www.w3.org/2000/svg">
<path d="M2.29166 4.5833C3.5573 4.5833 4.58331 3.5573 4.58331 2.29165C4.58331 1.02601 3.5573 0 2.29166 0C1.02601 0 0 1.02601 0 2.29165C0 3.5573 1.02601 4.5833 2.29166 4.5833Z" fill="#840FAF"/>
<path d="M2.29166 12.1666C3.5573 12.1666 4.58331 11.1406 4.58331 9.87496C4.58331 8.60932 3.5573 7.58331 2.29166 7.58331C1.02601 7.58331 0 8.60932 0 9.87496C0 11.1406 1.02601 12.1666 2.29166 12.1666Z" fill="#840FAF"/>
<path d="M2.29166 19.7499C3.5573 19.7499 4.58331 18.7239 4.58331 17.4583C4.58331 16.1926 3.5573 15.1666 2.29166 15.1666C1.02601 15.1666 0 16.1926 0 17.4583C0 18.7239 1.02601 19.7499 2.29166 19.7499Z" fill="#840FAF"/>
</svg>
