<svg width="4" height="26" viewBox="0 0 4 26" fill="none" xmlns="http://www.w3.org/2000/svg">
<path fill-rule="evenodd" clip-rule="evenodd" d="M4 2.92927C4 1.83786 3.10445 0.952881 2 0.952881C0.895553 0.952881 0 1.83786 0 2.92927C0 4.02068 0.895553 4.90566 2 4.90566C3.10445 4.90566 4 4.02068 4 2.92927Z" fill="#92959E"/>
<path fill-rule="evenodd" clip-rule="evenodd" d="M4 13.47C4 12.3786 3.10445 11.4937 2 11.4937C0.895553 11.4937 0 12.3786 0 13.47C0 14.5614 0.895553 15.4464 2 15.4464C3.10445 15.4464 4 14.5614 4 13.47Z" fill="#92959E"/>
<path fill-rule="evenodd" clip-rule="evenodd" d="M4 24.0108C4 22.9194 3.10514 22.0344 2.00069 22.0344C0.895553 22.0344 0 22.9194 0 24.0108C0 25.1022 0.895553 25.9872 2.00069 25.9872C3.10514 25.9872 4 25.1022 4 24.0108Z" fill="#92959E"/>
</svg>
