<svg width="24" height="24" viewBox="0 0 24 24" fill="none" xmlns="http://www.w3.org/2000/svg">
<g clip-path="url(#clip0_19_4614)">
<path d="M16.0001 2.81334C15.8746 2.68869 15.7046 2.61901 15.5277 2.61963C15.3508 2.62026 15.1814 2.69113 15.0568 2.81667C14.9321 2.94221 14.8624 3.11212 14.8631 3.28903C14.8637 3.46594 14.9346 3.63535 15.0601 3.76L18.7668 7.42H10.1001C8.43108 7.38531 6.80018 7.92111 5.47691 8.93885C4.15365 9.95659 3.21724 11.3954 2.82242 13.0174C2.4276 14.6394 2.59801 16.3476 3.3055 17.8596C4.01298 19.3717 5.21518 20.5971 6.71343 21.3333C6.87433 21.4156 7.0613 21.4305 7.2332 21.3749C7.40511 21.3192 7.54788 21.1976 7.6301 21.0367C7.71231 20.8758 7.72725 20.6888 7.67161 20.5169C7.61597 20.345 7.49433 20.2022 7.33343 20.12C6.33872 19.6265 5.50047 18.8667 4.91196 17.9251C4.32346 16.9835 4.00779 15.897 4.0001 14.7867C4.01419 13.1847 4.66274 11.6536 5.80364 10.529C6.94455 9.40432 8.48475 8.77779 10.0868 8.78667H18.7534L15.0601 12.44C14.985 12.5697 14.9557 12.7208 14.977 12.8692C14.9983 13.0175 15.069 13.1543 15.1776 13.2575C15.2863 13.3608 15.4265 13.4244 15.5757 13.4382C15.7249 13.4519 15.8744 13.415 16.0001 13.3333L21.3334 8.06L16.0001 2.81334Z" fill="#840FAF"/>
</g>
<defs>
<clipPath id="clip0_19_4614">
<rect width="24" height="24" fill="white"/>
</clipPath>
</defs>
</svg>
