<svg width="30" height="24" viewBox="0 0 30 24" fill="none" xmlns="http://www.w3.org/2000/svg">
<g clip-path="url(#clip0_19_1759)">
<path d="M12 10.6667C9.05444 10.6667 6.66663 8.27885 6.66663 5.33333C6.66663 2.38781 9.05444 0 12 0C14.9455 0 17.3333 2.38781 17.3333 5.33333C17.3333 8.27885 14.9455 10.6667 12 10.6667Z" fill="#840FAF"/>
<path d="M0.000868912 22.9323C0.517678 16.5687 5.68255 13.3333 11.9778 13.3333C18.3616 13.3333 23.6065 16.3909 23.9972 22.9333C24.0128 23.1939 23.9972 24 22.9956 24C18.0548 24 10.713 24 0.970003 24C0.635616 24 -0.0272823 23.2789 0.000868912 22.9323Z" fill="#840FAF"/>
<path d="M20.0233 6.18602L22.1163 8.27905C22.5015 8.66436 23.1264 8.66436 23.5116 8.27905L28.3953 3.39532" stroke="#840FAF" stroke-width="2" stroke-linecap="round" stroke-linejoin="round"/>
</g>
<defs>
<clipPath id="clip0_19_1759">
<rect width="30" height="24" fill="white"/>
</clipPath>
</defs>
</svg>
